SplineFontDB: 3.0
FontName: LinLibertineOB
FullName: Linux Libertine O Bold
FamilyName: Linux Libertine O
Weight: Bold
Copyright: Linux Libertine by Philipp H. Poll,\nOpen Font under Terms of following Free Software Licenses:\nGPL (General Public License) with font-exception and OFL (Open Font License).\nCreated with FontForge (http://fontforge.sf.net)\nSept 2003, 2004, 2005, 2006, 2007, 2008, 2009, 2010
UComments: "2003-08-29: Created.+AAoA-2004-07-25: v(1.0) release candidate+AAoA-2005-12-28: v(1.1.0) stable+AAoA-2006-01-01: v(2.0.0) stable+AAoA-2006-09-05: v(2.2.0) stable+AAoA-2006-12-04: v(2.3.0) stable+AAoA-2007-03-11: v(2.4.0) stable+AAoA-2007-06-11: v(2.6.0) stable+AAoA-2007-12-00: v(2.7.0) stable+AAoA-2008-06-00: v(2.8.14) stable+AAoA" 
Version: 4.8.5
ItalicAngle: 0
UnderlinePosition: -98
UnderlineWidth: 40
Ascent: 754
Descent: 246
LayerCount: 2
Layer: 0 0 "Back"  1
Layer: 1 0 "Fore"  0
NeedsXUIDChange: 1
XUID: [1021 993 1524925707 4740893]
FSType: 0
OS2Version: 0
OS2_WeightWidthSlopeOnly: 0
OS2_UseTypoMetrics: 0
CreationTime: 1156455862
ModificationTime: 1286055620
PfmFamily: 17
TTFWeight: 700
TTFWidth: 5
LineGap: 0
VLineGap: 0
OS2TypoAscent: 894
OS2TypoAOffset: 0
OS2TypoDescent: -246
OS2TypoDOffset: 0
OS2TypoLinegap: 0
OS2WinAscent: 894
OS2WinAOffset: 0
OS2WinDescent: 246
OS2WinDOffset: 0
HheadAscent: 894
HheadAOffset: 0
HheadDescent: -246
HheadDOffset: 0
OS2FamilyClass: 261
OS2Vendor: 'PfEd'
Lookup: 3 0 0 "'aalt' Alle Alternativen zeigen"  {"LinLibertine-'aalt' Alle Alternativen zeigen 1"  } ['aalt' ('DFLT' <'dflt' > 'cyrl' <'dflt' > 'grek' <'dflt' > 'latn' <'AZE ' 'CRT ' 'DEU ' 'MOL ' 'ROM ' 'TRK ' 'dflt' > ) ]
Lookup: 1 0 0 "'locl' Localized Forms Romaenisch"  {"'locl' Localized Forms Romaenisch 1"  } ['locl' ('latn' <'MOL ' 'ROM ' > ) ]
Lookup: 1 0 0 "'smcp' Gemeine nach Kapitaelchen i > i.sc"  {"'smcp' Gemeine nach Kapitaelchen i > i.sc 1"  } ['smcp' ('DFLT' <'dflt' > 'cyrl' <'dflt' > 'grek' <'dflt' > 'latn' <'DEU ' 'MOL ' 'ROM ' 'dflt' > ) ]

StartChar: exclam
Encoding: 33 33 0
Width: 244
Flags: HW
HStem: -10 139<70 173> 638 20G<106.5 140.5>
VStem: 48 146<11.9591 106.904> 50 144<431.981 638.446> 92 58<188.926 423.897>
LayerCount: 2
Fore
SplineSet
122 658 m 0
 159 658 194 634 194 583 c 0
 194 548 186 510 180 477 c 0
 163.7 379.1 151 279 150 230 c 0
 149.6 211 145.1 188 122 188 c 0
 95.9 188 93 208 92 242 c 0
 90.6 289.7 76.8 409.6 64 480 c 0
 57 515 50 544 50 583 c 0
 50 639 91 658 122 658 c 0
48 58 m 0
 48 97 82 129 122 129 c 0
 162 129 194 99 194 60 c 0
 194 22 160 -10 120 -10 c 0
 80 -10 48 20 48 58 c 0
EndSplineSet
EndChar

StartChar: quotedbl
Encoding: 34 34 1
Width: 376
Flags: HW
HStem: 421 224
VStem: 63 110<498.128 631.224> 204 110<498.128 631.224>
LayerCount: 2
Fore
SplineSet
110 411 m 1
 95 415 l 1
 95 415 63 585 63 591 c 0
 63 614 85 645 128 645 c 0
 170 645 173 626 173 608 c 0
 173 593 136 417 136 417 c 1
 110 411 l 1
251 411 m 1
 236 415 l 1
 236 415 204 585 204 591 c 0
 204 614 226 645 269 645 c 0
 311 645 314 626 314 608 c 0
 314 593 277 417 277 417 c 1
 251 411 l 1
EndSplineSet
EndChar

StartChar: numbersign
Encoding: 35 35 2
Width: 463
Flags: HW
HStem: 187 66<27 117 182 270 331 441> 360 66<53 144 208 295 358 466> 579 20G<177 238 328 385>
DStem2: 89 14 144 14 0.158649 0.987335<8.72568 175.251 250.727 350.344 425.661 592.345> 241 14 294 14 0.155356 0.987859<8.23384 175.405 250.08 350.188 425.174 592.19>
LayerCount: 2
Fore
SplineSet
278 253 m 1
 295 360 l 1
 201 360 l 1
 195 323 188 290 182 253 c 1
 278 253 l 1
348 360 m 1
 331 253 l 1
 449 253 l 1
 441 187 l 1
 322 187 l 1
 312 127 304 72 294 14 c 1
 241 14 l 1
 270 187 l 1
 174 187 l 1
 163 127 155 72 144 14 c 1
 89 14 l 1
 117 187 l 1
 18 187 l 1
 27 253 l 1
 127 253 l 1
 133 290 139 323 144 360 c 1
 44 360 l 1
 53 426 l 1
 153 426 l 1
 163 484 172 541 182 599 c 1
 238 599 l 1
 208 426 l 1
 305 426 l 1
 315 484 323 541 333 599 c 1
 385 599 l 1
 358 426 l 1
 475 426 l 1
 466 360 l 1
 348 360 l 1
EndSplineSet
EndChar

StartChar: dollar
Encoding: 36 36 3
Width: 438
VWidth: 999
Flags: HW
HStem: -13 40<157.025 291.972> -1 21G<61 72> 445 21G<339 392> 573 38<168.192 293.834>
VStem: 44 47<100.855 156.447> 45 90<416.427 531.87> 207 43<-86 669> 331 98<73.9232 206.753>
LayerCount: 2
Fore
SplineSet
97 11 m 0
 80 11 83 -1 61 -1 c 1
 61 38 53 96 44 156 c 1
 91 159 l 1
 107.5 94.9 138.2 37.5 207 28.3 c 1
 207 276.3 l 1
 138.5 301.9 45 347.2 45 463 c 0
 45 553.8 135.7 601.7 207 609.8 c 1
 207 669 l 1
 250 669 l 1
 250 610.5 l 1
 301.2 608.1 343.7 598.5 370 602 c 1
 373 554 383 501 392 449 c 1
 346 445 l 1
 339 464 l 1
 319.5 532.2 302.4 565.1 250 571.7 c 1
 250 355.8 l 1
 314.2 335.4 429 273.6 429 167 c 0
 429 83.5 387.6 -3.6 250 -12.3 c 1
 250 -86 l 1
 207 -86 l 1
 207 -12.3 l 1
 150.3 -8.4 116.8 11 97 11 c 0
250 257.9 m 1
 250 29.1 l 1
 287.2 35.9 331 61.3 331 136 c 0
 331 190.4 299.7 231.2 250 257.9 c 1
207 372.7 m 1
 207 571.3 l 1
 161.7 563.5 135 529.1 135 468 c 0
 135 429.9 171.5 393 207 372.7 c 1
EndSplineSet
EndChar

StartChar: percent
Encoding: 37 37 4
Width: 637
VWidth: 999
Flags: HW
HStem: -19 39<464.6 519.99> 214 36<494.292 553.315> 297 39<145.6 200.99> 474 45<285.497 457.718> 530 36<175.292 234.315>
VStem: 51 93<336.471 492.517> 243 42<385.167 510.902> 370 93<20.4706 176.517> 562 42<69.1669 208.803>
DStem2: 96 -4 150 -16 0.588938 0.808178<22.1045 620.449 651.051 709.262>
LayerCount: 2
Fore
SplineSet
463 53 m 0
 463 39.7 466 20 483 20 c 0
 503.7 20 523.4 36.7 537 60 c 0
 553.6 88.4 562 126.8 562 157 c 0
 562 209 537 214 523 214 c 0
 503.1 214 484.7 191.7 475 162 c 0
 463.8 127.7 463 83.6 463 53 c 0
370 91 m 0
 370 171 423 250 512 250 c 0
 560 250 604 231 604 159 c 0
 604 60 550 -19 471 -19 c 0
 438.7 -19 409.7 -10.5 393 11 c 0
 379 29 370 54 370 91 c 0
144 369 m 0
 144 355.7 147 336 164 336 c 0
 184.7 336 204.4 352.7 218 376 c 0
 234.6 404.4 243 442.8 243 473 c 0
 243 525 218 530 204 530 c 0
 184.1 530 165.7 507.7 156 478 c 0
 144.8 443.7 144 399.6 144 369 c 0
51 407 m 0
 51 487 104 566 193 566 c 0
 219 566 243.8 560.4 261.1 543.9 c 1
 302.9 542.4 346.6 519 364 519 c 0
 406 519 473 525 514 569 c 1
 561 548 l 1
 150 -16 l 1
 96 -4 l 1
 462 497 l 1
 423 481 384 474 354 474 c 0
 332.5 474 303.3 482.7 284 492.8 c 1
 284.7 487.3 285 481.3 285 475 c 0
 285 376 231 297 152 297 c 0
 119.7 297 90.7 305.5 74 327 c 0
 60 345 51 370 51 407 c 0
EndSplineSet
EndChar

StartChar: parenleft
Encoding: 40 40 5
Width: 315
Flags: HW
HStem: -213 21G<154.5 286.75>
VStem: 36 115<108.014 396.52>
LayerCount: 2
Fore
SplineSet
36 253 m 0
 36 435 139 607 270 720 c 1
 298 686 l 1
 268 651 151 517 151 253 c 0
 151 -11 266 -145 298 -181 c 1
 268 -213 l 1
 41 -17 36 208 36 253 c 0
EndSplineSet
Substitution2: "LinLibertine-'case' Versalformen 1" parenleft.sc
Substitution2: "LinLibertine-'c2sc' Versale nach Kapitaelchen 1" parenleft.sc
Substitution2: "LinLibertine-'sinf' Wissenschaftliche Indices 1" parenleft.inferior
Substitution2: "LinLibertine-'sups' Hochgestellte 1" parenleft.superior
AlternateSubs2: "LinLibertine-'aalt' Alle Alternativen zeigen 1" parenleft.sc
EndChar

StartChar: parenright
Encoding: 41 41 6
Width: 315
VWidth: 999
Flags: HW
HStem: 696 21<28.25 160.5>
VStem: 164 115<107.48 395.986>
LayerCount: 2
Fore
SplineSet
279 251 m 0
 279 69 176 -103 45 -216 c 1
 17 -182 l 1
 47 -147 164 -13 164 251 c 0
 164 515 49 649 17 685 c 1
 47 717 l 1
 274 521 279 296 279 251 c 0
EndSplineSet
Substitution2: "LinLibertine-'case' Versalformen 1" parenright.sc
Substitution2: "LinLibertine-'c2sc' Versale nach Kapitaelchen 1" parenright.sc
Substitution2: "LinLibertine-'sinf' Wissenschaftliche Indices 1" parenright.inferior
Substitution2: "LinLibertine-'sups' Hochgestellte 1" parenright.superior
AlternateSubs2: "LinLibertine-'aalt' Alle Alternativen zeigen 1" parenright.sc
EndChar

StartChar: asterisk
Encoding: 42 42 7
Width: 433
VWidth: 999
Flags: HW
HStem: 571 69<77.0607 155.725 271.439 350.068>
VStem: 114 99<486.481 523.5> 173 78<621.002 713.184>
LayerCount: 2
Fore
SplineSet
197 566 m 1
 184 568 171 573 156 571 c 0
 111 563 75 563 75 608 c 0
 75 622 84 640 108 640 c 0
 142 640 159 607 203 588 c 1
 199 628 173 653 173 679 c 0
 173 700 193 718 211 718 c 0
 229 718 251 707 251 683 c 0
 251 656 228 618 226 588 c 1
 271 607 282 642 315 642 c 0
 346 642 354 618 354 608 c 0
 354 578 320 568 285 568 c 0
 266 568 249 568 231 565 c 1
 265 529 316 531 316 480 c 0
 316 462 298 451 284 451 c 0
 235 451 238 513 213 552 c 1
 188 507 202 451 143 451 c 0
 126 451 114 464 114 479 c 0
 114 533 164 528 197 566 c 1
EndSplineSet
EndChar

StartChar: plus
Encoding: 43 43 8
Width: 537
Flags: HW
HStem: 195 74<61 232 306 477> 413 20G<232 306>
VStem: 232 74<32 195 269 433>
LayerCount: 2
Fore
SplineSet
306 269 m 1
 477 269 l 1
 477 195 l 1
 306 195 l 1
 306 32 l 1
 232 32 l 1
 232 195 l 1
 61 195 l 1
 61 269 l 1
 232 269 l 1
 232 433 l 1
 306 433 l 1
 306 269 l 1
EndSplineSet
Substitution2: "LinLibertine-'sinf' Wissenschaftliche Indices 1" plus.inferior
Substitution2: "LinLibertine-'sups' Hochgestellte 1" plus.superior
AlternateSubs2: "LinLibertine-'aalt' Alle Alternativen zeigen 1" plus.superior plus.inferior uni2098
EndChar

StartChar: slash
Encoding: 47 47 9
Width: 316
Flags: HW
VStem: 2 300
DStem2: 2 -21 65 -21 0.319461 0.947599<20.126 741.875>
LayerCount: 2
Fore
SplineSet
302 682 m 1
 65 -21 l 1
 2 -21 l 1
 239 682 l 1
 302 682 l 1
EndSplineSet
Ligature2: "LinLibertine-'frac' Brueche 1" uni2215
AlternateSubs2: "LinLibertine-'aalt' Alle Alternativen zeigen 1" uni2215
EndChar

StartChar: one
Encoding: 49 49 10
Width: 540
Flags: HW
HStem: -2 34<138.617 217.874 406.126 485.383> 590 20G<363 372.5>
VStem: 247 130<54.7283 488.997>
LayerCount: 2
Fore
SplineSet
377 122 m 2
 377 39 425 35 480 32 c 1
 490 26 490 4 480 -2 c 1
 398 -1 353 0 313 0 c 0
 273 0 144 -2 144 -2 c 1
 134 4 134 26 144 32 c 1
 199 35 247 39 247 122 c 2
 247 435 l 2
 247 485 241 489 228 489 c 0
 214 489 178 487 124 464 c 1
 110 474 102.8 490.4 102 507 c 1
 189 543 257 567 318 595 c 0
 341 606 358 610 368 610 c 0
 377 610 385 606 385 593 c 2
 385 593 377 536 377 483 c 2
 377 122 l 2
EndSplineSet
Substitution2: "LinLibertine-'onum' Minuskelziffern 1" one.taboldstyle
Substitution2: "LinLibertine-'pnum' Proportionalziffern 1" one.fitted
Substitution2: "LinLibertine-'sinf' Wissenschaftliche Indices 1" one.inferior
Substitution2: "LinLibertine-'sups' Hochgestellte 1" one.superior
AlternateSubs2: "LinLibertine-'aalt' Alle Alternativen zeigen 1" one.oldstyle one.superior one.fitted
EndChar

StartChar: two
Encoding: 50 50 11
Width: 540
Flags: HW
HStem: 0 69<215 417.152> 569 41<206.766 321.056>
VStem: 67 119<444.014 525.891> 358 141<375.435 526.133> 458 45<113.912 156.906>
DStem2: 190 205 262.175 179 0.771733 0.635947<-28.5368 204.392>
LayerCount: 2
Fore
SplineSet
67 454 m 0
 67 516 137 610 280 610 c 0
 387 610 499 556 499 448 c 0
 499 397.8 472 347 426 309 c 0
 392 280.9 391.4 288.8 321 229 c 2
 262.2 179 l 2
 226.7 148.8 215 121 215 69 c 1
 362 69 l 2
 407 69 436 96 458 164 c 1
 481 164 490 160 503 154 c 1
 496 97 484 38 472 0 c 1
 58 0 l 1
 58 60 71.4 97.6 190 205 c 2
 275 282 l 2
 336 338 358 377 358 444 c 0
 358 537 304 569 272 569 c 0
 208 569 186 523 186 500 c 0
 186 489 189 481 192 474 c 0
 195 465 197 458 197 453 c 0
 197 422 160 400 131 400 c 0
 95 400 67 429 67 454 c 0
EndSplineSet
Substitution2: "LinLibertine-'onum' Minuskelziffern 1" two.taboldstyle
Substitution2: "LinLibertine-'pnum' Proportionalziffern 1" two.fitted
Substitution2: "LinLibertine-'sinf' Wissenschaftliche Indices 1" two.inferior
Substitution2: "LinLibertine-'sups' Hochgestellte 1" two.superior
AlternateSubs2: "LinLibertine-'aalt' Alle Alternativen zeigen 1" two.oldstyle two.superior two.fitted
EndChar

StartChar: three
Encoding: 51 51 12
Width: 540
Flags: HW
HStem: -10 41<182.926 289.178> 309 40<170.947 220.774> 433 21G<76.9736 118.023> 570 40<200.079 297.209>
VStem: 55 113<447.584 536.003> 324 128<431.536 546.716> 352 141<112.172 271.836>
LayerCount: 2
Fore
SplineSet
253 570 m 0
 229 570 178.9 555 168 494 c 0
 160 449 140 433 96 433 c 0
 57.9 433 55 462 55 476 c 0
 55 489.3 58.3 512.5 76 536 c 0
 103.7 572.8 161.7 610 277 610 c 0
 415 610 452 533 452 489 c 0
 452 446 430 412 400 390 c 0
 383 377.5 364 368 333 358 c 1
 406 342 493 306 493 206 c 0
 493 64 370 -10 219 -10 c 0
 169.7 -10 112.3 -0.4 76 17.9 c 0
 54.1 29 42 43.9 42 65 c 0
 42 82 56 111 92 111 c 0
 129 111 151 89 162 74 c 0
 175 57 196 31 235 31 c 0
 267 31 352 62 352 192 c 0
 352 302 277 307 223 307 c 0
 208 307 196 305 175 299 c 1
 167 309 165.9 326.6 168 339 c 1
 252 358 324 425 324 473 c 0
 324 531 287 570 253 570 c 0
EndSplineSet
Substitution2: "LinLibertine-'onum' Minuskelziffern 1" three.taboldstyle
Substitution2: "LinLibertine-'pnum' Proportionalziffern 1" three.fitted
Substitution2: "LinLibertine-'sinf' Wissenschaftliche Indices 1" three.inferior
Substitution2: "LinLibertine-'sups' Hochgestellte 1" three.superior
AlternateSubs2: "LinLibertine-'aalt' Alle Alternativen zeigen 1" three.oldstyle three.superior three.fitted
EndChar

StartChar: four
Encoding: 52 52 13
Width: 540
Flags: HW
HStem: -2 34<171.617 250.874 438.126 517.383> 162 40<119 280 409 500>
VStem: 272 67<564.875 617.684> 280 129<54.7283 162 202 332>
LayerCount: 2
Fore
SplineSet
409 122 m 2
 409 39 457 35 512 32 c 1
 522 26 522 4 512 -2 c 1
 430 -1 383 0 343 0 c 0
 303 0 172 -2 172 -2 c 1
 162 4 162 26 172 32 c 1
 227 35 275 39 275 122 c 2
 275 162 l 1
 88 162 l 2
 64 162 60 164 55 169 c 2
 40 187 l 1
 34 198 26 211 26 215 c 0
 26 218 30.4 219.7 33 223 c 0
 124 340 240 518 312 610 c 1
 317 610 331 610 352 610 c 2
 409 610 l 1
 409 202 l 1
 500 202 l 1
 513 162 l 1
 409 162 l 1
 409 122 l 2
275 467.3 m 1
 203.9 362.9 151.2 276.3 99 202 c 1
 275 202 l 1
 275 467.3 l 1
EndSplineSet
Substitution2: "LinLibertine-'onum' Minuskelziffern 1" four.taboldstyle
Substitution2: "LinLibertine-'pnum' Proportionalziffern 1" four.fitted
Substitution2: "LinLibertine-'sinf' Wissenschaftliche Indices 1" four.inferior
Substitution2: "LinLibertine-'sups' Hochgestellte 1" four.superior
AlternateSubs2: "LinLibertine-'aalt' Alle Alternativen zeigen 1" four.oldstyle four.superior four.fitted
EndChar

StartChar: five
Encoding: 53 53 14
Width: 540
Flags: HW
HStem: -10 44<205.942 298.389> 337 57<150.789 286.949> 508 92<164.656 444.881> 514 99<162.681 264.07 268.803 322.999 326.682 450>
VStem: 338 141<105.398 280.817>
DStem2: 76.2021 311 150 381 0.13194 0.991258<79.1249 213.429>
LayerCount: 2
Fore
SplineSet
338 183 m 0
 338 283 290 337 230 337 c 0
 180 337 162 330 89 303 c 1
 76.2 311 l 1
 116 610 l 1
 173 606 225 600 266 600 c 0
 326 600 373 606 446 613 c 1
 469 600 l 1
 450 514 l 1
 389 510 361 508 325 508 c 0
 283 508 197 510 165 513 c 1
 159 462 157 433 150 381 c 1
 174 387 228 394 259 394 c 0
 405 394 479 304 479 204 c 0
 479 84 402 -10 249 -10 c 0
 201.2 -10 140.7 -2.5 102 18 c 0
 76.8 31.3 62 53.6 62 71 c 0
 62 93 77 118 113 118 c 0
 150 118 175 99 188 79 c 0
 204.2 54.1 223 34 243 34 c 0
 305 34 338 85 338 183 c 0
EndSplineSet
Substitution2: "LinLibertine-'onum' Minuskelziffern 1" five.taboldstyle
Substitution2: "LinLibertine-'pnum' Proportionalziffern 1" five.fitted
Substitution2: "LinLibertine-'sinf' Wissenschaftliche Indices 1" five.inferior
Substitution2: "LinLibertine-'sups' Hochgestellte 1" five.superior
AlternateSubs2: "LinLibertine-'aalt' Alle Alternativen zeigen 1" five.oldstyle five.superior five.fitted
EndChar

StartChar: six
Encoding: 54 54 15
Width: 540
Flags: HW
HStem: -10 39<246.551 342.63> 322 43<208.378 329.849> 566 44<350.203 481.71>
VStem: 48 136<122.202 299.144> 377 134<90.5061 271.521>
LayerCount: 2
Fore
SplineSet
185 283 m 1
 184 272 184 253 184 242 c 0
 184 68 249 29 299 29 c 0
 341 29 377 68 377 176 c 0
 377 224 363 322 269 322 c 0
 251 322 227 320 185 283 c 1
484 566 m 1
 427 563 338 556 279 508 c 0
 236.7 473.6 213 414 196 344 c 1
 229 357 260 365 293 365 c 0
 496 365 511 233 511 184 c 0
 511 110 474 -10 287 -10 c 0
 186 -10 48 32 48 246 c 0
 48 342 78 435 166 513 c 0
 245 582 329 603 478 610 c 1
 485.8 600.4 487.1 578.2 484 566 c 1
EndSplineSet
Substitution2: "LinLibertine-'onum' Minuskelziffern 1" six.taboldstyle
Substitution2: "LinLibertine-'pnum' Proportionalziffern 1" six.fitted
Substitution2: "LinLibertine-'sinf' Wissenschaftliche Indices 1" six.inferior
Substitution2: "LinLibertine-'sups' Hochgestellte 1" six.superior
AlternateSubs2: "LinLibertine-'aalt' Alle Alternativen zeigen 1" six.oldstyle six.superior six.fitted
EndChar

StartChar: seven
Encoding: 55 55 16
Width: 540
Flags: HW
HStem: -12 21G<121 239> 436 21G<70 116> 523 77<136.882 381>
VStem: 70 35<438.4 481.062>
LayerCount: 2
Fore
SplineSet
194 523 m 2
 161 523 127 516 105 436 c 1
 70 439 l 1
 78 491 89 563 90 611 c 0
 90 614 91 614 94 614 c 0
 112 610 114 600 148 600 c 2
 483 600 l 1
 489 591 l 1
 360 319 306 169 239 -2 c 1
 127 -12 l 1
 121 0 l 1
 204 153 317 390 381 523 c 1
 194 523 l 2
EndSplineSet
Substitution2: "LinLibertine-'onum' Minuskelziffern 1" seven.taboldstyle
Substitution2: "LinLibertine-'pnum' Proportionalziffern 1" seven.fitted
Substitution2: "LinLibertine-'sinf' Wissenschaftliche Indices 1" seven.inferior
Substitution2: "LinLibertine-'sups' Hochgestellte 1" seven.superior
AlternateSubs2: "LinLibertine-'aalt' Alle Alternativen zeigen 1" seven.oldstyle seven.superior seven.fitted
EndChar

StartChar: nine
Encoding: 57 57 17
Width: 540
VWidth: 487
Flags: HW
HStem: -10 44<71.2898 202.797> 235 43<223.151 344.622> 571 39<210.37 306.449>
VStem: 42 134<328.479 509.494> 369 136<300.856 477.798>
LayerCount: 2
Fore
SplineSet
368 317 m 1
 369 328 369 347 369 358 c 0
 369 532 304 571 254 571 c 0
 212 571 176 532 176 424 c 0
 176 376 190 278 284 278 c 0
 302 278 326 280 368 317 c 1
69 34 m 1
 126 37 215 44 274 92 c 0
 316.3 126.4 340 186 357 256 c 1
 324 243 293 235 260 235 c 0
 57 235 42 367 42 416 c 0
 42 490 79 610 266 610 c 0
 367 610 505 568 505 354 c 0
 505 258 475 165 387 87 c 0
 308 18 224 -3 75 -10 c 1
 67.2 -0.4 65.9 21.8 69 34 c 1
EndSplineSet
Substitution2: "LinLibertine-'onum' Minuskelziffern 1" nine.taboldstyle
Substitution2: "LinLibertine-'pnum' Proportionalziffern 1" nine.fitted
Substitution2: "LinLibertine-'sinf' Wissenschaftliche Indices 1" nine.inferior
Substitution2: "LinLibertine-'sups' Hochgestellte 1" nine.superior
AlternateSubs2: "LinLibertine-'aalt' Alle Alternativen zeigen 1" nine.oldstyle nine.superior nine.fitted
EndChar

StartChar: colon
Encoding: 58 58 18
Width: 219
VWidth: 999
Flags: HW
HStem: 39 111<85.9218 174.078> 302 111<85.9218 174.078>
VStem: 74 112<50.8467 138.078 313.847 401.078>
LayerCount: 2
Fore
SplineSet
57 370 m 0
 57 409 91 441 131 441 c 0
 171 441 203 411 203 372 c 0
 203 334 169 302 129 302 c 0
 89 302 57 332 57 370 c 0
57 107 m 0
 57 146 91 178 131 178 c 0
 171 178 203 148 203 109 c 0
 203 71 169 39 129 39 c 0
 89 39 57 69 57 107 c 0
EndSplineSet
EndChar

StartChar: less
Encoding: 60 60 19
Width: 512
Flags: HW
DStem2: 42 262 153 240 0.939793 0.341743<96.7987 435.295> 153 240 42 218 0.939793 -0.341743<0 338.496>
LayerCount: 2
Fore
SplineSet
153 240 m 1
 471 124 l 1
 471 62 l 1
 42 218 l 1
 42 262 l 1
 471 418 l 1
 471 356 l 1
 153 240 l 1
EndSplineSet
EndChar

StartChar: equal
Encoding: 61 61 20
Width: 551
Flags: HW
HStem: 142 56<59 493> 266 57<59 493>
LayerCount: 2
Fore
SplineSet
493 198 m 1
 493 142 l 1
 59 142 l 1
 59 198 l 1
 493 198 l 1
493 323 m 1
 493 266 l 1
 59 266 l 1
 59 323 l 1
 493 323 l 1
EndSplineSet
Substitution2: "LinLibertine-'sinf' Wissenschaftliche Indices 1" equal.inferior
Substitution2: "LinLibertine-'sups' Hochgestellte 1" equal.superior
AlternateSubs2: "LinLibertine-'aalt' Alle Alternativen zeigen 1" equal.superior
EndChar

StartChar: greater
Encoding: 62 62 21
Width: 512
Flags: HW
DStem2: 42 416 42 354 0.939088 -0.343676<21.3079 358.865> 42 122 42 60 0.940496 0.339806<0 337.555>
LayerCount: 2
Fore
SplineSet
359 238 m 1
 42 354 l 1
 42 416 l 1
 471 259 l 1
 471 215 l 1
 42 60 l 1
 42 122 l 1
 359 238 l 1
EndSplineSet
EndChar

StartChar: question
Encoding: 63 63 22
Width: 430
Flags: HW
HStem: -10 139<143 246> 622 36<147.137 252.31>
VStem: 26 101<502.614 588.742> 121 146<11.9591 106.904> 160 65<182.871 308> 286 115<434.339 583.679>
LayerCount: 2
Fore
SplineSet
127 570 m 0
 127 549 136 543 136 516 c 0
 136 491 113 475 83 475 c 0
 59 475 26 495 26 533 c 0
 26 568 45.1 590.9 79 619 c 0
 109.1 643.9 155 658 216 658 c 0
 330 658 401 597 401 505 c 0
 401 431 338 385 288 348 c 0
 260 328 225 301 225 229 c 2
 225 216 l 2
 225 191 220.5 182 192 182 c 0
 165.5 182 160 194 160 216 c 2
 160 231 l 2
 160 272 160 329 231 394 c 0
 266 425 286 462 286 512 c 0
 286 570 262.1 622 206 622 c 0
 162 622 127 598 127 570 c 0
121 58 m 0
 121 97 155 129 195 129 c 0
 235 129 267 99 267 60 c 0
 267 22 233 -10 193 -10 c 0
 153 -10 121 20 121 58 c 0
EndSplineSet
EndChar

StartChar: at
Encoding: 64 64 23
Width: 988
Flags: HW
HStem: -160 39<407.274 632.859> 24 42<411.002 490.994 622.002 711.275> 381 34<502.903 579.761> 584 37<401.936 597.238>
VStem: 92 94<102.389 345.27> 297 117<85.0796 246.981> 805 85<185.855 389.903>
LayerCount: 2
Fore
SplineSet
586 320 m 0
 586 355 582 381 557 381 c 0
 543 381 511.2 380.8 476 343 c 0
 431.2 294.8 414 227 414 164 c 0
 414 117 423 72 470 72 c 0
 500 72 530 107 557 193 c 0
 567 226 586 296 586 320 c 0
640 80 m 0
 640 67 647 66 658 66 c 0
 695 66 805 129 805 273 c 0
 805 494 621 584 504 584 c 0
 349 584 186 459 186 228 c 0
 186 80 277 -121 521 -121 c 0
 598 -121 669 -97 731 -46 c 1
 752 -75 l 1
 688 -124 625 -160 502 -160 c 0
 265 -160 92 -7 92 221 c 0
 92 428 260 621 513 621 c 0
 739 621 890 476 890 287 c 0
 890 147 772 24 638 24 c 0
 606 24 573 27 560 39 c 0
 545.4 52.5 540 67 540 86 c 1
 507 44 458 26 434 26 c 0
 388.2 26 358.4 34.7 336 54 c 0
 307 79 297 122 297 158 c 0
 297 286 439 415 554 415 c 0
 602 415 631 398 648 377 c 1
 685 410 l 1
 712 399 l 1
 653 146 l 2
 647 120 640 91 640 80 c 0
EndSplineSet
EndChar

StartChar: A
Encoding: 65 65 24
Width: 740
VWidth: 999
Flags: HW
HStem: -2 34<3.77002 69.5762 167.992 237.23 421.77 500.035 664.842 733.23> 235 48<250.587 425> 638 20G<426.5 441.203>
DStem2: 106.983 102 165 79 0.390001 0.920814<-25.5008 179.412 231.412 451.365> 323.835 614 336.175 520 0.390001 0.920814<-540.408 -382.79 -329.399 -81.7439> 434 658 343.096 520 0.338836 -0.940845<99.0351 349.768 401.027 600.306>
AnchorPoint: "unten_punkt" 323 -110 basechar 0
AnchorPoint: "unten_anhang" 581 5 basechar 0
AnchorPoint: "top_akzent" 369 850 basechar 0
LayerCount: 2
Fore
SplineSet
273 283 m 2
 425 283 l 1
 343.1 520 l 1
 336.2 520 l 1
 247.8 296.3 l 2
 244 286 251 283 273 283 c 2
165 79 m 2
 149.3 37.9 196.4 34.6 234 32 c 1
 240 26 240 4 234 -2 c 1
 197 -1 142 0 101 0 c 0
 62 0 44 -1 7 -2 c 1
 1 4 1 26 7 32 c 1
 50.5 35 80.8 40.1 107 102 c 2
 323.8 614 l 1
 359 614 419 649 434 658 c 1
 640 86 l 2
 658.3 35.1 691.2 35.5 730 32 c 1
 736 26 736 4 730 -2 c 1
 693 -1 637 0 596 0 c 0
 557 0 462 -1 425 -2 c 1
 419 4 419 26 425 32 c 1
 472.6 35.4 513 31 499 72 c 2
 443 235 l 1
 253 235 l 2
 229 235 223 231 218 218 c 2
 165 79 l 2
EndSplineSet
Substitution2: "LinLibertine-'c2sc' Versale nach Kapitaelchen 1" a.sc
Position2: "'cpsp' Versalabstaende 1" dx=2 dy=0 dh=5 dv=0
EndChar

StartChar: B
Encoding: 66 66 25
Width: 649
Flags: HW
HStem: -2 42<245.223 398.568> -2 34<13.6167 82.4056> 334 42<242 372.404> 605 42<245.143 375.483> 613 34<13.6167 82.4056>
VStem: 102 140<47 334 376 598> 414 140<424.816 568.13> 461 147<100.315 274.622>
LayerCount: 2
Fore
SplineSet
242 562 m 2
 242 376 l 1
 298 376 l 2
 369 376 414 409 414 489 c 0
 414 587 358 605 312 605 c 0
 247 605 242 591 242 562 c 2
242 334 m 1
 242 84 l 2
 242 55 248 40 308 40 c 0
 440 40 461 127 461 187 c 0
 461 273 416 334 313 334 c 2
 242 334 l 1
173 645 m 0
 204.7 645 265 647 315 647 c 0
 516.8 647 554 560 554 491 c 0
 554 440 512 385 458 361 c 1
 458 359 l 1
 564 331 608 274 608 186 c 0
 608 84 542 -2 337 -2 c 0
 277 -2 213 0 173 0 c 0
 133 0 19 -2 19 -2 c 1
 9 4 9 26 19 32 c 1
 74 35 102 39 102 122 c 2
 102 523 l 2
 102 606 74 610 19 613 c 1
 9 619 9 641 19 647 c 1
 19 647 133 645 173 645 c 0
EndSplineSet
Substitution2: "LinLibertine-'c2sc' Versale nach Kapitaelchen 1" b.sc
Position2: "'cpsp' Versalabstaende 1" dx=2 dy=0 dh=5 dv=0
EndChar

StartChar: C
Encoding: 67 67 26
Width: 706
VWidth: 999
Flags: HW
HStem: -10 52<319.411 502.57> 616 42<309.587 490.254>
VStem: 37 151<207.875 440.266> 596 43<455.199 507.434>
AnchorPoint: "mittelpunkt" 346 315 basechar 0
AnchorPoint: "unten_punkt" 363 -110 basechar 0
AnchorPoint: "unten_anhang" 356 -7 basechar 0
AnchorPoint: "top_akzent" 340 850 basechar 0
LayerCount: 2
Fore
SplineSet
397 -10 m 0
 300 -10 222 7 158 53 c 0
 77.8 110.7 37 221.1 37 315 c 0
 37 535.2 202 658 398 658 c 0
 521 658 566 618 617 613 c 1
 626 558 634 510 639 458 c 1
 627.7 452 608 449 596 453 c 1
 570 539 525 616 387 616 c 0
 268 616 188 489.4 188 334 c 0
 188 178 280 42 396 42 c 0
 466 42 547 68 618 146 c 1
 629 146 646 134 651 125 c 1
 583 36 494 -10 397 -10 c 0
EndSplineSet
Substitution2: "LinLibertine-'c2sc' Versale nach Kapitaelchen 1" c.sc
Position2: "'cpsp' Versalabstaende 1" dx=2 dy=0 dh=5 dv=0
EndChar

StartChar: D
Encoding: 68 68 27
Width: 729
Flags: HW
HStem: -2 42<269.225 426.596> -2 34<25.6167 94.4056> 604 42<268.527 415.668> 613 34<25.6167 94.4056>
VStem: 114 140<54.7283 590.272> 535 151<175.935 431.978>
LayerCount: 2
Fore
SplineSet
254 119 m 2
 254 52 280 40 350 40 c 0
 426 40 535 102 535 284 c 0
 535 435 513 604 316 604 c 0
 280 604 254 584 254 529 c 2
 254 119 l 2
185 0 m 0
 145 0 31 -2 31 -2 c 1
 21 4 21 26 31 32 c 1
 86 35 114 39 114 122 c 2
 114 523 l 2
 114 606 86 610 31 613 c 1
 21 619 21 641 31 647 c 1
 31 647 145 645 185 645 c 0
 225 645 267 646 320 646 c 0
 566 646 686 494 686 309 c 0
 686 207.4 653 124 605 82 c 0
 534.3 20.2 434.5 -2 347 -2 c 0
 307 -2 225 0 185 0 c 0
EndSplineSet
Substitution2: "LinLibertine-'c2sc' Versale nach Kapitaelchen 1" d.sc
Position2: "'cpsp' Versalabstaende 1" dx=2 dy=0 dh=5 dv=0
EndChar

StartChar: E
Encoding: 69 69 28
Width: 604
VWidth: 999
Flags: HMW
HStem: -2 34<6.77002 80.9433> 0 42<241.31 449.205> 317 50<237 396.134> 603 42<241.649 436.3> 613 34<7.25781 80.9433>
VStem: 97 140<44.9117 317 367 599.635> 409 43<252.086 302.875 377.375 431.914> 481 43<498.655 551.392> 520 45<116.761 167.944>
AnchorPoint: "unten_anhang" 334 4 basechar 0
AnchorPoint: "unten_punkt" 334 -110 basechar 0
AnchorPoint: "top_akzent" 328 850 basechar 0
LayerCount: 2
Fore
SplineSet
318 367 m 2
 385 367 406 374 409 429 c 1
 415 435 446 435 452 429 c 1
 451 399 450 377 450 343 c 0
 450 309 451 290 452 255 c 1
 446 249 415 249 409 255 c 1
 406 300 387 317 318 317 c 2
 237 317 l 1
 237 90 l 2
 237 63 256 42 278 42 c 2
 379 42 l 2
 455 42 500 98 520 170 c 1
 533.1 173.2 554.6 170.9 565 165 c 1
 557 114 552 48 538 -2 c 1
 538 -2 448 0 400 0 c 2
 165 0 l 1
 165 0 59 -1 10 -2 c 1
 4 4 4 26 10 32 c 1
 80 35 97 39 97 122 c 2
 97 522 l 2
 97 605 80 610 10 613 c 1
 4 619 4 641 10 647 c 1
 60 646 164 645 164 645 c 1
 459 645 l 2
 483 645 491 646 508 649 c 0
 511 649 512 648 512 646 c 0
 514 638 519 542 524 501 c 1
 514.2 496.3 493.4 494.2 481 496 c 1
 459 565 438 603 363 603 c 2
 278 603 l 2
 254 603 237 578 237 554 c 2
 237 367 l 1
 318 367 l 2
EndSplineSet
Substitution2: "LinLibertine-'c2sc' Versale nach Kapitaelchen 1" e.sc
Position2: "'cpsp' Versalabstaende 1" dx=2 dy=0 dh=5 dv=0
EndChar

StartChar: F
Encoding: 70 70 29
Width: 540
Flags: HW
HStem: -2 34<8.6167 77.4056 261.36 335.383> 297 50<237 396.134> 603 42<244.747 436.358> 613 34<7.25781 80.9433>
VStem: 97 140<50.5764 297 347 596.345> 409 43<232.086 282.875 357.375 411.914> 486 43<493.655 545.134>
AnchorPoint: "top_akzent" 328 850 basechar 0
AnchorPoint: "unten_punkt" 334 -110 basechar 0
LayerCount: 2
Fore
SplineSet
237 122 m 2
 237 39 275 35 330 32 c 1
 340 26 340 4 330 -2 c 1
 290 -1 208 0 168 0 c 0
 128 0 54 -1 14 -2 c 1
 4 4 4 26 14 32 c 1
 69 35 97 39 97 122 c 2
 97 522 l 2
 97 605 80 610 10 613 c 1
 4 619 4 641 10 647 c 1
 60 646 164 645 164 645 c 1
 464 645 l 2
 488 645 496 646 513 649 c 0
 516 649 517 648 517 646 c 0
 519 638 524 537 529 496 c 1
 519.2 491.3 498.4 489.2 486 491 c 1
 464 560 443 603 368 603 c 2
 278 603 l 2
 254 603 237 578 237 554 c 2
 237 347 l 1
 318 347 l 2
 385 347 406 354 409 409 c 1
 415 415 446 415 452 409 c 1
 451 379 450 357 450 323 c 0
 450 289 451 270 452 235 c 1
 446 229 415 229 409 235 c 1
 406 280 387 297 318 297 c 2
 237 297 l 1
 237 122 l 2
EndSplineSet
Substitution2: "LinLibertine-'c2sc' Versale nach Kapitaelchen 1" f.sc
Position2: "'cpsp' Versalabstaende 1" dx=2 dy=0 dh=5 dv=0
EndChar

StartChar: G
Encoding: 71 71 30
Width: 755
VWidth: 999
Flags: HW
HStem: -10 42<327.927 511.946> 271 37<454.77 530.366 691.908 734.23> 616 42<307.193 507.087>
VStem: 32 151<199.242 425.667> 540 145<78.4212 260.935> 633 44<458.045 503.422>
AnchorPoint: "mittelpunkt" 338 335 basechar 0
AnchorPoint: "unten_anhang" 397 2 basechar 0
AnchorPoint: "unten_punkt" 397 -110 basechar 0
AnchorPoint: "top_akzent" 395 850 basechar 0
LayerCount: 2
Fore
SplineSet
407 658 m 0
 529 658 595 623 655 623 c 1
 662 551 668 501 677 459 c 1
 633 453 l 1
 607 539 538 616 393 616 c 0
 344.5 616 282.9 595.3 242 542 c 0
 202.7 490.8 183 412.7 183 327 c 0
 183 195 247 32 425 32 c 0
 479 32 506 42 540 74 c 1
 540 223 l 2
 540 263.1 512.9 266.8 458 271 c 1
 452 277 452 302 458 308 c 1
 505 307 573 306 612 306 c 0
 652 306 701 307 731 308 c 1
 737 302 737 277 731 271 c 1
 702 268 685 258 685 223 c 2
 685 106 l 2
 685 95 690 87 701 78 c 1
 634 24 520 -10 402 -10 c 0
 305.6 -10 208.6 12.4 142 66 c 0
 69.8 124.1 32 217 32 307 c 0
 32 415.5 81.3 505.3 152 565.5 c 0
 224.6 627.4 319.8 658 407 658 c 0
EndSplineSet
Substitution2: "LinLibertine-'c2sc' Versale nach Kapitaelchen 1" g.sc
Position2: "'cpsp' Versalabstaende 1" dx=2 dy=0 dh=5 dv=0
EndChar

StartChar: grave
Encoding: 96 96 31
Width: 392
VWidth: 999
Flags: HW
LayerCount: 2
Fore
SplineSet
198 674 m 1
 267 550 l 2
 271 543 276 532 276 524 c 0
 276 515 268 508 259 508 c 0
 251 508 241.1 513.1 224 528 c 2
 103 633 l 1
 105 644 l 1
 113 653 142 676 178 676 c 0
 183 676 194 675 198 674 c 1
EndSplineSet
Substitution2: "LinLibertine-'case' Versalformen 1" uni0358
EndChar

StartChar: ograve
Encoding: 242 242 32
Width: 557
VWidth: 999
Flags: HW
HStem: -10 42<240.884 341.151> 402 42<214.256 315.486>
VStem: 35 140<118.075 311.105> 382 140<116.913 317.204>
LayerCount: 2
Fore
SplineSet
244 674 m 1
 313 550 l 2
 317 543 322 532 322 524 c 0
 322 515 314 508 305 508 c 0
 297 508 287.1 513.1 270 528 c 2
 149 633 l 1
 151 644 l 1
 159 653 188 676 224 676 c 0
 229 676 240 675 244 674 c 1
263 402 m 0
 196 402 175 321 175 229 c 0
 175 155 212 32 294 32 c 0
 330 32 382 63.9 382 184 c 0
 382 321 331 402 263 402 c 0
35 207 m 0
 35 266.1 54.8 326.4 92.7 370 c 0
 132.2 415.4 196.1 444 279 444 c 0
 427.5 444 522 346.8 522 216 c 0
 522 160.3 501.6 92.3 451 47 c 0
 409.9 10.2 348.5 -10 278 -10 c 0
 143.6 -10 35 76.4 35 207 c 0
EndSplineSet
Substitution2: "LinLibertine-'smcp' Gemeine nach Kapitaelchen 1" ograve.sc
AlternateSubs2: "LinLibertine-'aalt' Alle Alternativen zeigen 1" ograve.sc
EndChar

StartChar: oacute
Encoding: 243 243 33
Width: 557
VWidth: 999
Flags: HW
HStem: -10 42<240.884 341.151> 402 42<214.256 315.486>
VStem: 35 140<118.075 311.105> 382 140<116.913 317.204>
LayerCount: 2
Fore
SplineSet
282 674 m 1
 285 675 293 676 298 676 c 0
 328 676 347 662 355 652 c 1
 365 629 l 1
 245 521 l 2
 231 509 217 505 207 505 c 0
 199 505 191 513 191 519 c 0
 191 525 193 534 199 543 c 2
 282 674 l 1
263 402 m 0
 196 402 175 321 175 229 c 0
 175 155 212 32 294 32 c 0
 330 32 382 63.9 382 184 c 0
 382 321 331 402 263 402 c 0
35 207 m 0
 35 266.1 54.8 326.4 92.7 370 c 0
 132.2 415.4 196.1 444 279 444 c 0
 427.5 444 522 346.8 522 216 c 0
 522 160.3 501.6 92.3 451 47 c 0
 409.9 10.2 348.5 -10 278 -10 c 0
 143.6 -10 35 76.4 35 207 c 0
EndSplineSet
Substitution2: "LinLibertine-'smcp' Gemeine nach Kapitaelchen 1" oacute.sc
AlternateSubs2: "LinLibertine-'aalt' Alle Alternativen zeigen 1" oacute.sc
EndChar

StartChar: ocircumflex
Encoding: 244 244 34
Width: 557
VWidth: 999
Flags: HW
HStem: -10 42<240.884 341.151> 402 42<214.256 315.486>
VStem: 35 140<118.075 311.105> 382 140<116.913 317.204>
LayerCount: 2
Fore
SplineSet
303 663 m 1
 333 614 371 570 408 529 c 1
 383 510 l 1
 340 536 311 556 276 593 c 1
 238 554 210 536 170 510 c 1
 145 529 l 1
 181 570 221 615 251 663 c 1
 303 663 l 1
263 402 m 0
 196 402 175 321 175 229 c 0
 175 155 212 32 294 32 c 0
 330 32 382 63.9 382 184 c 0
 382 321 331 402 263 402 c 0
35 207 m 0
 35 266.1 54.8 326.4 92.7 370 c 0
 132.2 415.4 196.1 444 279 444 c 0
 427.5 444 522 346.8 522 216 c 0
 522 160.3 501.6 92.3 451 47 c 0
 409.9 10.2 348.5 -10 278 -10 c 0
 143.6 -10 35 76.4 35 207 c 0
EndSplineSet
Substitution2: "LinLibertine-'smcp' Gemeine nach Kapitaelchen 1" ocircumflex.sc
AlternateSubs2: "LinLibertine-'aalt' Alle Alternativen zeigen 1" ocircumflex.sc
EndChar

StartChar: otilde
Encoding: 245 245 35
Width: 557
VWidth: 999
Flags: HW
HStem: -10 42<240.884 341.151> 402 42<214.256 315.486> 519 70<259.399 360.905> 557 71<152.858 252.467>
VStem: 35 140<118.075 311.105> 113 26<521.865 543.979> 374 28<609.298 625.118> 382 140<116.913 317.204>
LayerCount: 2
Fore
SplineSet
325 589 m 0
 339 589 360 596 374 632 c 1
 388 632 402 624 402 612 c 1
 385 554 348 519 311 519 c 0
 288 519 266 525 246 540 c 1
 226 553 206 557 188 557 c 0
 166 557 150 555 139 517 c 1
 127 517 113 521 113 535 c 1
 129 586 161 628 196 628 c 0
 227 628 250 619 270 603 c 0
 288 589 314 589 325 589 c 0
263 402 m 0
 196 402 175 321 175 229 c 0
 175 155 212 32 294 32 c 0
 330 32 382 63.9 382 184 c 0
 382 321 331 402 263 402 c 0
35 207 m 0
 35 266.1 54.8 326.4 92.7 370 c 0
 132.2 415.4 196.1 444 279 444 c 0
 427.5 444 522 346.8 522 216 c 0
 522 160.3 501.6 92.3 451 47 c 0
 409.9 10.2 348.5 -10 278 -10 c 0
 143.6 -10 35 76.4 35 207 c 0
EndSplineSet
Substitution2: "LinLibertine-'smcp' Gemeine nach Kapitaelchen 1" otilde.sc
AlternateSubs2: "LinLibertine-'aalt' Alle Alternativen zeigen 1" otilde.sc
EndChar

StartChar: odieresis
Encoding: 246 246 36
Width: 557
VWidth: 999
Flags: HW
HStem: -10 42<240.884 341.151> 402 42<214.256 315.486> 519 109<133.037 221.257 312.743 400.963>
VStem: 35 140<118.075 311.105> 122 110<530.463 616.462> 302 110<530.463 616.462> 382 140<116.913 317.204>
LayerCount: 2
Fore
SplineSet
302 573 m 0
 302 604 326 628 357 628 c 0
 387 628 412 604 412 573 c 0
 412 543 387 519 357 519 c 0
 326 519 302 543 302 573 c 0
122 573 m 0
 122 604 147 628 177 628 c 0
 208 628 232 604 232 573 c 0
 232 543 208 519 177 519 c 0
 147 519 122 543 122 573 c 0
263 402 m 0
 196 402 175 321 175 229 c 0
 175 155 212 32 294 32 c 0
 330 32 382 63.9 382 184 c 0
 382 321 331 402 263 402 c 0
35 207 m 0
 35 266.1 54.8 326.4 92.7 370 c 0
 132.2 415.4 196.1 444 279 444 c 0
 427.5 444 522 346.8 522 216 c 0
 522 160.3 501.6 92.3 451 47 c 0
 409.9 10.2 348.5 -10 278 -10 c 0
 143.6 -10 35 76.4 35 207 c 0
EndSplineSet
Substitution2: "LinLibertine-'smcp' Gemeine nach Kapitaelchen 1" odieresis.sc
AlternateSubs2: "LinLibertine-'aalt' Alle Alternativen zeigen 1" odieresis.sc
EndChar

StartChar: divide
Encoding: 247 247 37
Width: 540
VWidth: 999
Flags: HW
HStem: 27.6 116.5<225.508 311.836> 203 66<76 461> 327.6 116.5<225.508 311.836>
VStem: 207.1 122.4<46.0234 125.601> 207.1 122.4<346.023 425.601>
LayerCount: 2
Fore
SplineSet
207.1 384.6 m 0
 207.1 417.3 235.6 444.1 269.1 444.1 c 0
 302.6 444.1 329.5 419 329.5 386.3 c 0
 329.5 354.5 300.9 327.6 267.4 327.6 c 0
 233.9 327.6 207.1 352.8 207.1 384.6 c 0
207.1 84.6 m 0
 207.1 117.3 235.6 144.1 269.1 144.1 c 0
 302.6 144.1 329.5 119 329.5 86.3 c 0
 329.5 54.5 300.9 27.6 267.4 27.6 c 0
 233.9 27.6 207.1 52.8 207.1 84.6 c 0
473 266 m 1
 463 206 l 1
 64 206 l 1
 74 266 l 1
 473 266 l 1
EndSplineSet
EndChar

StartChar: ugrave
Encoding: 249 249 38
Width: 599
VWidth: 999
Flags: HW
HStem: -10 74<188 306.066> 18 34<526.771 582.355> 402 34<22.77 75.7019 315.77 369.604>
VStem: 93 130<86.3211 390.242> 386 130<60.129 389.887>
LayerCount: 2
Fore
SplineSet
259 674 m 1
 328 550 l 2
 332 543 337 532 337 524 c 0
 337 515 329 508 320 508 c 0
 312 508 302.1 513.1 285 528 c 2
 164 633 l 1
 166 644 l 1
 174 653 203 676 239 676 c 0
 244 676 255 675 259 674 c 1
386 306 m 2
 386 390 370 397 319 402 c 1
 313 408 313 430 319 436 c 1
 362 435 400 434 451 434 c 0
 473 434 490 435 508 436 c 1
 514 430 518 419 518 402 c 0
 518 378 516 390 516 306 c 2
 516 120 l 2
 516 63 526.5 57.1 581 52 c 1
 583 46 585 24 583 18 c 1
 514 9 433.5 1 405 -10 c 1
 391 -10 382 -4 382 7 c 2
 382 7 383.4 26.3 384.5 52.2 c 1
 327 19.5 267.7 -10 231 -10 c 0
 145 -10 93 40 93 150 c 2
 93 306 l 2
 93 390 72 400 26 402 c 1
 20 408 20 430 26 436 c 1
 69 435 107 434 158 434 c 0
 180 434 197 435 215 436 c 1
 221 430 225 419 225 402 c 0
 225 378 223 390 223 306 c 2
 223 139 l 2
 223 82 263 64 303 64 c 0
 321 64 343.9 66 385.8 92.9 c 1
 385.9 99.5 386 106.2 386 112.7 c 2
 386 306 l 2
EndSplineSet
Substitution2: "LinLibertine-'smcp' Gemeine nach Kapitaelchen 1" ugrave.sc
AlternateSubs2: "LinLibertine-'aalt' Alle Alternativen zeigen 1" ugrave.sc
EndChar

StartChar: uacute
Encoding: 250 250 39
Width: 599
VWidth: 999
Flags: HW
HStem: -10 74<188 306.066> 18 34<526.771 582.355> 402 34<22.77 75.7019 315.77 369.604>
VStem: 93 130<86.3211 390.242> 386 130<60.129 389.887>
LayerCount: 2
Fore
SplineSet
309 674 m 1
 312 675 320 676 325 676 c 0
 355 676 374 662 382 652 c 1
 392 629 l 1
 272 521 l 2
 258 509 244 505 234 505 c 0
 226 505 218 513 218 519 c 0
 218 525 220 534 226 543 c 2
 309 674 l 1
386 306 m 2
 386 390 370 397 319 402 c 1
 313 408 313 430 319 436 c 1
 362 435 400 434 451 434 c 0
 473 434 490 435 508 436 c 1
 514 430 518 419 518 402 c 0
 518 378 516 390 516 306 c 2
 516 120 l 2
 516 63 526.5 57.1 581 52 c 1
 583 46 585 24 583 18 c 1
 514 9 433.5 1 405 -10 c 1
 391 -10 382 -4 382 7 c 2
 382 7 383.4 26.3 384.5 52.2 c 1
 327 19.5 267.7 -10 231 -10 c 0
 145 -10 93 40 93 150 c 2
 93 306 l 2
 93 390 72 400 26 402 c 1
 20 408 20 430 26 436 c 1
 69 435 107 434 158 434 c 0
 180 434 197 435 215 436 c 1
 221 430 225 419 225 402 c 0
 225 378 223 390 223 306 c 2
 223 139 l 2
 223 82 263 64 303 64 c 0
 321 64 343.9 66 385.8 92.9 c 1
 385.9 99.5 386 106.2 386 112.7 c 2
 386 306 l 2
EndSplineSet
Substitution2: "LinLibertine-'smcp' Gemeine nach Kapitaelchen 1" uacute.sc
AlternateSubs2: "LinLibertine-'aalt' Alle Alternativen zeigen 1" uacute.sc
EndChar

StartChar: ucircumflex
Encoding: 251 251 40
Width: 599
VWidth: 999
Flags: HW
HStem: -10 74<188 306.066> 18 34<526.771 582.355> 402 34<22.77 75.7019 315.77 369.604>
VStem: 93 130<86.3211 390.242> 386 130<60.129 389.887>
LayerCount: 2
Fore
SplineSet
307 663 m 1
 337 614 375 570 412 529 c 1
 387 510 l 1
 344 536 315 556 280 593 c 1
 242 554 214 536 174 510 c 1
 149 529 l 1
 185 570 225 615 255 663 c 1
 307 663 l 1
386 306 m 2
 386 390 370 397 319 402 c 1
 313 408 313 430 319 436 c 1
 362 435 400 434 451 434 c 0
 473 434 490 435 508 436 c 1
 514 430 518 419 518 402 c 0
 518 378 516 390 516 306 c 2
 516 120 l 2
 516 63 526.5 57.1 581 52 c 1
 583 46 585 24 583 18 c 1
 514 9 433.5 1 405 -10 c 1
 391 -10 382 -4 382 7 c 2
 382 7 383.4 26.3 384.5 52.2 c 1
 327 19.5 267.7 -10 231 -10 c 0
 145 -10 93 40 93 150 c 2
 93 306 l 2
 93 390 72 400 26 402 c 1
 20 408 20 430 26 436 c 1
 69 435 107 434 158 434 c 0
 180 434 197 435 215 436 c 1
 221 430 225 419 225 402 c 0
 225 378 223 390 223 306 c 2
 223 139 l 2
 223 82 263 64 303 64 c 0
 321 64 343.9 66 385.8 92.9 c 1
 385.9 99.5 386 106.2 386 112.7 c 2
 386 306 l 2
EndSplineSet
Substitution2: "LinLibertine-'smcp' Gemeine nach Kapitaelchen 1" ucircumflex.sc
AlternateSubs2: "LinLibertine-'aalt' Alle Alternativen zeigen 1" ucircumflex.sc
EndChar

StartChar: ebreve
Encoding: 277 277 41
Width: 484
VWidth: 999
Flags: HW
HStem: -10 86<216.361 345.445> 235 40<172 310> 402 42<205.631 284.5> 514 74<177.021 320.577>
VStem: 37 130<127.941 235 275 306.352> 110 33<621.43 659.121> 310 130<259 363.973> 358 32<624.913 659.188>
LayerCount: 2
Fore
SplineSet
143 667 m 1
 145 613 188 588 251 588 c 0
 298 588 355 603 358 667 c 1
 390 657 l 1
 380 552 302 514 251 514 c 0
 170 514 117 576 110 657 c 1
 143 667 l 1
172 275 m 1
 308 275 l 1
 310 277 310 290 310 296 c 0
 310 376 273 402 246 402 c 0
 234.7 402 207.9 391.8 192 368 c 0
 178.4 347.7 173 310 172 275 c 1
426 129 m 1
 436 129 441 111 441 98 c 1
 391 25 323 -10 254 -10 c 0
 182.9 -10 134.6 5.9 97 40 c 0
 54.2 78.8 37 139.5 37 198 c 0
 37 351 152 444 257 444 c 0
 404 444 437 351 437 266 c 0
 437 252 432 235 408 235 c 2
 168 235 l 1
 168 230 167 226 167 219 c 0
 167 121 215 76 293 76 c 0
 331 76 385 87 426 129 c 1
EndSplineSet
EndChar

StartChar: Edotaccent
Encoding: 278 278 42
Width: 604
VWidth: 999
Flags: HW
HStem: -2 34<6.77002 80.9433> 0 42<241.31 449.205> 317 50<237 396.134> 603 42<241.649 436.3> 613 34<7.25781 80.9433> 705 128<242.302 342.126>
VStem: 97 140<44.9117 317 367 599.635> 226 135<723.993 815.845> 409 43<252.086 302.875 377.375 431.914> 481 43<498.655 551.392> 520 45<116.761 167.944>
LayerCount: 2
Fore
SplineSet
245 771 m 0
 245 805 273 833 307 833 c 0
 341 833 369 805 369 771 c 0
 369 737 341 709 307 709 c 0
 273 709 245 737 245 771 c 0
318 367 m 2
 385 367 406 374 409 429 c 1
 415 435 446 435 452 429 c 1
 451 399 450 377 450 343 c 0
 450 309 451 290 452 255 c 1
 446 249 415 249 409 255 c 1
 406 300 387 317 318 317 c 2
 237 317 l 1
 237 90 l 2
 237 63 256 42 278 42 c 2
 379 42 l 2
 455 42 500 98 520 170 c 1
 533.1 173.2 554.6 171 565 165 c 1
 557 114 552 48 538 -2 c 1
 538 -2 448 0 400 0 c 2
 165 0 l 1
 165 0 59 -1 10 -2 c 1
 4 4 4 26 10 32 c 1
 80 35 97 39 97 122 c 2
 97 522 l 2
 97 605 80 610 10 613 c 1
 4 619 4 641 10 647 c 1
 60 646 164 645 164 645 c 1
 459 645 l 2
 483 645 491 646 508 649 c 0
 511 649 512 648 512 646 c 0
 514 638 519 542 524 501 c 1
 514.2 496.3 493.4 494.2 481 496 c 1
 459 565 438 603 363 603 c 2
 278 603 l 2
 254 603 237 578 237 554 c 2
 237 367 l 1
 318 367 l 2
EndSplineSet
Position2: "'cpsp' Versalabstaende 1" dx=2 dy=0 dh=5 dv=0
EndChar

StartChar: edotaccent
Encoding: 279 279 43
Width: 484
VWidth: 999
Flags: HW
HStem: -10 86<213.361 342.445> 235 40<169 307> 402 42<202.631 281.5> 540 128<192.287 292.126>
VStem: 34 130<127.941 235 275 306.352> 176 135<558.993 650.845> 307 130<259 363.973>
LayerCount: 2
Fore
SplineSet
176 580 m 0
 176 610 199 642 246 642 c 0
 288 642 311 606 311 576 c 0
 311 550 285 514 240 514 c 0
 200 514 176 547 176 580 c 0
172 275 m 1
 308 275 l 1
 310 277 310 290 310 296 c 0
 310 376 273 402 246 402 c 0
 234.7 402 207.9 391.8 192 368 c 0
 178.4 347.7 173 310 172 275 c 1
426 129 m 1
 436 129 441 111 441 98 c 1
 391 25 323 -10 254 -10 c 0
 182.9 -10 134.6 5.9 97 40 c 0
 54.2 78.8 37 139.5 37 198 c 0
 37 351 152 444 257 444 c 0
 404 444 437 351 437 266 c 0
 437 252 432 235 408 235 c 2
 168 235 l 1
 168 230 167 226 167 219 c 0
 167 121 215 76 293 76 c 0
 331 76 385 87 426 129 c 1
EndSplineSet
EndChar

StartChar: Eogonek
Encoding: 280 280 44
Width: 604
VWidth: 999
Flags: HW
HStem: -224 39<385.181 468.941> 0 25<454.256 490.88> 0 33<27 94.1445> 0 46<224.232 442.935> 323 42<224 361.625> 427 20<383 415> 600 46<224.232 421.482> 613 33<27 94.1445>
VStem: 101 123<46.578 323 365 599.422> 311 60<-173.091 -74.5789> 372 36<251.814 315.565 372.621 436.233> 474 40<482.425 531.807> 499 43<118.211 170.628>
LayerCount: 2
Fore
SplineSet
497 -177 m 1
 471 -213 427 -232 388 -232 c 0
 368.7 -232 352.4 -225.4 338 -216 c 0
 315.1 -201 299 -175.9 299 -136 c 0
 299 -87.6 346.4 -30.6 398.4 -0 c 1
 165 0 l 1
 165 0 59 -1 10 -2 c 1
 4 4 4 26 10 32 c 1
 80 35 97 39 97 122 c 2
 97 522 l 2
 97 605 80 610 10 613 c 1
 4 619 4 641 10 647 c 1
 60 646 164 645 164 645 c 1
 459 645 l 2
 483 645 491 646 508 649 c 0
 511 649 512 648 512 646 c 0
 514 638 519 542 524 501 c 1
 514.2 496.3 493.4 494.2 481 496 c 1
 459 565 438 603 363 603 c 2
 278 603 l 2
 254 603 237 578 237 554 c 2
 237 367 l 1
 318 367 l 2
 385 367 406 374 409 429 c 1
 415 435 446 435 452 429 c 1
 451 399 450 377 450 343 c 0
 450 309 451 290 452 255 c 1
 446 249 415 249 409 255 c 1
 406 300 387 317 318 317 c 2
 237 317 l 1
 237 90 l 2
 237 63 256 42 278 42 c 2
 379 42 l 2
 455 42 500 98 520 170 c 1
 533.1 173.2 554.6 171 565 165 c 1
 557 114 552 48 538 -2 c 1
 538 -2 508.4 -1.4 474.1 -0.8 c 1
 428.3 -11.6 391 -70 391 -130 c 0
 391 -162 408.5 -172 426 -172 c 0
 443 -172 467 -169 482 -154 c 1
 497 -177 l 1
EndSplineSet
Substitution2: "LinLibertine-'c2sc' Versale nach Kapitaelchen 1" eogonek.sc
Position2: "'cpsp' Versalabstaende 1" dx=2 dy=0 dh=5 dv=0
EndChar

StartChar: eogonek
Encoding: 281 281 45
Width: 484
VWidth: 999
Flags: HW
HStem: -218 40<269.1 348.306> -10 56<218.732 346.305> 245 40<154 316> 402 42<199.114 288.493>
VStem: 34 115<124.669 245 285 306.603> 184 72<-166.748 -67.9608> 316 115<259 363.973>
LayerCount: 2
Fore
SplineSet
172 275 m 1
 308 275 l 1
 310 277 310 290 310 296 c 0
 310 376 273 402 246 402 c 0
 234.7 402 207.9 391.8 192 368 c 0
 178.4 347.7 173 310 172 275 c 1
426 129 m 1
 436 129 441 111 441 98 c 1
 411 54.2 374.5 24.1 335.3 7 c 1
 299.2 -29.7 276 -68.9 276 -126 c 0
 276 -147 293.5 -158 311 -158 c 0
 328 -158 352 -155 367 -140 c 1
 382 -163 l 1
 356 -199 312 -218 273 -218 c 0
 223 -218 184 -187 184 -132 c 0
 184 -88 218.4 -45.5 259.1 -9.9 c 1
 257.4 -9.9 255.7 -10 254 -10 c 0
 182.9 -10 134.6 5.9 97 40 c 0
 54.2 78.8 37 139.5 37 198 c 0
 37 351 152 444 257 444 c 0
 404 444 437 351 437 266 c 0
 437 252 432 235 408 235 c 2
 168 235 l 1
 168 230 167 226 167 219 c 0
 167 121 215 76 293 76 c 0
 331 76 385 87 426 129 c 1
EndSplineSet
Substitution2: "LinLibertine-'smcp' Gemeine nach Kapitaelchen 1" eogonek.sc
AlternateSubs2: "LinLibertine-'aalt' Alle Alternativen zeigen 1" eogonek.sc
EndChar

StartChar: Ecaron
Encoding: 282 282 46
Width: 604
VWidth: 999
Flags: HW
HStem: -2 34<6.77002 80.9433> 0 42<241.31 449.205> 317 50<237 396.134> 603 42<241.649 436.3> 613 34<7.25781 80.9433> 698 136
VStem: 97 140<44.9117 317 367 599.635> 199 277 409 43<252.086 302.875 377.375 431.914> 481 43<498.655 551.392> 520 45<116.761 167.944>
LayerCount: 2
Fore
SplineSet
169 808 m 1
 169 818 176 830 185 834 c 1
 224 822 282 799 309 778 c 1
 339 800 395 823 432 834 c 1
 441 830 446 817 446 807 c 1
 404 780 354 738 319 703 c 1
 305 698 l 1
 268 735 209 782 169 808 c 1
318 367 m 2
 385 367 406 374 409 429 c 1
 415 435 446 435 452 429 c 1
 451 399 450 377 450 343 c 0
 450 309 451 290 452 255 c 1
 446 249 415 249 409 255 c 1
 406 300 387 317 318 317 c 2
 237 317 l 1
 237 90 l 2
 237 63 256 42 278 42 c 2
 379 42 l 2
 455 42 500 98 520 170 c 1
 533.1 173.2 554.6 171 565 165 c 1
 557 114 552 48 538 -2 c 1
 538 -2 448 0 400 0 c 2
 165 0 l 1
 165 0 59 -1 10 -2 c 1
 4 4 4 26 10 32 c 1
 80 35 97 39 97 122 c 2
 97 522 l 2
 97 605 80 610 10 613 c 1
 4 619 4 641 10 647 c 1
 60 646 164 645 164 645 c 1
 459 645 l 2
 483 645 491 646 508 649 c 0
 511 649 512 648 512 646 c 0
 514 638 519 542 524 501 c 1
 514.2 496.3 493.4 494.2 481 496 c 1
 459 565 438 603 363 603 c 2
 278 603 l 2
 254 603 237 578 237 554 c 2
 237 367 l 1
 318 367 l 2
EndSplineSet
Substitution2: "LinLibertine-'c2sc' Versale nach Kapitaelchen 1" ecaron.sc
Position2: "'cpsp' Versalabstaende 1" dx=2 dy=0 dh=5 dv=0
EndChar

StartChar: ecaron
Encoding: 283 283 47
Width: 484
VWidth: 999
Flags: HW
HStem: -10 86<216.361 345.445> 235 40<172 310> 402 42<205.631 284.5>
VStem: 37 130<127.941 235 275 306.352> 310 130<259 363.973>
LayerCount: 2
Fore
SplineSet
271 514 m 1
 221 514 l 1
 192 560 154 603 119 643 c 1
 143 661 l 1
 182 634 208 615 245 577 c 1
 279 613 309 634 348 661 c 1
 372 643 l 1
 336 603 300 561 271 514 c 1
172 275 m 1
 308 275 l 1
 310 277 310 290 310 296 c 0
 310 376 273 402 246 402 c 0
 234.7 402 207.9 391.8 192 368 c 0
 178.4 347.7 173 310 172 275 c 1
426 129 m 1
 436 129 441 111 441 98 c 1
 391 25 323 -10 254 -10 c 0
 182.9 -10 134.6 5.9 97 40 c 0
 54.2 78.8 37 139.5 37 198 c 0
 37 351 152 444 257 444 c 0
 404 444 437 351 437 266 c 0
 437 252 432 235 408 235 c 2
 168 235 l 1
 168 230 167 226 167 219 c 0
 167 121 215 76 293 76 c 0
 331 76 385 87 426 129 c 1
EndSplineSet
Substitution2: "LinLibertine-'smcp' Gemeine nach Kapitaelchen 1" ecaron.sc
AlternateSubs2: "LinLibertine-'aalt' Alle Alternativen zeigen 1" ecaron.sc
EndChar

StartChar: Gcircumflex
Encoding: 284 284 48
Width: 755
VWidth: 999
Flags: HW
HStem: -10 42<327.927 511.946> 271 37<454.77 530.366 691.908 734.23> 616 42<307.193 507.087> 698 136
VStem: 32 151<199.242 425.667> 280 277 540 145<78.4212 260.935> 633 44<458.045 503.422>
LayerCount: 2
Fore
SplineSet
557 724 m 1
 557 714 550.1 702.2 541 698 c 1
 502 710 444 733 417 754 c 1
 387 732 331 709 294 698 c 1
 284.9 702.2 280 715 280 725 c 1
 322 752 372.2 794.2 407 829 c 1
 421 834 l 1
 457.9 797.1 517 750 557 724 c 1
407 658 m 0
 529 658 595 623 655 623 c 1
 662 551 668 501 677 459 c 1
 633 453 l 1
 607 539 538 616 393 616 c 0
 344.5 616 282.9 595.3 242 542 c 0
 202.7 490.8 183 412.7 183 327 c 0
 183 195 247 32 425 32 c 0
 479 32 506 42 540 74 c 1
 540 223 l 2
 540 263.1 512.9 266.8 458 271 c 1
 452 277 452 302 458 308 c 1
 505 307 573 306 612 306 c 0
 652 306 701 307 731 308 c 1
 737 302 737 277 731 271 c 1
 702 268 685 258 685 223 c 2
 685 106 l 2
 685 95 690 87 701 78 c 1
 634 24 520 -10 402 -10 c 0
 305.6 -10 208.6 12.4 142 66 c 0
 69.8 124.1 32 217 32 307 c 0
 32 415.5 81.3 505.3 152 565.5 c 0
 224.6 627.4 319.8 658 407 658 c 0
EndSplineSet
Position2: "'cpsp' Versalabstaende 1" dx=2 dy=0 dh=5 dv=0
EndChar

StartChar: gcircumflex
Encoding: 285 285 49
Width: 518
VWidth: 999
Flags: HW
HStem: -238 42<178.622 331.027> -12 68<200.45 373.262> 135 37<205.129 289.171> 409 35<196.474 280.87> 424 43<370.607 460>
VStem: 38 94<-154.282 -55.8943> 62 106<210.3 365.373> 71 84<55.4643 131.752> 316 108<211.187 370.331> 406 91<-121.914 -39.1241>
LayerCount: 2
Fore
SplineSet
268 663 m 1
 298 614 336 570 373 529 c 1
 348 510 l 1
 305 536 276 556 241 593 c 1
 203 554 175 536 135 510 c 1
 110 529 l 1
 146 570 186 615 216 663 c 1
 268 663 l 1
290 284 m 0
 290 363 270 406 223 406 c 0
 184 406 166 375 166 301 c 0
 166 250 174 173 236 173 c 0
 262 173 290 188 290 284 c 0
183 -25 m 0
 162 -25 149 -23 139 -19 c 1
 128 -39 128 -62 128 -96 c 0
 128 -147 165 -196 231 -196 c 0
 269.3 -196 312 -193.9 343 -176.4 c 0
 375.9 -157.8 392 -117.2 392 -81 c 0
 392 -27.8 259.8 -25 183 -25 c 0
467 384 m 0
 442 384 424 405 420 418 c 1
 417 424 410 430 401 430 c 0
 391 430 358 422 350 412 c 1
 384 384 412 343 412 287 c 0
 412 242.1 391.8 204.5 363 179 c 0
 328.9 148.8 282 135 231 135 c 0
 200 135 178.5 140 157.5 150 c 1
 152.5 138 151 127 151 111 c 0
 151 71 178 69 196 69 c 0
 269.5 69 404.3 62 443 36 c 0
 483.3 8.9 493 -33.6 493 -55 c 0
 493 -165 342 -238 203 -238 c 0
 155.1 -238 96.7 -232.1 58 -205 c 0
 30.5 -185.7 19 -143 19 -106 c 0
 19 -89 63 -32 106 -6 c 1
 86.4 0.4 74.2 8.2 65 22 c 0
 55 37 52 48.9 52 68 c 0
 52 88.2 92 138 123 164.5 c 1
 75 191 46 243 46 292 c 0
 46 343.3 73.4 385.6 114 412 c 0
 147.1 433.5 188.9 444 232 444 c 0
 277 444 298 442 316 432 c 1
 345 458 403 481 447 481 c 0
 485 481 511 452 511 433 c 0
 511 396 495 384 467 384 c 0
EndSplineSet
EndChar

StartChar: Gbreve
Encoding: 286 286 50
Width: 755
VWidth: 999
Flags: HW
HStem: -10 42<327.927 511.946> 271 37<454.77 530.366 691.908 734.23> 616 42<307.193 507.087> 705 74<314.883 459.873>
VStem: 32 151<199.242 425.667> 253 28<808.109 830.75> 497 27<810.51 830.778> 540 145<78.4212 260.935> 633 44<458.045 503.422>
LayerCount: 2
Fore
SplineSet
524 830 m 1
 518 759 455 705 389 705 c 0
 316 705 258 760 253 830 c 1
 281 833 l 1
 289 794 336 779 389 779 c 0
 438 779 490 794 497 833 c 1
 524 830 l 1
407 658 m 0
 529 658 595 623 655 623 c 1
 662 551 668 501 677 459 c 1
 633 453 l 1
 607 539 538 616 393 616 c 0
 344.5 616 282.9 595.3 242 542 c 0
 202.7 490.8 183 412.7 183 327 c 0
 183 195 247 32 425 32 c 0
 479 32 506 42 540 74 c 1
 540 223 l 2
 540 263.1 512.9 266.8 458 271 c 1
 452 277 452 302 458 308 c 1
 505 307 573 306 612 306 c 0
 652 306 701 307 731 308 c 1
 737 302 737 277 731 271 c 1
 702 268 685 258 685 223 c 2
 685 106 l 2
 685 95 690 87 701 78 c 1
 634 24 520 -10 402 -10 c 0
 305.6 -10 208.6 12.4 142 66 c 0
 69.8 124.1 32 217 32 307 c 0
 32 415.5 81.3 505.3 152 565.5 c 0
 224.6 627.4 319.8 658 407 658 c 0
EndSplineSet
Substitution2: "LinLibertine-'c2sc' Versale nach Kapitaelchen 1" gbreve.sc
Position2: "'cpsp' Versalabstaende 1" dx=2 dy=0 dh=5 dv=0
EndChar

StartChar: gbreve
Encoding: 287 287 51
Width: 518
VWidth: 999
Flags: HW
HStem: -238 42<178.622 331.027> -12 68<200.45 373.262> 135 37<205.129 289.171> 409 35<196.474 280.87> 424 43<370.607 460> 494 62<164.853 299.87>
VStem: 38 94<-154.282 -55.8943> 62 106<210.3 365.373> 71 84<55.4643 131.752> 97 32<600.278 635.062> 316 108<211.187 370.331> 336 31<601.121 635.161> 406 91<-121.914 -39.1241>
LayerCount: 2
Fore
SplineSet
135 635 m 1
 137 581 180 556 243 556 c 0
 290 556 347 571 350 635 c 1
 382 625 l 1
 372 520 294 482 243 482 c 0
 162 482 109 544 102 625 c 1
 135 635 l 1
290 284 m 0
 290 363 270 406 223 406 c 0
 184 406 166 375 166 301 c 0
 166 250 174 173 236 173 c 0
 262 173 290 188 290 284 c 0
183 -25 m 0
 162 -25 149 -23 139 -19 c 1
 128 -39 128 -62 128 -96 c 0
 128 -147 165 -196 231 -196 c 0
 269.3 -196 312 -193.9 343 -176.4 c 0
 375.9 -157.8 392 -117.2 392 -81 c 0
 392 -27.8 259.8 -25 183 -25 c 0
467 384 m 0
 442 384 424 405 420 418 c 1
 417 424 410 430 401 430 c 0
 391 430 358 422 350 412 c 1
 384 384 412 343 412 287 c 0
 412 242.1 391.8 204.5 363 179 c 0
 328.9 148.8 282 135 231 135 c 0
 200 135 178.5 140 157.5 150 c 1
 152.5 138 151 127 151 111 c 0
 151 71 178 69 196 69 c 0
 269.5 69 404.3 62 443 36 c 0
 483.3 8.9 493 -33.6 493 -55 c 0
 493 -165 342 -238 203 -238 c 0
 155.1 -238 96.7 -232.1 58 -205 c 0
 30.5 -185.7 19 -143 19 -106 c 0
 19 -89 63 -32 106 -6 c 1
 86.4 0.4 74.2 8.2 65 22 c 0
 55 37 52 48.9 52 68 c 0
 52 88.2 92 138 123 164.5 c 1
 75 191 46 243 46 292 c 0
 46 343.3 73.4 385.6 114 412 c 0
 147.1 433.5 188.9 444 232 444 c 0
 277 444 298 442 316 432 c 1
 345 458 403 481 447 481 c 0
 485 481 511 452 511 433 c 0
 511 396 495 384 467 384 c 0
EndSplineSet
Substitution2: "LinLibertine-'smcp' Gemeine nach Kapitaelchen 1" gbreve.sc
AlternateSubs2: "LinLibertine-'aalt' Alle Alternativen zeigen 1" gbreve.sc
EndChar

StartChar: Gdotaccent
Encoding: 288 288 52
Width: 755
VWidth: 999
Flags: HW
HStem: -10 42<327.927 511.946> 271 37<454.77 530.366 691.908 734.23> 616 42<307.193 507.087> 705 128<337.302 437.126>
VStem: 32 151<199.242 425.667> 321 135<723.993 815.845> 540 145<78.4212 260.935> 633 44<458.045 503.422>
LayerCount: 2
Fore
SplineSet
339 771 m 0
 339 805 367 833 401 833 c 0
 435 833 463 805 463 771 c 0
 463 737 435 709 401 709 c 0
 367 709 339 737 339 771 c 0
407 658 m 0
 529 658 595 623 655 623 c 1
 662 551 668 501 677 459 c 1
 633 453 l 1
 607 539 538 616 393 616 c 0
 344.5 616 282.9 595.3 242 542 c 0
 202.7 490.8 183 412.7 183 327 c 0
 183 195 247 32 425 32 c 0
 479 32 506 42 540 74 c 1
 540 223 l 2
 540 263.1 512.9 266.8 458 271 c 1
 452 277 452 302 458 308 c 1
 505 307 573 306 612 306 c 0
 652 306 701 307 731 308 c 1
 737 302 737 277 731 271 c 1
 702 268 685 258 685 223 c 2
 685 106 l 2
 685 95 690 87 701 78 c 1
 634 24 520 -10 402 -10 c 0
 305.6 -10 208.6 12.4 142 66 c 0
 69.8 124.1 32 217 32 307 c 0
 32 415.5 81.3 505.3 152 565.5 c 0
 224.6 627.4 319.8 658 407 658 c 0
EndSplineSet
Position2: "'cpsp' Versalabstaende 1" dx=2 dy=0 dh=5 dv=0
EndChar

StartChar: gdotaccent
Encoding: 289 289 53
Width: 518
VWidth: 999
Flags: HW
HStem: -238 42<167.689 332.918> -25 94<154.499 363.029> 135 38<193.298 271.19> 406 38<184.038 264.797> 430 51<359.912 466> 514 128<180.302 280.126>
VStem: 19 109<-158.325 -66.8839> 46 120<217.796 364.884> 52 99<58.4478 119> 164 135<532.993 624.845> 290 122<210.992 366.087> 392 101<-122.686 -50.2685>
LayerCount: 2
Fore
SplineSet
164 580 m 0
 164 610 187 642 234 642 c 0
 276 642 299 606 299 576 c 0
 299 550 273 514 228 514 c 0
 188 514 164 547 164 580 c 0
290 284 m 0
 290 363 270 406 223 406 c 0
 184 406 166 375 166 301 c 0
 166 250 174 173 236 173 c 0
 262 173 290 188 290 284 c 0
183 -25 m 0
 162 -25 149 -23 139 -19 c 1
 128 -39 128 -62 128 -96 c 0
 128 -147 165 -196 231 -196 c 0
 269.3 -196 312 -193.9 343 -176.4 c 0
 375.9 -157.8 392 -117.2 392 -81 c 0
 392 -27.8 259.8 -25 183 -25 c 0
467 384 m 0
 442 384 424 405 420 418 c 1
 417 424 410 430 401 430 c 0
 391 430 358 422 350 412 c 1
 384 384 412 343 412 287 c 0
 412 242.1 391.8 204.5 363 179 c 0
 328.9 148.8 282 135 231 135 c 0
 200 135 178.5 140 157.5 150 c 1
 152.5 138 151 127 151 111 c 0
 151 71 178 69 196 69 c 0
 269.5 69 404.3 62 443 36 c 0
 483.3 8.9 493 -33.6 493 -55 c 0
 493 -165 342 -238 203 -238 c 0
 155.1 -238 96.7 -232.1 58 -205 c 0
 30.5 -185.7 19 -143 19 -106 c 0
 19 -89 63 -32 106 -6 c 1
 86.4 0.4 74.2 8.2 65 22 c 0
 55 37 52 48.9 52 68 c 0
 52 88.2 92 138 123 164.5 c 1
 75 191 46 243 46 292 c 0
 46 343.3 73.4 385.6 114 412 c 0
 147.1 433.5 188.9 444 232 444 c 0
 277 444 298 442 316 432 c 1
 345 458 403 481 447 481 c 0
 485 481 511 452 511 433 c 0
 511 396 495 384 467 384 c 0
EndSplineSet
EndChar

StartChar: Gcommaaccent
Encoding: 290 290 54
Width: 755
VWidth: 999
Flags: HW
HStem: -238 28<316.372 347.68> -134 83<327.251 381.724> -10 42<327.927 511.946> 271 37<454.77 530.366 691.908 734.23> 616 42<307.193 507.087>
VStem: 32 151<199.242 425.667> 382 61<-187.192 -97.5> 540 145<78.4212 260.935> 633 44<458.045 503.422>
LayerCount: 2
Fore
SplineSet
371 -51 m 0
 403 -51 443 -66 443 -129 c 0
 443 -186 391 -226 323 -238 c 1
 313 -232 313 -222 317 -210 c 1
 357 -199 382 -175 382 -157 c 0
 382 -137 361 -136 353 -134 c 0
 331 -129 320 -114 320 -89 c 0
 320 -72 348 -51 371 -51 c 0
407 658 m 0
 529 658 595 623 655 623 c 1
 662 551 668 501 677 459 c 1
 633 453 l 1
 607 539 538 616 393 616 c 0
 344.5 616 282.9 595.3 242 542 c 0
 202.7 490.8 183 412.7 183 327 c 0
 183 195 247 32 425 32 c 0
 479 32 506 42 540 74 c 1
 540 223 l 2
 540 263.1 512.9 266.8 458 271 c 1
 452 277 452 302 458 308 c 1
 505 307 573 306 612 306 c 0
 652 306 701 307 731 308 c 1
 737 302 737 277 731 271 c 1
 702 268 685 258 685 223 c 2
 685 106 l 2
 685 95 690 87 701 78 c 1
 634 24 520 -10 402 -10 c 0
 305.6 -10 208.6 12.4 142 66 c 0
 69.8 124.1 32 217 32 307 c 0
 32 415.5 81.3 505.3 152 565.5 c 0
 224.6 627.4 319.8 658 407 658 c 0
EndSplineSet
Position2: "'cpsp' Versalabstaende 1" dx=2 dy=0 dh=5 dv=0
EndChar

StartChar: gcommaaccent
Encoding: 291 291 55
Width: 518
VWidth: 999
Flags: HW
HStem: -238 42<178.622 331.027> -12 68<200.45 373.262> 135 37<205.129 289.171> 409 35<196.474 280.87> 424 43<370.607 460> 511 82<199.561 272.708> 673 17<251.498 273>
VStem: 38 94<-154.282 -55.8943> 62 106<210.3 365.373> 71 84<55.4643 131.752> 166 32<584 635.93> 316 108<211.187 370.331> 406 91<-121.914 -39.1241>
LayerCount: 2
Fore
SplineSet
232 508 m 0
 200 508 160 523 160 586 c 0
 160 643 212 683 280 695 c 1
 290 689 290 679 286 667 c 1
 246 656 221 632 221 614 c 0
 221 594 242 593 250 591 c 0
 272 586 283 571 283 546 c 0
 283 529 255 508 232 508 c 0
290 284 m 0
 290 363 270 406 223 406 c 0
 184 406 166 375 166 301 c 0
 166 250 174 173 236 173 c 0
 262 173 290 188 290 284 c 0
183 -25 m 0
 162 -25 149 -23 139 -19 c 1
 128 -39 128 -62 128 -96 c 0
 128 -147 165 -196 231 -196 c 0
 269.3 -196 312 -193.9 343 -176.4 c 0
 375.9 -157.8 392 -117.2 392 -81 c 0
 392 -27.8 259.8 -25 183 -25 c 0
467 384 m 0
 442 384 424 405 420 418 c 1
 417 424 410 430 401 430 c 0
 391 430 358 422 350 412 c 1
 384 384 412 343 412 287 c 0
 412 242.1 391.8 204.5 363 179 c 0
 328.9 148.8 282 135 231 135 c 0
 200 135 178.5 140 157.5 150 c 1
 152.5 138 151 127 151 111 c 0
 151 71 178 69 196 69 c 0
 269.5 69 404.3 62 443 36 c 0
 483.3 8.9 493 -33.6 493 -55 c 0
 493 -165 342 -238 203 -238 c 0
 155.1 -238 96.7 -232.1 58 -205 c 0
 30.5 -185.7 19 -143 19 -106 c 0
 19 -89 63 -32 106 -6 c 1
 86.4 0.4 74.2 8.2 65 22 c 0
 55 37 52 48.9 52 68 c 0
 52 88.2 92 138 123 164.5 c 1
 75 191 46 243 46 292 c 0
 46 343.3 73.4 385.6 114 412 c 0
 147.1 433.5 188.9 444 232 444 c 0
 277 444 298 442 316 432 c 1
 345 458 403 481 447 481 c 0
 485 481 511 452 511 433 c 0
 511 396 495 384 467 384 c 0
EndSplineSet
EndChar

StartChar: Hcircumflex
Encoding: 292 292 56
Width: 767
VWidth: 999
Flags: HW
HStem: -2 34<25.6167 94.4056 273.594 342.383 425.617 494.406 673.594 742.383> 319 48<222 522> 613 34<25.6167 94.4056 273.594 342.383 425.617 494.406 673.594 742.383> 698 136
VStem: 114 140<47 598> 250 277 514 140<47 598>
LayerCount: 2
Fore
SplineSet
527 724 m 1
 527 714 520.1 702.2 511 698 c 1
 472 710 414 733 387 754 c 1
 357 732 301 709 264 698 c 1
 254.9 702.2 250 715 250 725 c 1
 292 752 342.2 794.2 377 829 c 1
 391 834 l 1
 427.9 797.1 487 750 527 724 c 1
514 523 m 2
 514 606 486 610 431 613 c 1
 421 619 421 641 431 647 c 1
 471 646 545 645 585 645 c 0
 625 645 697 646 737 647 c 1
 747 641 747 619 737 613 c 1
 682 610 654 606 654 523 c 2
 654 122 l 2
 654 39 682 35 737 32 c 1
 747 26 747 4 737 -2 c 1
 697 -1 625 0 585 0 c 0
 545 0 471 -1 431 -2 c 1
 421 4 421 26 431 32 c 1
 486 35 514 39 514 122 c 2
 514 319 l 1
 254 319 l 1
 254 122 l 2
 254 39 282 35 337 32 c 1
 347 26 347 4 337 -2 c 1
 297 -1 225 0 185 0 c 0
 145 0 71 -1 31 -2 c 1
 21 4 21 26 31 32 c 1
 86 35 114 39 114 122 c 2
 114 523 l 2
 114 606 86 610 31 613 c 1
 21 619 21 641 31 647 c 1
 71 646 145 645 185 645 c 0
 225 645 297 646 337 647 c 1
 347 641 347 619 337 613 c 1
 282 610 254 606 254 523 c 2
 254 367 l 1
 514 367 l 1
 514 523 l 2
EndSplineSet
Position2: "'cpsp' Versalabstaende 1" dx=2 dy=0 dh=5 dv=0
EndChar

StartChar: hcircumflex
Encoding: 293 293 57
Width: 616
VWidth: 999
Flags: HW
HStem: -2 34<19.77 83.2627 243.609 290.23 331.77 378.004 538.737 602.23> 370 74<308.934 427> 638 34<29.1436 89.8851> 678 20<198.5 221.5>
VStem: 100 130<44.1062 341 381 631.241> 229 1<341 381> 392 130<44.1813 347.679>
LayerCount: 2
Fore
SplineSet
403 698 m 1
 433 649 471 605 508 564 c 1
 483 545 l 1
 440 571 411 591 376 628 c 1
 338 589 310 571 270 545 c 1
 245 564 l 1
 281 605 321 650 351 698 c 1
 403 698 l 1
522 128 m 2
 522 44 538 35 599 32 c 1
 605 26 605 4 599 -2 c 1
 556 -1 512 0 457 0 c 0
 409 0 377 -1 335 -2 c 1
 329 4 329 26 335 32 c 1
 376 35 392 44 392 128 c 2
 392 295 l 2
 392 352 352 370 312 370 c 0
 294.1 370 271.4 368 230 341.6 c 1
 230 127 l 2
 230 44 245 35 287 32 c 1
 293 26 293 4 287 -2 c 1
 244 -1 213 0 165 0 c 0
 110 0 65 -1 23 -2 c 1
 17 4 17 26 23 32 c 1
 84 35 100 44 100 127 c 2
 100 563 l 2
 100 631.6 95 633 32 638 c 1
 27 647 26 660 29 672 c 1
 100 675 180 686 217 698 c 1
 226 698 233 694 233 685 c 2
 233 685 230 648 230 583 c 2
 230 381.6 l 1
 287.7 414.4 347.2 444 384 444 c 0
 470 444 522 394 522 284 c 2
 522 128 l 2
EndSplineSet
EndChar

StartChar: Hbar
Encoding: 294 294 58
Width: 767
VWidth: 999
Flags: HW
HStem: -2 34<25.6167 94.4056 273.594 342.383 425.617 494.406 673.594 742.383> 319 48<222 522> 494 42<27 740> 613 34<25.6167 94.4056 273.594 342.383 425.617 494.406 673.594 742.383>
VStem: 114 140<47 598> 514 140<47 598>
LayerCount: 2
Fore
SplineSet
514 493.5 m 1
 457.2 493.9 407 494 387 494 c 0
 366.9 494 314 493.9 254 493.5 c 1
 254 367 l 1
 514 367 l 1
 514 493.5 l 1
514 319 m 1
 254 319 l 1
 254 122 l 2
 254 39 282 35 337 32 c 1
 347 26 347 4 337 -2 c 1
 297 -1 225 0 185 0 c 0
 145 0 71 -1 31 -2 c 1
 21 4 21 26 31 32 c 1
 86 35 114 39 114 122 c 2
 114 492.3 l 1
 68.8 491.7 32.2 490.9 18 490 c 1
 27 540 l 1
 40.2 539.1 72.8 538.5 113.7 537.9 c 1
 110.4 606.5 82.5 610.2 31 613 c 1
 21 619 21 641 31 647 c 1
 71 646 145 645 185 645 c 0
 225 645 297 646 337 647 c 1
 347 641 347 619 337 613 c 1
 285.2 610.2 257.3 606.5 254.3 536.6 c 1
 317.8 536.2 374.9 536 396 536 c 0
 414.9 536 460.8 536.1 513.7 536.4 c 1
 510.7 606.4 482.9 610.2 431 613 c 1
 421 619 421 641 431 647 c 1
 471 646 545 645 585 645 c 0
 625 645 697 646 737 647 c 1
 747 641 747 619 737 613 c 1
 685.4 610.2 657.6 606.5 654.3 537.7 c 1
 698.4 538.3 734.6 539 749 540 c 1
 740 490 l 1
 726.5 490.9 694.2 491.6 654 492.2 c 1
 654 122 l 2
 654 39 682 35 737 32 c 1
 747 26 747 4 737 -2 c 1
 697 -1 625 0 585 0 c 0
 545 0 471 -1 431 -2 c 1
 421 4 421 26 431 32 c 1
 486 35 514 39 514 122 c 2
 514 319 l 1
EndSplineSet
Position2: "'cpsp' Versalabstaende 1" dx=2 dy=0 dh=5 dv=0
EndChar

StartChar: hbar
Encoding: 295 295 59
Width: 616
VWidth: 999
Flags: HW
HStem: -2 34<19.77 83.2627 243.609 290.23 331.77 378.004 538.737 602.23> 370 74<308.934 427> 524 42<24 313> 638 34<29.1436 89.8851> 678 20<198.5 221.5>
VStem: 100 130<44.1062 341 381 631.241> 229 1<341 381> 392 130<44.1813 347.679>
LayerCount: 2
Fore
SplineSet
522 128 m 2
 522 44 538 35 599 32 c 1
 605 26 605 4 599 -2 c 1
 556 -1 512 0 457 0 c 0
 409 0 377 -1 335 -2 c 1
 329 4 329 26 335 32 c 1
 376 35 392 44 392 128 c 2
 392 295 l 2
 392 352 352 370 312 370 c 0
 294.1 370 271.4 368 230 341.6 c 1
 230 127 l 2
 230 44 245 35 287 32 c 1
 293 26 293 4 287 -2 c 1
 244 -1 213 0 165 0 c 0
 110 0 65 -1 23 -2 c 1
 17 4 17 26 23 32 c 1
 84 35 100 44 100 127 c 2
 100 523.4 l 1
 70.2 522.8 41.4 521.8 15 520 c 1
 24 570 l 1
 47.7 568.4 73.4 567.4 100 566.8 c 1
 99.8 631.7 93.8 633.1 32 638 c 1
 27 647 26 660 29 672 c 1
 100 675 180 686 217 698 c 1
 226 698 233 694 233 685 c 2
 233 685 230 648 230 583 c 2
 230 566.5 l 1
 262.3 567.1 293.5 568.1 322 570 c 1
 313 520 l 1
 287.2 521.7 259.1 522.8 230 523.4 c 1
 230 381.6 l 1
 287.7 414.4 347.2 444 384 444 c 0
 470 444 522 394 522 284 c 2
 522 128 l 2
EndSplineSet
EndChar

StartChar: Itilde
Encoding: 296 296 60
Width: 367
VWidth: 999
Flags: HW
HStem: -2 34<25.6167 94.4056 273.594 342.383> 613 34<25.6167 94.4056 273.594 342.383> 692 70<192.399 293.905> 730 71<85.8584 185.467>
VStem: 46 26<694.865 716.979> 114 140<47 598> 307 28<782.298 798.118>
LayerCount: 2
Fore
SplineSet
258 762 m 0
 272 762 293 769 307 805 c 1
 321 805 335 797 335 785 c 1
 318 727 281 692 244 692 c 0
 221 692 199 698 179 713 c 1
 159 726 139 730 121 730 c 0
 99 730 83 728 72 690 c 1
 60 690 46 694 46 708 c 1
 62 759 94 801 129 801 c 0
 160 801 183 792 203 776 c 0
 221 762 247 762 258 762 c 0
114 523 m 2
 114 606 86 610 31 613 c 1
 21 619 21 641 31 647 c 1
 71 646 145 645 185 645 c 0
 225 645 297 646 337 647 c 1
 347 641 347 619 337 613 c 1
 282 610 254 606 254 523 c 2
 254 122 l 2
 254 39 282 35 337 32 c 1
 347 26 347 4 337 -2 c 1
 297 -1 225 0 185 0 c 0
 145 0 71 -1 31 -2 c 1
 21 4 21 26 31 32 c 1
 86 35 114 39 114 122 c 2
 114 523 l 2
EndSplineSet
Position2: "'cpsp' Versalabstaende 1" dx=2 dy=0 dh=5 dv=0
EndChar

StartChar: itilde
Encoding: 297 297 61
Width: 322
VWidth: 999
Flags: HW
HStem: -2 34<26.77 89.8255 244.175 307.23> 382 34<35.6452 91.2285> 519 70<148.559 239.914> 557 71<52.6726 142.321>
VStem: 16.8 23.4<521.865 543.979> 102 130<41.4929 373.871> 251.7 25.2<609.298 625.118>
LayerCount: 2
Fore
SplineSet
207.6 589 m 0
 220.2 589 239.1 596 251.7 632 c 1
 264.3 632 276.9 624 276.9 612 c 1
 261.6 554 228.3 519 195 519 c 0
 174.3 519 154.5 525 136.5 540 c 1
 118.5 553 100.5 557 84.3 557 c 0
 64.5 557 50.1 555 40.2 517 c 1
 29.4 517 16.8 521 16.8 535 c 1
 31.2 586 60 628 91.5 628 c 0
 119.4 628 140.1 619 158.1 603 c 0
 174.3 589 197.7 589 207.6 589 c 0
232 122 m 2
 232 39 243 36 304 32 c 1
 310 26 310 4 304 -2 c 1
 261 -1 220 0 167 0 c 0
 114 0 72 -1 30 -2 c 1
 24 4 24 26 30 32 c 1
 91 37 102 39 102 122 c 2
 102 314 l 2
 102 371 91.5 376.9 37 382 c 1
 35 388 33 410 35 416 c 1
 104 425 184.5 433 213 444 c 1
 227 444 236 438 236 427 c 2
 236 427 232 371 232 321.3 c 2
 232 122 l 2
EndSplineSet
EndChar

StartChar: Imacron
Encoding: 298 298 62
Width: 367
VWidth: 999
Flags: HW
HStem: -2 34<25.6167 94.4056 273.594 342.383> 613 34<25.6167 94.4056 273.594 342.383> 755 50<26.1816 336.647>
VStem: 24 315<755.682 804.598> 114 140<47 598>
LayerCount: 2
Fore
SplineSet
313 755 m 2
 39 755 l 2
 28 755 24 764 24 773 c 0
 24 785 36 805 49 805 c 2
 325 805 l 2
 335 805 339 796 339 788 c 0
 339 775 327 755 313 755 c 2
114 523 m 2
 114 606 86 610 31 613 c 1
 21 619 21 641 31 647 c 1
 71 646 145 645 185 645 c 0
 225 645 297 646 337 647 c 1
 347 641 347 619 337 613 c 1
 282 610 254 606 254 523 c 2
 254 122 l 2
 254 39 282 35 337 32 c 1
 347 26 347 4 337 -2 c 1
 297 -1 225 0 185 0 c 0
 145 0 71 -1 31 -2 c 1
 21 4 21 26 31 32 c 1
 86 35 114 39 114 122 c 2
 114 523 l 2
EndSplineSet
Position2: "'cpsp' Versalabstaende 1" dx=2 dy=0 dh=5 dv=0
EndChar

StartChar: imacron
Encoding: 299 299 63
Width: 322
VWidth: 999
Flags: HW
HStem: -2 34<26.77 89.8255 244.175 307.23> 382 34<35.6452 91.2285> 543 50<16.0634 295.483>
VStem: 14.1 283.5<543.682 592.598> 102 130<41.4929 373.871>
LayerCount: 2
Fore
SplineSet
274.2 543 m 2
 27.6 543 l 2
 17.7 543 14.1 552 14.1 561 c 0
 14.1 573 24.9 593 36.6 593 c 2
 285 593 l 2
 294 593 297.6 584 297.6 576 c 0
 297.6 563 286.8 543 274.2 543 c 2
232 122 m 2
 232 39 243 36 304 32 c 1
 310 26 310 4 304 -2 c 1
 261 -1 220 0 167 0 c 0
 114 0 72 -1 30 -2 c 1
 24 4 24 26 30 32 c 1
 91 37 102 39 102 122 c 2
 102 314 l 2
 102 371 91.5 376.9 37 382 c 1
 35 388 33 410 35 416 c 1
 104 425 184.5 433 213 444 c 1
 227 444 236 438 236 427 c 2
 236 427 232 371 232 321.3 c 2
 232 122 l 2
EndSplineSet
EndChar

StartChar: Ibreve
Encoding: 300 300 64
Width: 367
VWidth: 999
Flags: HW
HStem: -2 34<25.6167 94.4056 273.594 342.383> 613 34<25.6167 94.4056 273.594 342.383> 705 74<108.883 253.873>
VStem: 47 28<808.109 830.75> 114 140<47 598> 291 27<810.51 830.778>
LayerCount: 2
Fore
SplineSet
318 830 m 1
 312 759 249 705 183 705 c 0
 110 705 52 760 47 830 c 1
 75 833 l 1
 83 794 130 779 183 779 c 0
 232 779 284 794 291 833 c 1
 318 830 l 1
114 523 m 2
 114 606 86 610 31 613 c 1
 21 619 21 641 31 647 c 1
 71 646 145 645 185 645 c 0
 225 645 297 646 337 647 c 1
 347 641 347 619 337 613 c 1
 282 610 254 606 254 523 c 2
 254 122 l 2
 254 39 282 35 337 32 c 1
 347 26 347 4 337 -2 c 1
 297 -1 225 0 185 0 c 0
 145 0 71 -1 31 -2 c 1
 21 4 21 26 31 32 c 1
 86 35 114 39 114 122 c 2
 114 523 l 2
EndSplineSet
Position2: "'cpsp' Versalabstaende 1" dx=2 dy=0 dh=5 dv=0
EndChar

StartChar: ibreve
Encoding: 301 301 65
Width: 322
VWidth: 999
Flags: HW
HStem: -2 34<26.77 89.8255 244.175 307.23> 382 34<35.6452 91.2285> 514 74<84.5191 213.72>
VStem: 24.2 29.7<621.43 659.121> 102 130<41.4929 373.871> 247.4 28.8<624.913 659.188>
LayerCount: 2
Fore
SplineSet
53.9 667 m 1
 55.7 613 94.4 588 151.1 588 c 0
 193.4 588 244.7 603 247.4 667 c 1
 276.2 657 l 1
 267.2 552 197 514 151.1 514 c 0
 78.2 514 30.5 576 24.2 657 c 1
 53.9 667 l 1
232 122 m 2
 232 39 243 36 304 32 c 1
 310 26 310 4 304 -2 c 1
 261 -1 220 0 167 0 c 0
 114 0 72 -1 30 -2 c 1
 24 4 24 26 30 32 c 1
 91 37 102 39 102 122 c 2
 102 314 l 2
 102 371 91.5 376.9 37 382 c 1
 35 388 33 410 35 416 c 1
 104 425 184.5 433 213 444 c 1
 227 444 236 438 236 427 c 2
 236 427 232 371 232 321.3 c 2
 232 122 l 2
EndSplineSet
EndChar

StartChar: Iogonek
Encoding: 302 302 66
Width: 367
VWidth: 999
Flags: HW
HStem: -232 60<158.359 241.312> -2 34<25.6167 94.4056 273.594 342.383> 1 21<233.742 247> 613 34<25.6167 94.4056 273.594 342.383>
VStem: 79 92<-169.449 -74.1839> 114 140<47 598>
LayerCount: 2
Fore
SplineSet
277 -177 m 1
 251 -213 207 -232 168 -232 c 0
 148.7 -232 132.4 -225.4 118 -216 c 0
 95.1 -201 79 -175.9 79 -136 c 0
 79 -87.6 126.4 -30.6 178.4 -0 c 1
 137.3 -0.1 68.9 -1.1 31 -2 c 1
 21 4 21 26 31 32 c 1
 86 35 114 39 114 122 c 2
 114 523 l 2
 114 606 86 610 31 613 c 1
 21 619 21 641 31 647 c 1
 71 646 145 645 185 645 c 0
 225 645 297 646 337 647 c 1
 347 641 347 619 337 613 c 1
 282 610 254 606 254 523 c 2
 254 122 l 2
 254 39 282 35 337 32 c 1
 347 26 347 4 337 -2 c 1
 315.6 -1.5 285 -0.9 255.1 -0.5 c 1
 208.8 -10.7 171 -69.5 171 -130 c 0
 171 -162 188.5 -172 206 -172 c 0
 223 -172 247 -169 262 -154 c 1
 277 -177 l 1
EndSplineSet
Position2: "'cpsp' Versalabstaende 1" dx=2 dy=0 dh=5 dv=0
EndChar

StartChar: iogonek
Encoding: 303 303 67
Width: 322
VWidth: 999
Flags: HW
HStem: -232 60<168.359 251.312> -2 34<26.77 89.8255 244.175 307.23> 1 21<243.742 257> 382 34<35.6452 91.2285> 514 128<113.302 213.126>
VStem: 89 92<-169.449 -74.1839> 97 135<532.993 624.845> 102 130<41.4929 373.871>
LayerCount: 2
Fore
SplineSet
277 -177 m 1
 251 -213 207 -232 168 -232 c 0
 148.7 -232 132.4 -225.4 118 -216 c 0
 95.1 -201 79 -175.9 79 -136 c 0
 79 -87.6 126.4 -30.6 178.4 -0 c 1
 174.7 0 170.8 0 167 0 c 0
 114 0 72 -1 30 -2 c 1
 24 4 24 26 30 32 c 1
 91 37 102 39 102 122 c 2
 102 314 l 2
 102 371 91.5 376.9 37 382 c 1
 35 388 33 410 35 416 c 1
 104 425 184.5 433 213 444 c 1
 227 444 236 438 236 427 c 2
 236 427 232 371 232 321.3 c 2
 232 122 l 2
 232 39 243 36 304 32 c 1
 310 26 310 4 304 -2 c 1
 287.2 -1.6 270.6 -1.2 253.6 -0.9 c 1
 208 -12 171 -70.2 171 -130 c 0
 171 -162 188.5 -172 206 -172 c 0
 223 -172 247 -169 262 -154 c 1
 277 -177 l 1
97 580 m 0
 97 610 120 642 167 642 c 0
 209 642 232 606 232 576 c 0
 232 550 206 514 161 514 c 0
 121 514 97 547 97 580 c 0
EndSplineSet
EndChar

StartChar: Idotaccent
Encoding: 304 304 68
Width: 367
VWidth: 999
Flags: HW
HStem: -2 34<25.6167 94.4056 273.594 342.383> 613 34<25.6167 94.4056 273.594 342.383> 705 128<133.302 233.126>
VStem: 114 140<47 598> 117 135<723.993 815.845>
LayerCount: 2
Fore
SplineSet
121 771 m 0
 121 805 149 833 183 833 c 0
 217 833 245 805 245 771 c 0
 245 737 217 709 183 709 c 0
 149 709 121 737 121 771 c 0
114 523 m 2
 114 606 86 610 31 613 c 1
 21 619 21 641 31 647 c 1
 71 646 145 645 185 645 c 0
 225 645 297 646 337 647 c 1
 347 641 347 619 337 613 c 1
 282 610 254 606 254 523 c 2
 254 122 l 2
 254 39 282 35 337 32 c 1
 347 26 347 4 337 -2 c 1
 297 -1 225 0 185 0 c 0
 145 0 71 -1 31 -2 c 1
 21 4 21 26 31 32 c 1
 86 35 114 39 114 122 c 2
 114 523 l 2
EndSplineSet
Substitution2: "LinLibertine-'c2sc' Versale nach Kapitaelchen 1" idotaccent.sc
Position2: "'cpsp' Versalabstaende 1" dx=2 dy=0 dh=5 dv=0
EndChar

StartChar: afii10057
Encoding: 1032 1032 69
Width: 373
VWidth: 999
Flags: HW
HStem: -10 59<13.5 122.696> 613 34<40.77 123.807 295.92 361.23>
VStem: 141 140<154.751 599.635>
AnchorPoint: "top_akzent" 237 1027 basechar 0
LayerCount: 2
Fore
SplineSet
281 522 m 2
 281 280 l 2
 281 137 222.9 85.2 179 48 c 0
 137.9 13.2 87 -10 28 -10 c 0
 -1 -10 -70 14 -70 61 c 0
 -70 90 -30 117 -12 117 c 0
 28 117 33 89 46 72 c 0
 56 59 74 49 92 49 c 0
 135 49 141 78 141 258 c 2
 141 522 l 2
 141 605 124 610 44 613 c 1
 38 619 38 641 44 647 c 1
 94 646 145.3 645 210 645 c 0
 267.7 645 309 646 358 647 c 1
 364 641 364 619 358 613 c 1
 298 610 281 605 281 522 c 2
EndSplineSet
EndChar

StartChar: afii10061
Encoding: 1036 1036 70
Width: 699
VWidth: 999
Flags: HW
HStem: -2 34<25.6167 94.4056 273.594 342.383> 0 33<638.873 689.23> 310 42<245 298.139> 558 104<516.288 611.581> 613 34<25.6167 94.4056 273.594 342.383> 701 132
VStem: 114 140<47 598> 370 202
LayerCount: 2
Fore
SplineSet
114 523 m 2
 114 606 86 610 31 613 c 1
 21 619 21 641 31 647 c 1
 71 646 145 645 185 645 c 0
 225 645 297 646 337 647 c 1
 347 641 347 619 337 613 c 1
 282 610 254 606 254 523 c 2
 254 352 l 1
 340.2 352.5 364.1 368.8 399.6 440.7 c 0
 417.2 476.3 436.5 533 454 563.5 c 0
 482.4 613 528 662 586 662 c 0
 634 662 650 635 650 612 c 0
 650 575 625 535 606 535 c 0
 594 535 581 537 572 547 c 0
 564.4 555.5 551 558 540 558 c 0
 526 558 518 558.5 499 536 c 0
 480.7 514.3 462.9 471.5 449.4 438 c 0
 435.1 402.4 422.8 369.3 394 353 c 1
 394 348 l 1
 415.5 345 437.8 324.3 462.6 296 c 0
 507.8 244.4 546.3 161.1 591 102.1 c 0
 621.6 61.7 657.5 36.5 696 33 c 1
 702 27 702 5 696 -1 c 1
 675 -4 633 -6 613 -6 c 0
 593 -6 557.6 -3.7 538 0 c 0
 475 12 444 55 389 161 c 0
 356.4 223.8 307.4 306 254 309.9 c 1
 254 122 l 2
 254 39 282 35 337 32 c 1
 347 26 347 4 337 -2 c 1
 297 -1 225 0 185 0 c 0
 145 0 71 -1 31 -2 c 1
 21 4 21 26 31 32 c 1
 86 35 114 39 114 122 c 2
 114 523 l 2
507 833 m 1
 531.8 821.4 559.2 798.6 572 778 c 1
 569 766 l 1
 425 708 l 2
 410.5 702.2 399 701 390 701 c 0
 381 701 370 708 370 716 c 0
 370 723 370.3 728.7 380 737 c 0
 401 755 467 805 507 833 c 1
EndSplineSet
LCarets2: 1 0 
EndChar

StartChar: uni040D
Encoding: 1037 1037 71
Width: 783
VWidth: 999
Flags: HW
HStem: -1 34<20 99.155 235.539 315 468 548.095 683.276 765> 571 120 613 32<20 99.4609 236.442 315 468 547.537 685.451 764>
VStem: 106 123<38.5094 78 146 607.764> 253 212 555 122<38.2361 493 561 607.252>
DStem2: 229 146 229 78 0.617738 0.786384<0 474.258>
LayerCount: 2
Fore
SplineSet
677 569 m 2
 677 76 l 2
 677 45 692 33 732 33 c 2
 758 33 l 2
 763 33 767 30 767 24 c 2
 767 1 l 1
 765 -1 l 1
 765 -1 660 1 621 1 c 0
 585 1 468 -1 468 -1 c 1
 466 1 l 1
 466 24 l 2
 466 30 469 33 474 33 c 2
 500 33 l 2
 542 33 555 48 555 76 c 2
 555 493 l 1
 229 78 l 1
 229 77 l 2
 229 46 243 33 283 33 c 2
 310 33 l 2
 313 33 317 30 317 24 c 2
 317 1 l 1
 315 -1 l 1
 315 -1 208 1 169 1 c 0
 134 1 20 -1 20 -1 c 1
 18 1 l 1
 18 24 l 2
 18 30 21 33 25 33 c 2
 52 33 l 2
 93 33 106 49 106 77 c 2
 106 570 l 2
 106 601 92 613 52 613 c 2
 25 613 l 2
 21 613 18 616 18 621 c 2
 18 645 l 1
 20 646 l 1
 20 646 127 644 167 644 c 0
 202 644 315 646 315 646 c 1
 317 645 l 1
 317 621 l 2
 317 616 314 613 310 613 c 2
 283 613 l 2
 242 613 229 598 229 570 c 2
 229 146 l 1
 555 561 l 1
 555 569 l 2
 555 600 540 613 500 613 c 2
 474 613 l 2
 470 613 466 616 466 621 c 2
 466 645 l 1
 468 646 l 1
 468 646 578 644 617 644 c 0
 653 644 764 647 764 647 c 1
 766 645 l 1
 766 622 l 2
 766 616 763 613 758 613 c 2
 732 613 l 2
 691 613 677 597 677 569 c 2
317 830 m 1
 292 818 265 796 252 775 c 1
 255 763 l 1
 399 705 l 2
 413 699 425 698 434 698 c 0
 443 698 454 705 454 713 c 0
 454 720 454 726 444 734 c 0
 423 752 357 802 317 830 c 1
EndSplineSet
LCarets2: 1 0 
EndChar

StartChar: afii10062
Encoding: 1038 1038 72
Width: 621
VWidth: 999
Flags: HW
HStem: -22 62<133 229.447> 618 28<1 51.985 192 235 391 425 520.846 579> 697 31<266.536 357.309>
VStem: 187 70<735.681 802.162> 366 70<734.774 802.125>
DStem2: 170 575 88 559 0.41865 -0.908148<-32.5036 379.947> 283 136 342 161 0.370296 0.928914<-102.293 0 103.423 504.868>
LayerCount: 2
Fore
SplineSet
216 42 m 0
 246 42 265 50 293 115 c 1
 88 559 l 2
 78.8 578.9 59 613 10 613 c 0
 4 613 0 616 0 621 c 2
 0 645 l 1
 1 646 l 1
 1 646 64 645 105 645 c 0
 155 645 277 646 277 646 c 1
 279 645 l 1
 279 621 l 2
 279 616 276 613 272 613 c 2
 234 613 l 2
 201 613 201 602 212 575 c 1
 358 254 l 1
 479 575 l 2
 493 610 487 613 446 613 c 2
 416 613 l 2
 413 613 410 616 410 621 c 2
 410 645 l 1
 412 646 l 1
 412 646 498 645 540 645 c 0
 572 645 620 646 620 646 c 1
 622 645 l 1
 622 621 l 2
 622 615 615 613 611 613 c 0
 565 613 555 606 540 566 c 2
 383 161 l 2
 340 52 285 -22 195 -22 c 0
 135 -22 84 8 84 40 c 0
 84 68 97 88 129 88 c 0
 154 88 170 77 179 65 c 1
 187 56 201 42 216 42 c 0
436 774 m 0
 436 722 374 697 311 697 c 0
 245 697 187 721 187 773 c 0
 187 795 199 804 226 804 c 0
 247 804 257 788 257 773 c 0
 257 771 256 766 256 765 c 0
 256 745 279 728 312 728 c 0
 342 728 367 742 367 764 c 0
 367 765 366 772 366 773 c 0
 366 788 375 804 398 804 c 0
 424 804 436 794 436 774 c 0
EndSplineSet
LCarets2: 1 0 
EndChar

StartChar: afii10020
Encoding: 1043 1043 73
Width: 551
VWidth: 999
Flags: HW
HStem: -2 34<11.6167 80.4056 259.594 328.383> 603 42<247.972 424.224> 613 34<11.6167 80.4056>
VStem: 100 140<47 598> 497 43<477.51 528.239>
LayerCount: 2
Fore
SplineSet
335 603 m 2
 275 603 l 2
 254 603 240 584 240 524 c 2
 240 122 l 2
 240 39 268 35 323 32 c 1
 333 26 333 4 323 -2 c 1
 241 -1 211 0 171 0 c 0
 131 0 17 -2 17 -2 c 1
 7 4 7 26 17 32 c 1
 72 35 100 39 100 122 c 2
 100 523 l 2
 100 606 72 610 17 613 c 1
 7 619 7 641 17 647 c 1
 17 647 132 645 171 645 c 2
 394 645 l 2
 423 645 514 647 514 647 c 1
 524 597 534 532 540 480 c 1
 530 475 509 473 497 475 c 1
 477 547 440 603 335 603 c 2
EndSplineSet
EndChar

StartChar: afii10021
Encoding: 1044 1044 74
Width: 696
VWidth: 999
Flags: HW
HStem: 0 44<203.009 462.408> 600 46<287.63 462.754> 611 35<149 219.411 590.322 660>
VStem: 34 43<-141 -76.4499> 464 122<44.8806 598.625> 620 43<-141 -83.4829>
LayerCount: 2
Fore
SplineSet
112 52 m 0
 136 80 156 145 188 301 c 1
 210 415 222 512 222 576 c 0
 222 600 213 611 187 611 c 2
 157 611 l 2
 152 611 149 616 149 620 c 2
 149 637 l 2
 149 641 155 646 162 646 c 2
 655 646 l 2
 658 646 660 642 660 639 c 2
 660 620 l 2
 660 614 656 611 652 611 c 2
 623 611 l 2
 591 611 586 595 586 560 c 2
 586 83 l 2
 586 46 609 33 626 33 c 0
 648 33 656 20 656 8 c 2
 663 -141 l 1
 636 -141 620 -141 620 -141 c 1
 608 -85 567 0 487 0 c 2
 202 0 l 2
 118 0 88 -89 77 -141 c 1
 34 -141 l 1
 41 8 l 2
 41 20 52 33 62 33 c 0
 82 33 95 33 112 52 c 0
426 600 m 2
 324 600 l 2
 297 600 286 586 284 561 c 0
 275.8 459 261.9 361 249 293 c 0
 226.8 176 203 82 203 61 c 0
 203 49 215 44 230 44 c 2
 427 44 l 2
 451 44 464 47 464 83 c 2
 464 561 l 2
 464 591 458 600 426 600 c 2
EndSplineSet
EndChar

StartChar: afii10024
Encoding: 1046 1046 75
Width: 1014
VWidth: 999
Flags: HW
HStem: -2 34<348.617 417.406 596.594 665.383> -1 34<-9.22998 42.4753 971.525 1023.23> 310 42<392.672 440 574 621.328> 558 104<73.4186 169.063 844.938 940.581> 613 34<348.617 417.406 596.594 665.383>
VStem: 437 140<47 598>
LayerCount: 2
Fore
SplineSet
1020 -1 m 1
 999 -4 957 -6 937 -6 c 0
 917 -6 882 -3.9 862 0 c 0
 799.1 12.3 768 55 713 161 c 0
 680.4 223.8 630.8 306.9 577 309.9 c 1
 577 122 l 2
 577 39 605 35 660 32 c 1
 670 26 670 4 660 -2 c 1
 620 -1 548 0 508 0 c 0
 468 0 394 -1 354 -2 c 1
 344 4 344 26 354 32 c 1
 409 35 437 39 437 122 c 2
 437 309.9 l 1
 383.2 306.9 333.6 223.8 301 161 c 0
 246 55 214.9 12.3 152 0 c 0
 132 -3.9 97 -6 77 -6 c 0
 57 -6 15 -4 -6 -1 c 1
 -12 5 -12 27 -6 33 c 1
 32 37 68 62 99 102 c 0
 144 161 182 244 227 296 c 0
 252 324 274 345 296 348 c 1
 296 353 l 1
 267 369 255 402 241 438 c 0
 227.8 471.9 209 514 191 536 c 0
 172 558 164 558 150 558 c 0
 139 558 126 555 118 547 c 0
 109 537 96 535 84 535 c 0
 65 535 40 575 40 612 c 0
 40 635 56 662 104 662 c 0
 162 662 208 614 236 564 c 1
 254 534 272.1 477 290 441 c 0
 325.8 368.9 349.5 352.4 437 352 c 1
 437 523 l 2
 437 606 409 610 354 613 c 1
 344 619 344 641 354 647 c 1
 394 646 468 645 508 645 c 0
 548 645 620 646 660 647 c 1
 670 641 670 619 660 613 c 1
 605 610 577 606 577 523 c 2
 577 352 l 1
 664.5 352.4 688.2 368.9 724 441 c 0
 741.9 477 760 534 778 564 c 1
 806 614 852 662 910 662 c 0
 958 662 974 635 974 612 c 0
 974 575 949 535 930 535 c 0
 918 535 905 537 896 547 c 0
 888 555 875 558 864 558 c 0
 850 558 842 558 823 536 c 0
 805 514 786.2 471.9 773 438 c 0
 759 402 747 369 718 353 c 1
 718 348 l 1
 740 345 762 324 787 296 c 0
 832 244 870 161 915 102 c 0
 946 62 982 37 1020 33 c 1
 1026 27 1026 5 1020 -1 c 1
EndSplineSet
EndChar

StartChar: afii10025
Encoding: 1047 1047 76
Width: 573
VWidth: 999
Flags: HW
HStem: -12 42<166.549 331.064> 335 39<160.004 305.936> 624 38<176.762 323.445>
VStem: 30 104<67.2217 151.592> 66 39<463 553.349> 367 119<450.826 581.599> 395 132<103.835 267.959>
LayerCount: 2
Fore
SplineSet
242 30 m 0
 312 30 395 56 395 176 c 0
 395 227 376 335 259 335 c 2
 176 335 l 2
 165 335 160 342 160 354 c 0
 160 365 165 374 176 374 c 2
 223 374 l 2
 342 374 367 451 367 506 c 0
 367 579 323 624 266 624 c 0
 132 624 105 538 105 463 c 1
 66 463 l 1
 71 646 l 1
 201 646 229 662 270 662 c 0
 389 662 486 618 486 522 c 0
 486 435 388 367 371 360 c 1
 441 340 527 299 527 192 c 0
 527 50 397 -12 259 -12 c 0
 178 -12 107 19 76 43 c 0
 49 64 30 91 30 118 c 0
 30 144 47 165 70 165 c 0
 98 165 124 152 134 120 c 0
 158 48 166 30 242 30 c 0
EndSplineSet
EndChar

StartChar: afii10026
Encoding: 1048 1048 77
Width: 783
VWidth: 999
Flags: HW
HStem: -1 34<20 99.155 235.539 315 468 548.095 683.276 765> 613 32<20 99.4609 236.442 315 468 547.537 685.451 764>
VStem: 106 123<38.5094 78 146 607.764> 555 122<38.2361 493 561 607.252>
DStem2: 229 146 229 78 0.617738 0.786384<0 474.258>
LayerCount: 2
Fore
SplineSet
677 569 m 2
 677 76 l 2
 677 45 692 33 732 33 c 2
 758 33 l 2
 763 33 767 30 767 24 c 2
 767 1 l 1
 765 -1 l 1
 765 -1 660 1 621 1 c 0
 585 1 468 -1 468 -1 c 1
 466 1 l 1
 466 24 l 2
 466 30 469 33 474 33 c 2
 500 33 l 2
 542 33 555 48 555 76 c 2
 555 493 l 1
 229 78 l 1
 229 77 l 2
 229 46 243 33 283 33 c 2
 310 33 l 2
 313 33 317 30 317 24 c 2
 317 1 l 1
 315 -1 l 1
 315 -1 208 1 169 1 c 0
 134 1 20 -1 20 -1 c 1
 18 1 l 1
 18 24 l 2
 18 30 21 33 25 33 c 2
 52 33 l 2
 93 33 106 49 106 77 c 2
 106 570 l 2
 106 601 92 613 52 613 c 2
 25 613 l 2
 21 613 18 616 18 621 c 2
 18 645 l 1
 20 646 l 1
 20 646 127 644 167 644 c 0
 202 644 315 646 315 646 c 1
 317 645 l 1
 317 621 l 2
 317 616 314 613 310 613 c 2
 283 613 l 2
 242 613 229 598 229 570 c 2
 229 146 l 1
 555 561 l 1
 555 569 l 2
 555 600 540 613 500 613 c 2
 474 613 l 2
 470 613 466 616 466 621 c 2
 466 645 l 1
 468 646 l 1
 468 646 578 644 617 644 c 0
 653 644 764 647 764 647 c 1
 766 645 l 1
 766 622 l 2
 766 616 763 613 758 613 c 2
 732 613 l 2
 691 613 677 597 677 569 c 2
EndSplineSet
EndChar

StartChar: afii10027
Encoding: 1049 1049 78
Width: 783
VWidth: 999
Flags: HW
HStem: -2 33<15.625 88.75 208.25 281.375 422.625 495.75 615.25 688.375> 558 20<510.373 513> 614 33<15.625 88.75 208.25 281.375 422.625 495.75 615.25 688.375> 697 31<305.585 396.415>
VStem: 106 85<43.3808 601.619> 191 0 226 69<734.873 803.004> 407 69<736.589 803.004> 513 0 513 85<43.3808 601.619>
DStem2: 208.693 178 222.351 125 0.626329 0.779559<-19.5065 424.152>
LayerCount: 2
Fore
SplineSet
677 569 m 2
 677 76 l 2
 677 45 692 33 732 33 c 2
 758 33 l 2
 763 33 767 30 767 24 c 2
 767 1 l 1
 765 -1 l 1
 765 -1 660 1 621 1 c 0
 585 1 468 -1 468 -1 c 1
 466 1 l 1
 466 24 l 2
 466 30 469 33 474 33 c 2
 500 33 l 2
 542 33 555 48 555 76 c 2
 555 493 l 1
 229 78 l 1
 229 77 l 2
 229 46 243 33 283 33 c 2
 310 33 l 2
 313 33 317 30 317 24 c 2
 317 1 l 1
 315 -1 l 1
 315 -1 208 1 169 1 c 0
 134 1 20 -1 20 -1 c 1
 18 1 l 1
 18 24 l 2
 18 30 21 33 25 33 c 2
 52 33 l 2
 93 33 106 49 106 77 c 2
 106 570 l 2
 106 601 92 613 52 613 c 2
 25 613 l 2
 21 613 18 616 18 621 c 2
 18 645 l 1
 20 646 l 1
 20 646 127 644 167 644 c 0
 202 644 315 646 315 646 c 1
 317 645 l 1
 317 621 l 2
 317 616 314 613 310 613 c 2
 283 613 l 2
 242 613 229 598 229 570 c 2
 229 146 l 1
 555 561 l 1
 555 569 l 2
 555 600 540 613 500 613 c 2
 474 613 l 2
 470 613 466 616 466 621 c 2
 466 645 l 1
 468 646 l 1
 468 646 578 644 617 644 c 0
 653 644 764 647 764 647 c 1
 766 645 l 1
 766 622 l 2
 766 616 763 613 758 613 c 2
 732 613 l 2
 691 613 677 597 677 569 c 2
475 774 m 0
 475 722 413 697 350 697 c 0
 284 697 226 721 226 773 c 0
 226 795 238 804 265 804 c 0
 286 804 296 788 296 773 c 0
 296 771 295 766 295 765 c 0
 295 745 318 728 351 728 c 0
 381 728 406 742 406 764 c 0
 406 765 405 772 405 773 c 0
 405 788 414 804 437 804 c 0
 463 804 475 794 475 774 c 0
EndSplineSet
LCarets2: 1 0 
EndChar

StartChar: afii10033
Encoding: 1055 1055 79
Width: 778
VWidth: 999
Flags: HW
HStem: -1 34<19 98.8165 234.855 311 440 514.816 650.855 731> 600 45<229.654 519.608> 613 32<19 99.2757 653.794 731>
VStem: 106 122<38.748 598.335> 522 122<38.748 597.91>
LayerCount: 2
Fore
SplineSet
114 523 m 2
 114 606 86 610 31 613 c 1
 21 619 21 641 31 647 c 1
 71 646 145 645 185 645 c 0
 247.3 645 326.2 647 388 647 c 0
 451.1 647 531.3 645 595 645 c 0
 635 645 707 646 747 647 c 1
 757 641 757 619 747 613 c 1
 692 610 664 606 664 523 c 2
 664 122 l 2
 664 39 692 35 747 32 c 1
 757 26 757 4 747 -2 c 1
 707 -1 635 0 595 0 c 0
 555 0 481 -1 441 -2 c 1
 431 4 431 26 441 32 c 1
 496 35 524 39 524 122 c 2
 524 523 l 2
 524 606 496 600 441 603 c 1
 337 603 l 1
 282 600 254 606 254 523 c 2
 254 122 l 2
 254 39 282 35 337 32 c 1
 347 26 347 4 337 -2 c 1
 297 -1 225 0 185 0 c 0
 145 0 71 -1 31 -2 c 1
 21 4 21 26 31 32 c 1
 86 35 114 39 114 122 c 2
 114 523 l 2
EndSplineSet
EndChar

StartChar: afii10034
Encoding: 1056 1056 80
Width: 614
VWidth: 999
Flags: HW
HStem: -2 34<24 44 281 306> 279 40<221 346.677> 611 36<24 93.1927> 613 41<126.947 352.681>
VStem: 99 122<44.5532 282 319.949 606.701> 406 127<391.868 561.741>
LayerCount: 2
Fore
SplineSet
346 654 m 0
 421 654 476 642.8 513 621 c 0
 575.1 584.3 590 524.1 590 484 c 0
 590 430.9 572.7 366 523 325 c 0
 482.8 291.9 421.1 277 333 277 c 0
 309 277 312 278 298 280 c 1
 284 289 278 303 278 322 c 1
 292 320 313 319 328 319 c 0
 410 319 439 363 439 467 c 0
 439 589 372 613 314 613 c 0
 261 613 254 592 254 524 c 2
 254 122 l 2
 254 39 282 35 337 32 c 1
 347 26 347 4 337 -2 c 1
 297 -1 225 0 185 0 c 0
 145 0 71 -1 31 -2 c 1
 21 4 21 26 31 32 c 1
 86 35 114 39 114 122 c 2
 114 523 l 2
 114 606 86 610 31 613 c 1
 21 619 21 641 31 647 c 1
 71 647 306 654 346 654 c 0
EndSplineSet
EndChar

StartChar: afii10035
Encoding: 1057 1057 81
Width: 706
VWidth: 999
Flags: HW
HStem: -10 44<290.062 474.801> 437 21<558.5 612> 617 41<295.135 462.38>
VStem: 34 130<195.747 434.804> 574 38<443.526 484.717>
LayerCount: 2
Fore
SplineSet
397 -10 m 0
 300 -10 222 7 158 53 c 0
 77.8 110.7 37 221.1 37 315 c 0
 37 535.2 202 658 398 658 c 0
 521 658 566 618 617 613 c 1
 626 558 634 510 639 458 c 1
 627.7 452 608 449 596 453 c 1
 570 539 525 616 387 616 c 0
 268 616 188 489.4 188 334 c 0
 188 178 280 42 396 42 c 0
 466 42 547 68 618 146 c 1
 629 146 646 134 651 125 c 1
 583 36 494 -10 397 -10 c 0
EndSplineSet
EndChar

StartChar: afii10036
Encoding: 1058 1058 82
Width: 652
VWidth: 999
Flags: HW
HStem: -2 34<151 230.816 366.855 447> 599 46<70.4923 235.855 362.438 526.846>
VStem: 8 39<518.103 570.778> 30 36<645.204 669> 238 122<37.748 595.906> 532 36<647.479 669> 550 40<518.125 570.778>
LayerCount: 2
Fore
SplineSet
405 123 m 2
 405 40 422 35 502 32 c 1
 508 26 508 4 502 -2 c 1
 452 -1 399 0 333 0 c 0
 269 0 217 -1 168 -2 c 1
 162 4 162 26 168 32 c 1
 248 35 265 40 265 123 c 2
 265 506 l 2
 265 567 255 605 218 605 c 2
 169 605 l 2
 103 605 62 579 42 499 c 1
 30 499 13 500 3 504 c 1
 14 552 24 605 28 650 c 0
 28 651 30 653 32 653 c 0
 70 650 188 645 265 645 c 2
 406 645 l 2
 485 645 596 650 630 653 c 0
 631 653 633 651 633 650 c 0
 634 605 639 553 646 507 c 1
 637 503 618 502 607 502 c 1
 590 579 548 605 473 605 c 2
 451 605 l 2
 415 605 405 567 405 503 c 2
 405 123 l 2
EndSplineSet
EndChar

StartChar: afii10037
Encoding: 1059 1059 83
Width: 621
VWidth: 999
Flags: HW
HStem: -22 64<180.643 263.693> 613 32<1 59.1675 206.362 277 412 484.667 556.138 620>
DStem2: 212 575 88 559 0.419188 -0.907899<-30.5778 352.637> 293 115 383 161 0.361446 0.932393<-71.674 0 153.097 525.366>
LayerCount: 2
Fore
SplineSet
216 42 m 0
 246 42 265 50 293 115 c 1
 88 559 l 2
 78.8 578.9 59 613 10 613 c 0
 4 613 0 616 0 621 c 2
 0 645 l 1
 1 646 l 1
 1 646 64 645 105 645 c 0
 155 645 277 646 277 646 c 1
 279 645 l 1
 279 621 l 2
 279 616 276 613 272 613 c 2
 234 613 l 2
 201 613 201 602 212 575 c 1
 358 254 l 1
 479 575 l 2
 493 610 487 613 446 613 c 2
 416 613 l 2
 413 613 410 616 410 621 c 2
 410 645 l 1
 412 646 l 1
 412 646 498 645 540 645 c 0
 572 645 620 646 620 646 c 1
 622 645 l 1
 622 621 l 2
 622 615 615 613 611 613 c 0
 565 613 555 606 540 566 c 2
 383 161 l 2
 340 52 285 -22 195 -22 c 0
 135 -22 84 8 84 40 c 0
 84 68 97 88 129 88 c 0
 154 88 170 77 179 65 c 1
 187 56 201 42 216 42 c 0
EndSplineSet
EndChar

StartChar: afii10039
Encoding: 1061 1061 84
Width: 718
VWidth: 999
Flags: HW
HStem: -2 34<6 77.2637 175.139 221 431 479.696 642.975 703> 613 32<24 81.6763 243.172 295 464 510.913 615.064 682>
DStem2: 253 572 129 549 0.578967 -0.815351<-30.4141 207.826 286.619 564.202> 388 412 565 552 0.640675 0.767812<-16.6551 209.908>
LayerCount: 2
Fore
SplineSet
434 89 m 1
 342 246 l 2
 328.5 269.1 321.7 271.3 312 258 c 0
 269.7 199.7 235 141 199 82 c 1
 184 52 198.7 36 243 33 c 1
 249 27 249 5 243 -1 c 1
 203 0 144 1 121 1 c 0
 98 1 40 0 10 -1 c 1
 4 5 4 27 10 33 c 1
 54.7 37.3 90 45.4 117.8 81 c 2
 282 291 l 2
 298.2 311.7 297.9 316 278 344 c 2
 133.7 547 l 2
 95.9 600.1 77 610 35 613 c 1
 29 619 28 641 34 647 c 1
 64 646 150 645 189 645 c 0
 229 645 296 646 336 647 c 1
 342 641 342 619 336 613 c 1
 280 610 278.7 594.3 301 557 c 2
 377.7 428.7 l 2
 389.1 409.6 395.7 402 406.7 414.7 c 0
 448.2 462.5 480 516 507 564 c 1
 522 594 507.3 610 463 613 c 1
 457 619 457 641 463 647 c 1
 503 646 556 645 579 645 c 0
 602 645 651 646 681 647 c 1
 687 641 687 619 681 613 c 1
 636.3 608.7 605.7 600.8 578.2 565 c 2
 443 388.7 l 2
 426.2 366.7 425.6 359.5 447.7 327 c 2
 602.3 99 l 2
 638.9 45.1 665 36 707 33 c 1
 713 27 714 5 708 -1 c 1
 678 0 605 1 566 1 c 0
 526 1 450 0 410 -1 c 1
 404 5 404 27 410 33 c 1
 466 36 459.2 53.7 434 89 c 1
EndSplineSet
EndChar

StartChar: afii10040
Encoding: 1062 1062 85
Width: 722
VWidth: 487
Flags: HW
HStem: -1 34<20 88.5142> 0 42<215.974 501.971> 613 32<19 88.6542 217.213 286 433 501.091 628.883 697>
VStem: 92 122<43.533 611.651> 504 122<44.0875 611.234> 662 41<-136 -78.8302>
LayerCount: 2
Fore
SplineSet
525 0 m 2
 525 0 306 0 166 0 c 2
 20 -1 l 1
 17 1 l 1
 17 22 l 2
 17 28 21 33 26 33 c 2
 52 33 l 2
 84 33 92 40 92 80 c 2
 92 567 l 2
 92 606 86 613 52 613 c 2
 22 613 l 2
 19 613 17 614 17 618 c 2
 17 645 l 1
 19 646 l 1
 159 645 l 1
 286 646 l 1
 288 645 l 1
 288 618 l 2
 288 615 286 613 283 613 c 2
 253 613 l 2
 221 613 214 607 214 567 c 2
 214 88 l 2
 214 47 222 42 253 42 c 2
 465 42 l 2
 501 42 504 57 504 89 c 2
 504 567 l 2
 504 599 503 613 465 613 c 2
 436 613 l 2
 432 613 430 614 430 618 c 2
 430 645 l 1
 433 646 l 1
 552 645 l 1
 697 646 l 1
 700 645 l 1
 700 623 l 2
 700 620 698 613 694 613 c 2
 665 613 l 1
 628 612 626 601 626 567 c 2
 626 82 l 2
 626 57 643 33 667 33 c 0
 692 33 696 21 697 13 c 2
 703 -136 l 1
 662 -136 l 1
 647 -65 603 0 525 0 c 2
EndSplineSet
EndChar

StartChar: afii10041
Encoding: 1063 1063 86
Width: 687
VWidth: 999
Flags: HW
HStem: -1 34<386 466.5 595.051 666> 248 63<243.549 386.648> 613 33<29 94.6501 221.253 287 396 467.719 594.197 666>
VStem: 97 122<333.393 611.375> 470 122<34.8668 314 344.538 611.828>
LayerCount: 2
Fore
SplineSet
430 33 m 2
 466 33 470 46 470 80 c 2
 470 314 l 1
 397 263 329 248 271 248 c 0
 157 248 97 327 97 426 c 2
 97 572 l 2
 97 606 92 613 53 613 c 2
 36 613 l 2
 31 613 29 615 29 619 c 2
 29 646 l 1
 178 645 l 1
 287 646 l 1
 287 618 l 2
 287 615 285 613 281 613 c 2
 263 613 l 2
 221 613 219 603 219 572 c 2
 219 420 l 2
 219 338 241 311 313 311 c 0
 342 311 406 315 470 357 c 1
 470 571 l 2
 470 605 466 613 430 613 c 2
 400 613 l 2
 397 613 396 614 396 618 c 2
 396 646 l 1
 552 644 l 1
 666 646 l 1
 666 619 l 2
 666 615 664 613 661 613 c 2
 631 613 l 2
 597 613 592 608 592 571 c 2
 592 80 l 2
 592 43 597 33 631 33 c 2
 661 33 l 2
 664 33 666 30 666 27 c 2
 666 -1 l 1
 552 1 l 1
 386 -1 l 1
 386 27 l 2
 386 31 387 33 391 33 c 2
 430 33 l 2
EndSplineSet
EndChar

StartChar: afii10042
Encoding: 1064 1064 87
Width: 1087
VWidth: 487
Flags: HW
HStem: -1 34<34 103.253 984.033 1054> 2 40<230.584 479.921 606.71 856.864> 613 32<19 98.5971 237.067 313 397 474.538 612.451 690 774 851.597 989.451 1068>
VStem: 106 123<43.9395 607.491> 482 122<43.6743 607.252> 859 122<43.3821 607.252>
LayerCount: 2
Fore
SplineSet
981 569 m 2
 981 75 l 2
 981 40 990 33 1021 33 c 2
 1051 33 l 2
 1054 33 1056 31 1056 28 c 2
 1056 1 l 1
 1054 -1 l 1
 939 2 l 1
 221 2 l 1
 34 -1 l 1
 32 1 l 1
 32 28 l 2
 32 31 34 33 37 33 c 2
 67 33 l 2
 101 33 106 41 106 80 c 2
 106 569 l 2
 106 600 91 613 52 613 c 2
 25 613 l 2
 21 613 17 616 17 621 c 2
 17 645 l 1
 19 646 l 1
 19 646 127 645 167 645 c 0
 202 645 313 646 313 646 c 1
 315 645 l 1
 315 621 l 2
 315 616 312 613 307 613 c 2
 283 613 l 2
 242 613 229 597 229 569 c 2
 229 88 l 2
 229 56 229 42 268 42 c 2
 448 42 l 2
 479 42 482 57 482 88 c 2
 482 569 l 2
 482 600 467 613 427 613 c 2
 403 613 l 2
 399 613 395 616 395 621 c 2
 395 645 l 1
 397 646 l 1
 397 646 503 645 542 645 c 0
 578 645 668 646 668 646 c 1
 690 645 l 1
 690 621 l 2
 690 616 688 613 683 613 c 2
 659 613 l 2
 618 613 604 597 604 569 c 2
 604 88 l 2
 604 58 608 42 641 42 c 2
 820 42 l 2
 853 42 859 49 859 88 c 2
 859 569 l 2
 859 600 844 613 805 613 c 2
 781 613 l 2
 776 613 772 616 772 621 c 2
 772 645 l 1
 774 646 l 1
 774 646 880 645 919 645 c 0
 955 645 1068 646 1068 646 c 1
 1070 645 l 1
 1070 621 l 2
 1070 616 1067 613 1062 613 c 2
 1036 613 l 2
 995 613 981 597 981 569 c 2
EndSplineSet
EndChar

StartChar: afii10043
Encoding: 1065 1065 88
Width: 1089
VWidth: 487
Flags: HW
HStem: 0 31<34 103.32> 1 40<231.307 479.648 606.781 856.754> 613 32<19 98.5971 237.067 313 397 474.538 612.451 688 774 851.597 989.451 1068>
VStem: 106 123<43.2559 607.491> 482 122<43.5908 607.252> 859 122<42.9083 607.252> 1014 44<-141 -88.5684>
LayerCount: 2
Fore
SplineSet
229 569 m 2
 229 88 l 2
 229 58 231 41 268 41 c 2
 440 41 l 2
 478 41 482 52 482 88 c 2
 482 569 l 2
 482 600 467 613 427 613 c 2
 403 613 l 2
 399 613 395 616 395 621 c 2
 395 645 l 1
 397 646 l 1
 397 646 509 645 548 645 c 0
 584 645 688 646 688 646 c 1
 690 645 l 1
 690 621 l 2
 690 616 688 613 683 613 c 2
 659 613 l 2
 618 613 604 597 604 569 c 2
 604 88 l 2
 604 52 609 41 652 41 c 2
 820 41 l 2
 855 41 859 52 859 88 c 2
 859 569 l 2
 859 600 844 613 805 613 c 2
 781 613 l 2
 776 613 772 616 772 621 c 2
 772 645 l 1
 774 646 l 1
 774 646 884 645 923 645 c 0
 958 645 1068 646 1068 646 c 1
 1070 645 l 1
 1070 621 l 2
 1070 616 1067 613 1062 613 c 2
 1036 613 l 2
 995 613 981 597 981 569 c 2
 981 85 l 2
 981 46 1006 33 1021 33 c 0
 1039 33 1051 23 1052 6 c 2
 1058 -141 l 1
 1014 -141 l 1
 1007 -97 944 1 858 1 c 2
 188 1 l 1
 34 -1 l 1
 32 0 l 1
 32 26 l 2
 32 30 34 31 37 31 c 2
 67 31 l 2
 100 31 106 35 106 74 c 2
 106 569 l 2
 106 600 91 613 52 613 c 2
 25 613 l 2
 21 613 17 616 17 621 c 2
 17 645 l 1
 19 646 l 1
 19 646 134 645 173 645 c 0
 208 645 313 646 313 646 c 1
 315 645 l 1
 315 621 l 2
 315 616 312 613 307 613 c 2
 283 613 l 2
 242 613 229 597 229 569 c 2
EndSplineSet
EndChar

StartChar: afii10044
Encoding: 1066 1066 89
Width: 780
VWidth: 999
Flags: HW
HStem: -1 35<178 258.408 393.048 541.239> 331 44<387 557.861> 602 44<130.709 261.935> 613 33<394.803 474>
VStem: 26 47<473.255 529.979> 265 122<39.0136 331 375 599.078> 613 131<97.6675 271.008>
LayerCount: 2
Fore
SplineSet
387 331 m 1
 387 84 l 2
 387 51 392 34 447 34 c 0
 599 34 613 121 613 183 c 0
 613 243 603 331 475 331 c 2
 387 331 l 1
324 645 m 2
 360 645 474 646 474 646 c 1
 476 645 l 1
 476 621 l 2
 476 616 473 613 468 613 c 2
 442 613 l 2
 401 613 387 597 387 569 c 2
 387 375 l 1
 448 375 l 2
 693 375 744 272 744 183 c 0
 744 16 566 -1 445 -1 c 0
 409 -1 357 1 328 1 c 0
 292 1 178 -1 178 -1 c 1
 176 1 l 1
 176 24 l 2
 176 30 179 33 184 33 c 2
 210 33 l 2
 251 33 265 49 265 77 c 2
 265 559 l 2
 265 586 254 602 226 602 c 2
 181 602 l 2
 115 602 82 512 73 469 c 1
 26 474 l 1
 35 530 40 584 42 646 c 1
 265 646 l 1
 324 645 l 2
EndSplineSet
EndChar

StartChar: afii10045
Encoding: 1067 1067 90
Width: 908
VWidth: 999
Flags: HW
HStem: -1 34<612 680.724 816.184 884> -1 35<19 99.4082 234.048 379.573> 331 45<228 397.119> 613 32<19 97.5488 235.462 315> 614 34<612 680.724 816.184 884>
VStem: 106 122<39.0136 331 376 607.252> 454 127<93.6435 279.371> 687 122<38.5094 608.491>
LayerCount: 2
Fore
SplineSet
702 524 m 2
 702 607 674 611 619 614 c 1
 609 620 609 642 619 648 c 1
 659 647 733 646 773 646 c 0
 813 646 885 647 925 648 c 1
 935 642 935 620 925 614 c 1
 870 611 842 607 842 524 c 2
 842 123 l 2
 842 40 870 36 925 33 c 1
 935 27 935 5 925 -1 c 1
 885 0 813 1 773 1 c 0
 733 1 659 0 619 -1 c 1
 609 5 609 27 619 33 c 1
 674 36 702 40 702 123 c 2
 702 524 l 2
106 569 m 2
 106 597 92 613 51 613 c 2
 25 613 l 2
 20 613 17 616 17 621 c 2
 17 645 l 1
 19 646 l 1
 19 646 130 645 166 645 c 0
 205 645 315 646 315 646 c 1
 317 645 l 1
 317 621 l 2
 317 616 313 613 309 613 c 2
 283 613 l 2
 243 613 228 600 228 569 c 2
 228 376 l 1
 306 376 l 2
 551 376 581 272 581 183 c 0
 581 16 424 -1 303 -1 c 0
 267 -1 195 1 166 1 c 0
 137 1 19 -1 19 -1 c 1
 17 1 l 1
 17 24 l 2
 17 30 20 33 25 33 c 2
 51 33 l 2
 92 33 106 49 106 77 c 2
 106 569 l 2
228 331 m 1
 228 84 l 2
 228 51 233 34 288 34 c 0
 439 34 454 121 454 183 c 0
 454 243 444 331 315 331 c 2
 228 331 l 1
EndSplineSet
EndChar

StartChar: afii10046
Encoding: 1068 1068 91
Width: 617
VWidth: 999
Flags: HW
HStem: -1 35<19 99.4082 234.048 379.573> 331 45<228 397.119> 613 32<19 97.5488 235.462 315>
VStem: 106 122<39.0136 331 376 607.252> 454 127<93.6435 279.371>
LayerCount: 2
Fore
SplineSet
106 569 m 2
 106 597 92 613 51 613 c 2
 25 613 l 2
 20 613 17 616 17 621 c 2
 17 645 l 1
 19 646 l 1
 19 646 130 645 166 645 c 0
 205 645 315 646 315 646 c 1
 317 645 l 1
 317 621 l 2
 317 616 313 613 309 613 c 2
 283 613 l 2
 243 613 228 600 228 569 c 2
 228 376 l 1
 306 376 l 2
 551 376 581 272 581 183 c 0
 581 16 424 -1 303 -1 c 0
 267 -1 195 1 166 1 c 0
 137 1 19 -1 19 -1 c 1
 17 1 l 1
 17 24 l 2
 17 30 20 33 25 33 c 2
 51 33 l 2
 92 33 106 49 106 77 c 2
 106 569 l 2
228 331 m 1
 228 84 l 2
 228 51 233 34 288 34 c 0
 439 34 454 121 454 183 c 0
 454 243 444 331 315 331 c 2
 228 331 l 1
EndSplineSet
EndChar

StartChar: afii10047
Encoding: 1069 1069 92
Width: 625
VWidth: 999
Flags: HW
HStem: -12 38<199.301 353.574> 273 66<307.887 449.597> 311 59<161.217 283.679> 616 42<190.147 341.059>
VStem: 42 39<457.282 500.885> 54 89<77.2543 155.168> 451 131<196.438 295 341.365 467.623>
LayerCount: 2
Fore
SplineSet
451 295 m 1
 406 273 371 273 360 273 c 0
 298 273 255 311 196 311 c 0
 158 311 142 295 134 295 c 0
 130 295 125 303 125 312 c 0
 125 336 188 370 247 370 c 0
 313 370 342 339 400 339 c 0
 419 339 436 342 451 346 c 1
 442 550 351 616 271 616 c 0
 176 616 106 540 81 454 c 1
 42 458 l 1
 53 511 61 558 63 613 c 1
 121 616 174 658 279 658 c 0
 444 658 582 550 582 333 c 0
 582 113 445 -12 275 -12 c 0
 189 -12 133 19 102 43 c 0
 75 64 54 95 54 122 c 0
 54 148 70 165 88 165 c 0
 117 165 132 152 143 120 c 0
 167.7 48.2 214 26 286 26 c 0
 409 26 449 161 451 295 c 1
EndSplineSet
EndChar

StartChar: afii10048
Encoding: 1070 1070 93
Width: 937
VWidth: 999
Flags: HW
HStem: -12 39<554.854 687.491> -1 34<24 92.7241 228.184 296> 300 49<221 317> 613 32<24 91.5375 229.451 296> 619 39<533.072 673.166>
VStem: 99 122<38.5094 300 349 607.491> 317 126<178.838 300 349 443.243> 771 127<190.805 458.298>
LayerCount: 2
Fore
SplineSet
593 619 m 0
 509 619 443 537 443 327 c 0
 443 135 516 27 624 27 c 0
 727 27 771 131 771 310 c 0
 771 518 718 619 593 619 c 0
221 77 m 2
 221 49 235 33 276 33 c 2
 290 33 l 2
 295 33 298 30 298 24 c 2
 298 1 l 1
 296 -1 l 1
 296 -1 196 1 160 1 c 0
 121 1 24 -1 24 -1 c 1
 22 1 l 1
 22 24 l 2
 22 30 26 33 30 33 c 2
 44 33 l 2
 84 33 99 45 99 77 c 2
 99 569 l 2
 99 601 84 613 44 613 c 2
 30 613 l 2
 26 613 22 616 22 621 c 2
 22 645 l 1
 24 646 l 1
 24 646 121 645 160 645 c 0
 196 645 296 646 296 646 c 1
 298 645 l 1
 298 621 l 2
 298 616 295 613 290 613 c 2
 276 613 l 2
 235 613 221 597 221 569 c 2
 221 349 l 1
 318 349 l 1
 333 526 450 658 605 658 c 0
 772 658 898 527 898 329 c 0
 898 129 784 -12 606 -12 c 0
 448 -12 321 109 317 300 c 1
 221 300 l 1
 221 77 l 2
EndSplineSet
EndChar

StartChar: afii10049
Encoding: 1071 1071 94
Width: 612
VWidth: 999
Flags: HW
HStem: -1 34<11 57.5665 296 376.155 511.524 593> 320 48<298.94 383> 606 40<215.181 381.843> 613 33<510.485 596>
VStem: 69 108<410.473 564.69> 383 122<38.2361 320 368 602.434>
LayerCount: 2
Fore
SplineSet
383 320 m 1
 277 320 283.1 281.9 247 180 c 0
 208 70 179 1 107 0 c 2
 11 -1 l 1
 10 1 l 1
 10 24 l 2
 10 30 13 33 17 33 c 2
 26 33 l 2
 59 33 109 103 162 236 c 0
 178.3 276.9 192 311 218 329 c 1
 150 339 69 385 69 487 c 0
 69 556 113 646 299 646 c 0
 334 646 415 645 447 645 c 0
 479 645 596 646 596 646 c 1
 596 620 l 2
 596 616 594 613 588 613 c 2
 559 613 l 2
 517 613 505 603 505 569 c 2
 505 76 l 2
 505 45 521 33 560 33 c 2
 586 33 l 2
 591 33 595 30 595 24 c 2
 595 1 l 1
 593 -1 l 1
 593 -1 486 1 447 1 c 0
 411 1 296 -1 296 -1 c 1
 294 1 l 1
 294 24 l 2
 294 30 297 33 302 33 c 2
 329 33 l 2
 370 33 383 48 383 76 c 2
 383 320 l 1
383 570 m 2
 383 603 379 606 292 606 c 0
 236 606 177 595 177 502 c 0
 177 396 223 368 306 368 c 2
 383 368 l 1
 383 570 l 2
EndSplineSet
EndChar

StartChar: afii10089
Encoding: 1095 1095 95
Width: 581
VWidth: 999
Flags: HW
HStem: -1 34<310 367.151 483.217 540> 146 40<195.202 332.641> 402 34<18 67.6078 184.253 241 310 366.902 483.294 550>
VStem: 71 110<211.872 400.259> 370 110<34.624 189 212.403 400.488>
LayerCount: 2
Fore
SplineSet
370 354 m 2
 370 393 365 402 330 402 c 2
 314 402 l 2
 311 402 309 403 309 407 c 2
 309 434 l 1
 310 436 l 1
 420 434 l 1
 550 436 l 1
 552 434 l 1
 552 407 l 2
 552 404 550 402 546 402 c 2
 521 402 l 2
 487 402 480 395 480 354 c 2
 480 81 l 2
 480 43 484 33 521 33 c 2
 537 33 l 2
 541 33 542 31 542 28 c 2
 542 1 l 1
 540 -1 l 1
 540 -1 449 1 412 1 c 0
 372 1 310 -1 310 -1 c 1
 308 1 l 1
 308 27 l 2
 308 31 310 33 313 33 c 2
 330 33 l 2
 366 33 370 42 370 81 c 2
 370 189 l 1
 331 160 299 146 239 146 c 0
 141 146 71 191 71 297 c 2
 71 355 l 2
 71 393 65 402 30 402 c 2
 22 402 l 2
 19 402 17 403 17 407 c 2
 17 434 l 1
 18 436 l 1
 121 433 l 1
 241 436 l 1
 242 434 l 1
 242 408 l 2
 242 404 240 402 236 402 c 2
 221 402 l 2
 188 402 181 392 181 360 c 2
 181 293 l 2
 181 215 188 186 250 186 c 0
 299 186 338 198 370 229 c 1
 370 354 l 2
EndSplineSet
EndChar

StartChar: afii10090
Encoding: 1096 1096 96
Width: 923
VWidth: 999
Flags: HW
HStem: -1 34<43 102.064 816.857 890> 0 41<215.46 401.772 517.304 702.1> 402 34<33 100.608 215.968 277 340 400.902 517.294 583 636 701.902 817.932 880>
VStem: 104 109<43.0804 400.422> 404 110<43.0065 400.488> 705 110<43.4492 400.499>
LayerCount: 2
Fore
SplineSet
815 355 m 2
 815 74 l 2
 815 34 822 33 856 33 c 2
 886 33 l 2
 890 33 892 30 892 27 c 2
 892 1 l 1
 890 -1 l 1
 758 0 l 1
 154 0 l 1
 43 -1 l 1
 42 1 l 1
 42 28 l 2
 42 31 43 33 47 33 c 2
 63 33 l 2
 98 33 104 36 104 75 c 2
 104 355 l 2
 104 393 98 402 63 402 c 2
 37 402 l 2
 34 402 32 403 32 407 c 2
 32 434 l 1
 33 436 l 1
 154 433 l 1
 277 436 l 1
 279 434 l 1
 279 408 l 2
 279 404 277 402 273 402 c 2
 254 402 l 2
 220 402 213 396 213 355 c 2
 213 90 l 2
 213 50 219 41 254 41 c 2
 364 41 l 2
 399 41 404 52 404 89 c 2
 404 354 l 2
 404 393 399 402 364 402 c 2
 344 402 l 2
 341 402 339 403 339 407 c 2
 339 434 l 1
 340 436 l 1
 454 434 l 1
 583 436 l 1
 584 434 l 1
 584 407 l 2
 584 404 583 402 579 402 c 2
 555 402 l 2
 521 402 514 395 514 354 c 2
 514 90 l 2
 514 48 526 41 555 41 c 2
 665 41 l 2
 702 41 705 59 705 90 c 2
 705 355 l 2
 705 393 700 402 665 402 c 2
 640 402 l 2
 637 402 635 403 635 407 c 2
 635 434 l 1
 636 436 l 1
 755 433 l 1
 880 436 l 1
 882 434 l 1
 882 408 l 2
 882 404 880 402 876 402 c 2
 855 402 l 2
 822 402 815 396 815 355 c 2
EndSplineSet
EndChar

StartChar: afii10091
Encoding: 1097 1097 97
Width: 917
VWidth: 999
Flags: HW
HStem: -1 34<43 101.812> 0 40<215.46 401.502 517.304 702.1> 402 34<33 100.608 215.968 277 340 400.902 517.294 583 636 701.902 817.932 880>
VStem: 104 109<42.1362 400.422> 404 110<41.8323 400.488> 705 110<42.9362 400.499> 843 43<-128 -68.6074>
LayerCount: 2
Fore
SplineSet
815 355 m 2
 815 79 l 2
 815 54 828 33 851 33 c 0
 865 33 879 26 880 8 c 2
 886 -128 l 1
 843 -128 l 1
 831 -79 804 0 724 0 c 2
 155 0 l 1
 43 -1 l 1
 42 1 l 1
 42 27 l 2
 42 31 43 33 47 33 c 2
 63 33 l 2
 98 33 104 37 104 75 c 2
 104 355 l 2
 104 393 98 402 63 402 c 2
 37 402 l 2
 34 402 32 403 32 407 c 2
 32 434 l 1
 33 436 l 1
 154 433 l 1
 277 436 l 1
 279 434 l 1
 279 408 l 2
 279 404 277 402 273 402 c 2
 254 402 l 2
 220 402 213 396 213 355 c 2
 213 88 l 2
 213 49 219 40 254 40 c 2
 364 40 l 2
 399 40 404 51 404 88 c 2
 404 354 l 2
 404 393 399 402 364 402 c 2
 344 402 l 2
 341 402 339 403 339 407 c 2
 339 434 l 1
 340 436 l 1
 454 434 l 1
 583 436 l 1
 584 434 l 1
 584 407 l 2
 584 404 583 402 579 402 c 2
 555 402 l 2
 521 402 514 395 514 354 c 2
 514 88 l 2
 514 46 526 40 555 40 c 2
 665 41 l 2
 702 41.3 705 56 705 89 c 2
 705 355 l 2
 705 393 700 402 665 402 c 2
 640 402 l 2
 637 402 635 403 635 407 c 2
 635 434 l 1
 636 436 l 1
 755 433 l 1
 880 436 l 1
 882 434 l 1
 882 408 l 2
 882 404 880 402 876 402 c 2
 855 402 l 2
 822 402 815 396 815 355 c 2
EndSplineSet
EndChar

StartChar: afii10092
Encoding: 1098 1098 98
Width: 590
VWidth: 999
Flags: HW
HStem: -1 34<128 190.926 315.978 425.383> 224 37<306 429.16> 393 41<96.8817 193.94> 402 34<308.281 380>
VStem: 26 35<279 343.414> 196 110<42.1465 224 261 392.378> 449 110<64.672 203.325>
LayerCount: 2
Fore
SplineSet
196 77 m 2
 196 347 l 2
 196 384 189 393 167 393 c 0
 85 393 78 357 61 275 c 1
 26 280 l 1
 33 326 37 377 38 435 c 1
 251 434 l 1
 380 436 l 1
 382 434 l 1
 382 406 l 2
 382 402 380 402 377 402 c 2
 346 402 l 2
 310 402 306 394 306 359 c 2
 306 261 l 1
 372 261 l 2
 468 261 559 230 559 136 c 0
 559 52 488 0 376 0 c 2
 249 1 l 2
 213 1 128 -1 128 -1 c 1
 126 1 l 1
 126 24 l 2
 126 30 129 33 134 33 c 2
 153 33 l 2
 187 33 196 48 196 77 c 2
449 126 m 0
 449 179 444 224 373 224 c 2
 306 224 l 1
 306 83 l 2
 306 47 323 36 369 36 c 0
 419 36 449 44 449 126 c 0
EndSplineSet
EndChar

StartChar: afii10093
Encoding: 1099 1099 99
Width: 749
VWidth: 999
Flags: HW
HStem: -1 34<38 100.926 223.805 335.983 475 537.648 658.352 721> 224 37<216 339.16> 401 34<38 100.926 221.352 284> 402 34<475 537.648 658.352 721>
VStem: 106 110<40.9339 224 261 397.844> 359 110<64.672 203.325> 543 110<36.1563 398.688>
LayerCount: 2
Fore
SplineSet
543 358 m 2
 543 386 533 402 500 402 c 2
 481 402 l 2
 476 402 473 405 473 410 c 2
 473 434 l 1
 475 436 l 1
 475 436 560 434 596 434 c 0
 635 434 721 436 721 436 c 1
 723 434 l 1
 723 410 l 2
 723 405 719 402 715 402 c 2
 696 402 l 2
 663 402 653 386 653 358 c 2
 653 77 l 2
 653 48 663 33 696 33 c 2
 715 33 l 2
 719 33 723 30 723 24 c 2
 723 1 l 1
 721 -1 l 1
 721 -1 635 1 596 1 c 0
 560 1 475 -1 475 -1 c 1
 473 1 l 1
 473 24 l 2
 473 30 476 33 481 33 c 2
 500 33 l 2
 533 33 543 48 543 77 c 2
 543 358 l 2
359 126 m 0
 359 179 354 224 283 224 c 2
 216 224 l 1
 216 79 l 2
 216 43 233 36 279 36 c 0
 329 36 359 44 359 126 c 0
106 77 m 2
 106 357 l 2
 106 386 97 401 63 401 c 2
 44 401 l 2
 39 401 36 404 36 410 c 2
 36 433 l 1
 38 435 l 1
 38 435 124 433 159 433 c 0
 198 433 284 435 284 435 c 1
 286 433 l 1
 286 410 l 2
 286 404 282 401 278 401 c 2
 259 401 l 2
 226 401 216 386 216 357 c 2
 216 261 l 1
 282 261 l 2
 378 261 469 230 469 136 c 0
 469 52 398 0 287 0 c 2
 159 1 l 2
 124 1 38 -1 38 -1 c 1
 36 1 l 1
 36 24 l 2
 36 30 39 33 44 33 c 2
 63 33 l 2
 97 33 106 48 106 77 c 2
EndSplineSet
EndChar

StartChar: afii10094
Encoding: 1100 1100 100
Width: 500
VWidth: 999
Flags: HW
HStem: -1 34<38 100.926 223.805 335.983> 224 37<216 339.16> 401 34<38 100.926 221.352 284>
VStem: 106 110<40.9339 224 261 397.844> 359 110<64.672 203.325>
LayerCount: 2
Fore
SplineSet
359 126 m 0
 359 179 354 224 283 224 c 2
 216 224 l 1
 216 79 l 2
 216 43 233 36 279 36 c 0
 329 36 359 44 359 126 c 0
106 77 m 2
 106 357 l 2
 106 386 97 401 63 401 c 2
 44 401 l 2
 39 401 36 404 36 410 c 2
 36 433 l 1
 38 435 l 1
 38 435 124 433 159 433 c 0
 198 433 284 435 284 435 c 1
 286 433 l 1
 286 410 l 2
 286 404 282 401 278 401 c 2
 259 401 l 2
 226 401 216 386 216 357 c 2
 216 261 l 1
 282 261 l 2
 378 261 469 230 469 136 c 0
 469 52 398 0 287 0 c 2
 159 1 l 2
 124 1 38 -1 38 -1 c 1
 36 1 l 1
 36 24 l 2
 36 30 39 33 44 33 c 2
 63 33 l 2
 97 33 106 48 106 77 c 2
EndSplineSet
EndChar

StartChar: afii10095
Encoding: 1101 1101 101
Width: 452
VWidth: 999
Flags: HW
HStem: -12 35<135.21 247.128> 180 49<160.832 296.342> 207 41<92.6331 188.46> 406 36<125.918 245.651>
VStem: 37 77<40.7447 108.21> 40 35<296.2 346.239> 297 111<121.734 199 229.057 318.451>
LayerCount: 2
Fore
SplineSet
297 231 m 1
 295 304 283 406 191 406 c 0
 110 406 89 354 75 293 c 1
 40 297 l 1
 46 341 49 375 51 430 c 1
 121 430 129 442 201 442 c 0
 324 442 408 335 408 225 c 0
 408 68 293 -12 187 -12 c 0
 104 -12 37 32 37 84 c 0
 37 98 53 113 71 113 c 0
 82 113 109 109 114 76 c 0
 120 42 151 23 193 23 c 0
 284 23 296 122 297 199 c 1
 277 189 252 180 228 180 c 0
 184 180 155 207 120 207 c 0
 108 207 98 202 90 202 c 0
 84 202 83 211 83 215 c 0
 83 230 128 248 171 248 c 0
 216 248 233 229 271 229 c 0
 281 229 289 230 297 231 c 1
EndSplineSet
EndChar

StartChar: afii10096
Encoding: 1102 1102 102
Width: 774
VWidth: 999
Flags: HW
HStem: -10 43<491.623 588.559> -1 34<29 91.6475 212.352 275> 402 34<29 91.6475 212.352 275> 403 41<472.16 567.482>
VStem: 97 110<36.1563 398.688> 200 119<196 240> 311.3 115.9<119.406 317.729> 624.8 115<118.762 320.282>
LayerCount: 2
Fore
SplineSet
97 358 m 2
 97 386 87 402 54 402 c 2
 35 402 l 2
 30 402 27 405 27 410 c 2
 27 434 l 1
 29 436 l 1
 29 436 114 434 150 434 c 0
 189 434 275 436 275 436 c 1
 277 434 l 1
 277 410 l 2
 277 405 273 402 269 402 c 2
 250 402 l 2
 217 402 207 386 207 358 c 2
 207 240 l 1
 314.2 240 l 1
 319.8 287.9 337.8 334.5 367.1 370 c 0
 404.6 415.4 465.2 444 544 444 c 0
 685.1 444 774.9 346.8 774.9 216 c 0
 774.9 160.3 755.6 92.3 707.5 47 c 0
 668.4 10.2 610 -10 543.1 -10 c 0
 419.1 -10 318.1 71.6 312.5 196 c 1
 207 196 l 1
 207 77 l 2
 207 48 217 33 250 33 c 2
 269 33 l 2
 273 33 277 30 277 24 c 2
 277 1 l 1
 275 -1 l 1
 275 -1 189 1 150 1 c 0
 114 1 29 -1 29 -1 c 1
 27 1 l 1
 27 24 l 2
 27 30 30 33 35 33 c 2
 54 33 l 2
 87 33 97 48 97 77 c 2
 97 358 l 2
528.8 402 m 0
 465.2 402 445.2 321 445.2 229 c 0
 445.2 155 480.4 32 558.3 32 c 0
 592.5 32 641.9 63.9 641.9 184 c 0
 641.9 321 593.4 402 528.8 402 c 0
EndSplineSet
EndChar

StartChar: afii10097
Encoding: 1103 1103 103
Width: 479
VWidth: 999
Flags: HW
HStem: -1 34<19 64.1167 231 284.833 389.366 450> 195 40<220.82 287> 204 31<163 174> 402 33<171.489 285.05 382.047 448>
VStem: 42 110<251.526 368.984> 287 92<38.896 195 235 399.272>
LayerCount: 2
Fore
SplineSet
287 235 m 1
 287 366 l 2
 287 398 280 402 241 402 c 0
 154 402 152 368 152 321 c 0
 152 271 163 235 219 235 c 2
 287 235 l 1
109 136 m 0
 125 177 146 198 174 204 c 1
 119 204 42 239 42 310 c 0
 42 384 132 435 206 435 c 2
 283 435 l 1
 343 434 l 1
 448 436 l 1
 450 434 l 1
 450 405 l 2
 450 403 449 402 446 402 c 2
 421 402 l 2
 396 402 379 393 379 372 c 2
 379 81 l 2
 379 55 399 33 418 33 c 2
 439 33 l 2
 447 33 450 25 450 24 c 2
 450 -1 l 1
 450 -1 384 1 341 1 c 0
 298 1 231 -1 231 -1 c 1
 231 26 l 2
 231 30 233 33 237 33 c 2
 251 33 l 2
 285 33 287 42 287 81 c 2
 287 195 l 1
 259 195 l 2
 220 195 196 145 175 84 c 1
 162 43 132 0 100 0 c 2
 19 -1 l 1
 16 1 l 1
 16 20 l 2
 16 27 22 28 26 28 c 2
 34 28 l 2
 63 28 95 98 109 136 c 0
EndSplineSet
EndChar

StartChar: uni04AE
Encoding: 1198 1198 104
Width: 541
Flags: HW
HStem: -1 36<154 228.839 358.336 435> 611 36<-9 41.811 186.001 236 379 429.999 514.645 584>
VStem: 232 123<36.304 280>
DStem2: 313 377 235 280 0.502568 -0.864537<-258.021 0> 313 377 353 292 0.468767 0.883322<0 253.301>
LayerCount: 2
Fore
SplineSet
232 75 m 2
 232 282 l 1
 235 280 l 1
 179 376 123 473 67 569 c 0
 54 592 47 604 42 607 c 0
 38 609 32 611 25 611 c 2
 10 611 l 1
 1 612 -19 615 -19 622 c 2
 -19 638 l 1
 -9 647 l 1
 -9 647 96 645 109 645 c 0
 115 645 236 647 236 647 c 1
 246 638 l 1
 246 623 l 2
 246 617 237 611 218 611 c 2
 189 611 l 2
 187 611 186 608 186 602 c 0
 186 594 189 585 195 575 c 0
 240 500 268 454 313 377 c 1
 350 443 386 509 421 575 c 0
 427 586 430 595 430 602 c 0
 430 609 429 611 426 611 c 2
 396 611 l 1
 374 613 370 618 370 622 c 2
 370 638 l 1
 379 647 l 1
 379 647 471 645 484 645 c 0
 492 645 584 647 584 647 c 1
 593 638 l 1
 593 623 l 2
 593 614 582 611 562 611 c 2
 541 611 l 2
 526 611 517 600 500 569 c 2
 353 292 l 1
 355 293 l 1
 355 75 l 2
 355 47 365 35 388 35 c 2
 414 35 l 2
 430 35 444 31 444 23 c 2
 444 8 l 1
 435 -1 l 1
 435 -1 334 1 296 1 c 0
 261 1 154 -1 154 -1 c 1
 145 8 l 1
 145 23 l 2
 145 31 156 35 174 35 c 2
 200 35 l 2
 224 35 232 50 232 75 c 2
EndSplineSet
EndChar

StartChar: uni04C0
Encoding: 1216 1216 105
Width: 317
VWidth: 999
Flags: HW
HStem: -2 34<36 104.724 240.184 308> 613 34<36 104.724 240.184 308>
VStem: 111 122<37.5094 607.491>
LayerCount: 2
Fore
SplineSet
126 523 m 2
 126 606 98 610 43 613 c 1
 33 619 33 641 43 647 c 1
 83 646 157 645 197 645 c 0
 237 645 309 646 349 647 c 1
 359 641 359 619 349 613 c 1
 294 610 266 606 266 523 c 2
 266 122 l 2
 266 39 294 35 349 32 c 1
 359 26 359 4 349 -2 c 1
 309 -1 237 0 197 0 c 0
 157 0 83 -1 43 -2 c 1
 33 4 33 26 43 32 c 1
 98 35 126 39 126 122 c 2
 126 523 l 2
EndSplineSet
EndChar

StartChar: uni04D0
Encoding: 1232 1232 106
Width: 740
VWidth: 999
Flags: HW
HStem: -1 34<10 60.0229 142.897 211 414 482.841 622.594 692> 241 47<234.168 403> 638 20<348.5 364.5> 698 31<313.536 404.309>
VStem: 234 70<736.681 803.162> 413 70<735.774 803.125>
DStem2: 89 91 148 79 0.384126 0.923281<-23.1403 196.063 246.684 479.281> 399 627 320 514 0.352654 -0.935754<77.8806 318.631 368.607 561.264>
LayerCount: 2
Fore
SplineSet
94 547 m 1
 124 612 250 675 393 675 c 0
 447 675 502 661 559 643 c 0
 622 623.1 686 610 737 610 c 0
 803 610 908 627 959 677 c 1
 988 671 l 1
 915 564 764 551 708 551 c 0
 654 551 596.1 566.3 540 584 c 0
 512.2 592.8 482.5 600.6 452.6 606.3 c 1
 640 86 l 2
 658.3 35.1 691.2 35.5 730 32 c 1
 736 26 736 4 730 -2 c 1
 693 -1 637 0 596 0 c 0
 557 0 462 -1 425 -2 c 1
 419 4 419 26 425 32 c 1
 472.6 35.4 513 31 499 72 c 2
 443 235 l 1
 253 235 l 2
 229 235 223 231 218 218 c 2
 165 79 l 2
 149.3 37.9 196.4 34.6 234 32 c 1
 240 26 240 4 234 -2 c 1
 197 -1 142 0 101 0 c 0
 62 0 44 -1 7 -2 c 1
 1 4 1 26 7 32 c 1
 50.5 35 80.8 40.1 107 102 c 2
 323.8 614 l 1
 327.9 614 332.4 614.4 337.1 615.3 c 1
 260 610.8 173.3 583.1 124 543 c 1
 94 547 l 1
273 283 m 2
 425 283 l 1
 343.1 520 l 1
 336.2 520 l 1
 247.8 296.3 l 2
 244 286 251 283 273 283 c 2
EndSplineSet
LCarets2: 1 0 
EndChar

StartChar: uni04D1
Encoding: 1233 1233 107
Width: 505
VWidth: 999
Flags: HW
HStem: -10 55<110.871 229.853 351 447.215> 406 38<148.426 256.61> 489 31<188.971 263.548>
VStem: 36 105<56.7004 159.155> 48 93<295.994 379.736> 105 73<526.632 605.612> 274 73<526.548 606.547> 282 108<69.6589 219 257 374.929>
DStem2: 210 236 225 202 0.96 0.28<-70.2096 64.36>
LayerCount: 2
Fore
SplineSet
438 687 m 0
 588 687 722 627 806 505 c 1
 789 487 l 1
 728 554 630 629 438 629 c 0
 242 629 149 549 87 487 c 1
 70 505 l 1
 164 627 302 687 438 687 c 0
290.2 48.5 m 1
 284 48 l 1
 251 22 193 -10 164 -10 c 0
 77 -10 39 26 39 95 c 0
 39 174 112.6 203 218 236 c 2
 285 257 l 1
 285 384 245 402 203 402 c 0
 165 402 154 385.2 154 375 c 0
 154 358 160 344 160 332 c 0
 160 310 130.1 290 98 290 c 0
 62 290 51 310 51 336 c 0
 51 396 164 444 237 444 c 0
 319 444 413 415 413 271 c 1
 411 127 l 2
 411 78 421 60 443 60 c 0
 462 60 472 64 485 74 c 1
 497 64 503 58 503 46 c 1
 466 11 423.3 -10 368 -10 c 0
 324 -10 297 8 290.2 48.5 c 1
285 218 m 1
 233 201 l 2
 162.3 177.9 159 147.1 159 110 c 0
 159 79 174 50 217 50 c 0
 235 50 260 66 285 86 c 1
 285 218 l 1
EndSplineSet
LCarets2: 1 0 
EndChar

StartChar: uni04D2
Encoding: 1234 1234 108
Width: 740
VWidth: 999
Flags: HW
HStem: -1 34<10 60.0229 142.897 211 414 482.841 622.594 692> 241 47<234.168 403> 638 20<348.5 364.5> 703 107<235.97 322.324 416.676 503.03>
VStem: 225 108<714.388 798.537> 406 108<714.388 798.537>
DStem2: 89 91 148 79 0.384126 0.923281<-23.1403 196.063 246.684 479.281> 399 627 320 514 0.352654 -0.935754<77.8806 318.631 368.607 561.264>
LayerCount: 2
Fore
SplineSet
417 756 m 0
 417 787 441 811 472 811 c 0
 502 811 527 787 527 756 c 0
 527 726 502 702 472 702 c 0
 441 702 417 726 417 756 c 0
237 756 m 0
 237 787 262 811 292 811 c 0
 323 811 347 787 347 756 c 0
 347 726 323 702 292 702 c 0
 262 702 237 726 237 756 c 0
273 283 m 2
 425 283 l 1
 343.1 520 l 1
 336.2 520 l 1
 247.8 296.3 l 2
 244 286 251 283 273 283 c 2
165 79 m 2
 149.3 37.9 196.4 34.6 234 32 c 1
 240 26 240 4 234 -2 c 1
 197 -1 142 0 101 0 c 0
 62 0 44 -1 7 -2 c 1
 1 4 1 26 7 32 c 1
 50.5 35 80.8 40.1 107 102 c 2
 323.8 614 l 1
 359 614 419 649 434 658 c 1
 640 86 l 2
 658.3 35.1 691.2 35.5 730 32 c 1
 736 26 736 4 730 -2 c 1
 693 -1 637 0 596 0 c 0
 557 0 462 -1 425 -2 c 1
 419 4 419 26 425 32 c 1
 472.6 35.4 513 31 499 72 c 2
 443 235 l 1
 253 235 l 2
 229 235 223 231 218 218 c 2
 165 79 l 2
EndSplineSet
LCarets2: 1 0 
EndChar

StartChar: uni04D3
Encoding: 1235 1235 109
Width: 505
VWidth: 999
Flags: HW
HStem: -10 55<110.871 229.853 351 447.215> 406 38<148.426 256.61> 518 107<91.9699 178.324 272.676 359.03>
VStem: 36 105<56.7004 159.155> 48 93<295.994 379.736> 81 108<529.388 613.537> 262 108<529.388 613.537> 282 108<69.6589 219 257 374.929>
DStem2: 210 236 225 202 0.96 0.28<-70.2096 64.36>
LayerCount: 2
Fore
SplineSet
273 573 m 0
 273 604 297 628 328 628 c 0
 358 628 383 604 383 573 c 0
 383 543 358 519 328 519 c 0
 297 519 273 543 273 573 c 0
93 573 m 0
 93 604 118 628 148 628 c 0
 179 628 203 604 203 573 c 0
 203 543 179 519 148 519 c 0
 118 519 93 543 93 573 c 0
290.2 48.5 m 1
 284 48 l 1
 251 22 193 -10 164 -10 c 0
 77 -10 39 26 39 95 c 0
 39 174 112.6 203 218 236 c 2
 285 257 l 1
 285 384 245 402 203 402 c 0
 165 402 154 385.2 154 375 c 0
 154 358 160 344 160 332 c 0
 160 310 130.1 290 98 290 c 0
 62 290 51 310 51 336 c 0
 51 396 164 444 237 444 c 0
 319 444 413 415 413 271 c 1
 411 127 l 2
 411 78 421 60 443 60 c 0
 462 60 472 64 485 74 c 1
 497 64 503 58 503 46 c 1
 466 11 423.3 -10 368 -10 c 0
 324 -10 297 8 290.2 48.5 c 1
285 218 m 1
 233 201 l 2
 162.3 177.9 159 147.1 159 110 c 0
 159 79 174 50 217 50 c 0
 235 50 260 66 285 86 c 1
 285 218 l 1
EndSplineSet
LCarets2: 1 0 
EndChar

StartChar: uni04D4
Encoding: 1236 1236 110
Width: 956
VWidth: 999
Flags: HW
HStem: -1 34<4 81.5469 161.374 218 362 442.155> 1 46<571.232 790.184> 266 39<291 449> 324 42<571 708.75> 428 20<730 762> 601 45<571.232 768.482> 613 33<296 356.281>
VStem: 449 122<47.4756 266 305 324 366 558.22> 719 36<252.814 316.565 373.435 437.232> 821 40<483.425 532.807> 846 44<116.362 171.591>
DStem2: 95 70 165 68 0.465821 0.884879<8.60003 255.421 299.247 590.236>
LayerCount: 2
Fore
SplineSet
112 102 m 2
 364 562 l 2
 383.8 598.1 358 613 312 613 c 0
 306 613 304 616 304 620 c 2
 304 645 l 1
 306 647 l 1
 513 645 l 1
 811 645 l 2
 835 645 843 646 860 649 c 0
 863 649 864 648 864 646 c 0
 866 638 871 542 876 501 c 1
 866.2 496.3 845.4 494.2 833 496 c 1
 811 565 790 603 715 603 c 2
 630 603 l 2
 606 603 589 578 589 554 c 2
 589 367 l 1
 670 367 l 2
 737 367 758 374 761 429 c 1
 767 435 798 435 804 429 c 1
 803 399 802 377 802 343 c 0
 802 309 803 290 804 255 c 1
 798 249 767 249 761 255 c 1
 758 300 739 317 670 317 c 2
 589 317 l 1
 589 90 l 2
 589 63 608 42 630 42 c 2
 731 42 l 2
 807 42 852 98 872 170 c 1
 885.1 173.2 906.6 171 917 165 c 1
 909 114 904 48 890 -2 c 1
 890 -2 800 0 752 0 c 2
 516 0 l 1
 516 0 411 -1 362 -2 c 1
 356 4 356 26 362 32 c 1
 432 35 449 39 449 122 c 2
 449 266 l 1
 271 266 l 1
 170 79 l 2
 148.9 40 201.4 34.6 239 32 c 1
 245 26 245 4 239 -2 c 1
 202 -1 147 0 106 0 c 0
 67 0 49 -1 12 -2 c 1
 6 4 6 26 12 32 c 1
 55.5 35 80.2 44 112 102 c 2
297 316 m 1
 449 316 l 1
 449 545 l 2
 449 571 437.1 578 420 546 c 2
 297 316 l 1
EndSplineSet
EndChar

StartChar: uni04D5
Encoding: 1237 1237 111
Width: 715
VWidth: 999
Flags: HW
HStem: -12 50<170.4 265.865 476.5 578.383> 209 44<222.016 301> 399 45<457.148 555.404> 407 37<161.99 261.109>
VStem: 47 104<57.8405 157.134> 58 97<311.521 385.652> 301 105<117.991 209 260 335.245> 574 104<295.592 383.979>
LayerCount: 2
Fore
SplineSet
502 402 m 0
 450 402 427 334 418 255 c 1
 488.2 259.6 559.2 260.4 579 283 c 1
 579 344 558 402 502 402 c 0
284 93 m 0
 290.9 107.2 290 162 291 209 c 1
 196 197 151 156 151 111 c 0
 151 97.6 152.4 82.4 156 72 c 0
 163.3 50.6 178.1 40 197 40 c 0
 221.1 40 264 52 284 93 c 0
524 71 m 0
 562 71 628 87 669 129 c 1
 679 129 684 111 684 98 c 1
 634 25 576 -10 507 -10 c 0
 458.5 -10 412.7 -0.9 386 18 c 0
 366.6 31.7 348 43 337 67 c 1
 293 12 209.5 -10 182 -10 c 0
 141.5 -10 110 -6 84 11.7 c 0
 57.6 29.7 37 62.6 37 99 c 0
 37 182.1 124 234 291 248 c 1
 291 353 265 402 218 402 c 0
 181 402 155 393 155 371 c 0
 155 351 162 340 162 328 c 0
 162 314 150 287 105 287 c 0
 70 287 53 313 53 339 c 0
 53 399 148 444 220 444 c 0
 273 444 342 428 368 374 c 1
 408 431 456 444 513 444 c 0
 662.3 444 683.9 357 683.9 294.9 c 0
 683.9 273.9 681.3 264.2 680 246 c 1
 639.2 219.3 522.5 219.3 416 217 c 1
 417 116 463 71 524 71 c 0
EndSplineSet
EndChar

StartChar: uni04D6
Encoding: 1238 1238 112
Width: 604
VWidth: 999
Flags: HW
HStem: 0 33<27 94.1445> 0 46<224.232 442.935> 323 42<224 361.625> 427 20<383 415> 600 46<224.232 421.482> 613 33<27 94.1445> 698 31<228.536 319.309>
VStem: 101 123<46.578 323 365 599.422> 149 70<736.681 803.162> 328 70<735.774 803.125> 372 36<251.814 315.565 372.621 436.233> 474 40<482.425 531.807> 499 43<118.211 170.628>
LayerCount: 2
Fore
SplineSet
318 367 m 2
 385 367 406 374 409 429 c 1
 415 435 446 435 452 429 c 1
 451 399 450 377 450 343 c 0
 450 309 451 290 452 255 c 1
 446 249 415 249 409 255 c 1
 406 300 387 317 318 317 c 2
 237 317 l 1
 237 90 l 2
 237 63 256 42 278 42 c 2
 379 42 l 2
 455 42 500 98 520 170 c 1
 533.1 173.2 554.6 171 565 165 c 1
 557 114 552 48 538 -2 c 1
 538 -2 448 0 400 0 c 2
 165 0 l 1
 165 0 59 -1 10 -2 c 1
 4 4 4 26 10 32 c 1
 80 35 97 39 97 122 c 2
 97 522 l 2
 97 545.5 95.6 562.7 92.1 575.4 c 1
 71.9 565.9 53.8 555 39 543 c 1
 9 547 l 1
 18.5 567.6 37.7 588.1 64.1 606.4 c 1
 51.2 610.8 33.6 612 10 613 c 1
 4 619 4 641 10 647 c 1
 45 646.3 106.4 645.6 140.1 645.2 c 1
 188.8 663.5 246.9 675 308 675 c 0
 359.9 675 412.8 662.1 467.5 645.1 c 1
 485.2 645.3 493.2 646.4 508 649 c 0
 511 649 512 648 512 646 c 0
 512.4 644.4 513 639.2 513.6 631.5 c 1
 563.3 618.2 611.7 610 652 610 c 0
 718 610 823 627 874 677 c 1
 903 671 l 1
 830 564 679 551 623 551 c 0
 589.2 551 553.8 557 518.3 565.8 c 1
 520.1 541.5 522 517 524 501 c 1
 514.2 496.3 493.4 494.2 481 496 c 1
 459 565 438 603 363 603 c 2
 278 603 l 2
 254 603 237 578 237 554 c 2
 237 367 l 1
 318 367 l 2
EndSplineSet
LCarets2: 1 0 
EndChar

StartChar: uni04D7
Encoding: 1239 1239 113
Width: 484
VWidth: 999
Flags: HW
HStem: -10 56<218.732 346.305> 245 40<154 316> 402 42<199.114 288.493> 489 31<201.971 276.548>
VStem: 34 115<124.669 245 285 306.603> 118 73<526.632 605.612> 287 73<526.548 606.547> 316 115<259 363.973>
LayerCount: 2
Fore
SplineSet
451 687 m 0
 601 687 735 627 819 505 c 1
 802 487 l 1
 741 554 643 629 451 629 c 0
 255 629 162 549 100 487 c 1
 83 505 l 1
 177 627 315 687 451 687 c 0
172 275 m 1
 308 275 l 1
 310 277 310 290 310 296 c 0
 310 376 273 402 246 402 c 0
 234.7 402 207.9 391.8 192 368 c 0
 178.4 347.7 173 310 172 275 c 1
426 129 m 1
 436 129 441 111 441 98 c 1
 391 25 323 -10 254 -10 c 0
 182.9 -10 134.6 5.9 97 40 c 0
 54.2 78.8 37 139.5 37 198 c 0
 37 351 152 444 257 444 c 0
 404 444 437 351 437 266 c 0
 437 252 432 235 408 235 c 2
 168 235 l 1
 168 230 167 226 167 219 c 0
 167 121 215 76 293 76 c 0
 331 76 385 87 426 129 c 1
EndSplineSet
LCarets2: 1 0 
EndChar

StartChar: uni04D8
Encoding: 1240 1240 114
Width: 692
VWidth: 999
Flags: HW
HStem: -12 41<271.879 417.179> 213 52<163 523> 617 41<239.681 396.442>
VStem: 534 132<228.384 438.088>
LayerCount: 2
Fore
SplineSet
523 213 m 1
 163 213 l 1
 195 90 266 29 350 29 c 0
 439 29 504 118 523 213 c 1
115 503 m 1
 75 545 l 1
 156 620 216 658 336 658 c 0
 564 658 666 485 666 327 c 0
 666 131 547 -12 343 -12 c 0
 137 -12 52 120 40 265 c 1
 533 265 l 1
 534 274 534 287 534 297 c 0
 534 479 442 617 322 617 c 0
 242 617 176 561 115 503 c 1
EndSplineSet
EndChar

StartChar: afii10846
Encoding: 1241 1241 115
Width: 484
VWidth: 999
Flags: HW
HStem: -11 42<172.507 261.886> 148 40<145 307> 387 56<114.695 242.268>
VStem: 30 115<69.027 174> 312 115<126.397 148 188 308.331>
LayerCount: 2
Fore
SplineSet
303 158 m 1
 167 158 l 1
 165 156 165 143 165 137 c 0
 165 57 202 31 229 31 c 0
 240.3 31 267.1 41.2 283 65 c 0
 296.6 85.3 302 123 303 158 c 1
49 304 m 1
 39 304 34 322 34 335 c 1
 84 408 152 443 221 443 c 0
 292.1 443 340.4 427.1 378 393 c 0
 420.8 354.2 438 293.5 438 235 c 0
 438 82 323 -11 218 -11 c 0
 71 -11 38 82 38 167 c 0
 38 181 43 198 67 198 c 2
 307 198 l 1
 307 203 308 207 308 214 c 0
 308 312 260 357 182 357 c 0
 144 357 90 346 49 304 c 1
EndSplineSet
EndChar

StartChar: uni04DA
Encoding: 1242 1242 116
Width: 692
VWidth: 999
Flags: HW
HStem: -12 41<271.879 417.179> 213 52<163 523> 617 41<239.681 396.442> 695 107<188.676 274.685 376.676 463.03>
VStem: 178 107<705.609 791.324> 366 108<706.388 790.537> 534 132<228.384 438.088>
LayerCount: 2
Fore
SplineSet
296 -117 m 1
 757 -117 l 1
 748 -105 718 -79 704 -44 c 1
 738 -44 l 1
 751 -60 792 -107 842 -125 c 1
 842 -136 l 1
 804 -156 766 -188 738 -219 c 1
 703 -219 l 1
 717 -187 739 -167 757 -147 c 1
 296 -147 l 1
 296 -117 l 1
523 213 m 1
 163 213 l 1
 195 90 266 29 350 29 c 0
 439 29 504 118 523 213 c 1
115 503 m 1
 75 545 l 1
 156 620 216 658 336 658 c 0
 564 658 666 485 666 327 c 0
 666 131 547 -12 343 -12 c 0
 137 -12 52 120 40 265 c 1
 533 265 l 1
 534 274 534 287 534 297 c 0
 534 479 442 617 322 617 c 0
 242 617 176 561 115 503 c 1
EndSplineSet
LCarets2: 1 0 
EndChar

StartChar: uni04DB
Encoding: 1243 1243 117
Width: 484
VWidth: 999
Flags: HW
HStem: -11 42<172.507 261.886> 148 40<145 307> 387 56<114.695 242.268> 518 107<79.9699 166.324 260.676 347.03>
VStem: 30 115<69.027 174> 69 108<529.388 613.537> 250 108<529.388 613.537> 312 115<126.397 148 188 308.331>
LayerCount: 2
Fore
SplineSet
261 571 m 0
 261 602 285 626 316 626 c 0
 346 626 371 602 371 571 c 0
 371 541 346 517 316 517 c 0
 285 517 261 541 261 571 c 0
81 571 m 0
 81 602 106 626 136 626 c 0
 167 626 191 602 191 571 c 0
 191 541 167 517 136 517 c 0
 106 517 81 541 81 571 c 0
303 158 m 1
 167 158 l 1
 165 156 165 143 165 137 c 0
 165 57 202 31 229 31 c 0
 240.3 31 267.1 41.2 283 65 c 0
 296.6 85.3 302 123 303 158 c 1
49 304 m 1
 39 304 34 322 34 335 c 1
 84 408 152 443 221 443 c 0
 292.1 443 340.4 427.1 378 393 c 0
 420.8 354.2 438 293.5 438 235 c 0
 438 82 323 -11 218 -11 c 0
 71 -11 38 82 38 167 c 0
 38 181 43 198 67 198 c 2
 307 198 l 1
 307 203 308 207 308 214 c 0
 308 312 260 357 182 357 c 0
 144 357 90 346 49 304 c 1
EndSplineSet
LCarets2: 1 0 
EndChar

StartChar: uni04E0
Encoding: 1248 1248 118
Width: 632
VWidth: 999
Flags: HW
HStem: -208 48<239.267 370.096> 600 46<156.06 435>
VStem: 57 56<468.375 534.227> 464 132<-45.3333 153.188>
DStem2: 238 243 398 289 0.483142 0.875542<117.578 407.747>
LayerCount: 2
Fore
SplineSet
532 646 m 2
 568 646 582 639 582 629 c 0
 582 622 571 603 562 586 c 2
 398 289 l 1
 534 257 596 161 596 54 c 0
 596 -85 476 -208 285 -208 c 0
 198 -208 35 -172 35 -105 c 0
 35 -80 51 -52 101 -52 c 0
 137 -52 172 -67 187 -88 c 0
 216.2 -128.9 263 -160 303 -160 c 0
 380 -160 464 -71 464 45 c 0
 464 200 365 252 304 252 c 0
 292 252 282 252 238 243 c 1
 435 600 l 1
 198 600 l 1
 142 599 117 509 113 464 c 1
 57 469 l 1
 79 674 l 1
 116 666 115 662 124 659 c 0
 142 652 160 646 168 646 c 2
 532 646 l 2
EndSplineSet
EndChar

StartChar: uni04E1
Encoding: 1249 1249 119
Width: 450
VWidth: 999
Flags: HW
HStem: -227 37<160.355 250.096> 386 47<121 269>
VStem: 316 117<-114.702 49.9858>
DStem2: 110 98 254 156 0.483318 0.875445<120.374 328.976>
LayerCount: 2
Fore
SplineSet
123 440 m 0
 123 435 122 433 121 433 c 2
 348 433 l 2
 382 433 394 428 394 416 c 0
 394 413 389 402 381 386 c 2
 254 156 l 1
 368 138 433 69 433 -30 c 0
 433 -127 350 -227 193 -227 c 0
 90 -227 21 -186 21 -151 c 0
 21 -134 34 -117 71 -117 c 0
 105 -117 127 -124 141 -147 c 0
 153 -168 175 -190 202 -190 c 0
 244 -190 316 -145 316 -31 c 0
 316 51 260 112 194 112 c 0
 179 112 151 107 110 98 c 1
 269 386 l 1
 151 386 l 2
 132 386 113 373 93 287 c 1
 40 293 l 1
 73 454 l 1
 124 446 l 1
 123 444 123 441 123 440 c 0
EndSplineSet
EndChar

StartChar: uni04E6
Encoding: 1254 1254 120
Width: 730
VWidth: 999
Flags: HW
HStem: -10 41<303.11 453.742> 617 41<284.435 429.841> 695 107<209.676 295.685 397.676 484.03>
VStem: 37 131<190.561 438.95> 199 107<705.609 791.324> 387 108<706.388 790.537> 562 132<199.461 449.883>
LayerCount: 2
Fore
SplineSet
317 -117 m 1
 778 -117 l 1
 769 -105 739 -79 725 -44 c 1
 759 -44 l 1
 772 -60 813 -107 863 -125 c 1
 863 -136 l 1
 825 -156 787 -188 759 -219 c 1
 724 -219 l 1
 738 -187 760 -167 778 -147 c 1
 317 -147 l 1
 317 -117 l 1
351 616 m 0
 261.9 616 188 533 188 329 c 0
 188 141 274 32 384 32 c 0
 485 32 543 141.9 543 308 c 0
 543 511 458 616 351 616 c 0
694 329 m 0
 694 230.9 663.2 148.5 608 89 c 0
 550.6 27.1 467 -10 364 -10 c 0
 194 -10 37 111 37 309 c 0
 37 401.4 66.2 484.2 118.1 546 c 0
 176.2 615.3 262.6 658 363 658 c 0
 546 658 694 528 694 329 c 0
EndSplineSet
LCarets2: 1 0 
EndChar

StartChar: uni04E7
Encoding: 1255 1255 121
Width: 557
VWidth: 999
Flags: HW
HStem: -10 43<223.814 325.852> 403 41<203.326 303.665> 519 107<122.97 209.324 303.676 390.03>
VStem: 34 122<119.406 317.729> 112 108<530.388 614.537> 293 108<530.388 614.537> 364 121<118.762 320.282>
LayerCount: 2
Fore
SplineSet
263 402 m 0
 196 402 175 321 175 229 c 0
 175 155 212 32 294 32 c 0
 330 32 382 63.9 382 184 c 0
 382 321 331 402 263 402 c 0
35 207 m 0
 35 266.1 54.8 326.4 92.7 370 c 0
 132.2 415.4 196.1 444 279 444 c 0
 427.5 444 522 346.8 522 216 c 0
 522 160.3 501.6 92.3 451 47 c 0
 409.9 10.2 348.5 -10 278 -10 c 0
 143.6 -10 35 76.4 35 207 c 0
304 572 m 0
 304 603 328 627 359 627 c 0
 389 627 414 603 414 572 c 0
 414 542 389 518 359 518 c 0
 328 518 304 542 304 572 c 0
124 572 m 0
 124 603 149 627 179 627 c 0
 210 627 234 603 234 572 c 0
 234 542 210 518 179 518 c 0
 149 518 124 542 124 572 c 0
EndSplineSet
LCarets2: 1 0 
EndChar

StartChar: uni04E8
Encoding: 1256 1256 122
Width: 730
VWidth: 999
Flags: HW
HStem: -10 41<303.11 453.742> 265 58<379.47 528.369> 311 58<169.37 336.519> 617 41<284.435 429.841>
VStem: 37 131<190.561 438.95> 95 15<267.333 271.216> 562 132<199.461 449.883>
LayerCount: 2
Fore
SplineSet
694 329 m 0
 694 230.9 663.2 148.5 608 89 c 0
 550.6 27.1 467 -10 364 -10 c 0
 194 -10 37 111 37 309 c 0
 37 401.4 66.2 484.2 118.1 546 c 0
 176.2 615.3 262.6 658 363 658 c 0
 546 658 694 528 694 329 c 0
542.1 342.9 m 1
 532.9 523 451.7 616 351 616 c 0
 265.8 616 194.5 540.1 188.4 355 c 1
 216.8 364.6 246 369 267 369 c 0
 366 369 396 323 459 323 c 0
 482.5 323 513.9 329.9 542.1 342.9 c 1
542.9 294.5 m 1
 508 272.5 470.8 265 441 265 c 0
 349 265 325 311 250 311 c 0
 234.2 311 211.5 309.7 188.5 305 c 1
 195.5 131.8 278.8 32 384 32 c 0
 482.2 32 539.8 136 542.9 294.5 c 1
EndSplineSet
EndChar

StartChar: uni04E9
Encoding: 1257 1257 123
Width: 557
VWidth: 999
Flags: HW
HStem: -10 43<223.814 325.852> 176 54<224.827 349.161> 207 45<148.343 245.732> 403 41<203.326 303.665>
VStem: 34 122<119.406 317.729> 364 121<118.762 320.282>
AnchorPoint: "unten_punkt" 246 -107 basechar 0
AnchorPoint: "top_punkt" 244 550 basechar 0
AnchorPoint: "top_akzent" 236 645 basechar 0
LayerCount: 2
Fore
SplineSet
380 219 m 1
 363 205 321 176 285 176 c 0
 246 176 215 207 184 207 c 0
 181.9 207 179.2 206.6 176.1 206.1 c 1
 182.7 132.2 220 32 294 32 c 0
 330 32 382 63.9 382 184 c 0
 382 321 331 402 263 402 c 0
 199.1 402 177 328.4 175.1 241.8 c 1
 193 247.8 213.4 252 230 252 c 0
 270 252 290 230 324 230 c 0
 344 230 363 239 377 247 c 1
 380 219 l 1
35 207 m 0
 35 266.1 54.8 326.4 92.7 370 c 0
 132.2 415.4 196.1 444 279 444 c 0
 427.5 444 522 346.8 522 216 c 0
 522 160.3 501.6 92.3 451 47 c 0
 409.9 10.2 348.5 -10 278 -10 c 0
 143.6 -10 35 76.4 35 207 c 0
EndSplineSet
EndChar

StartChar: uni04EA
Encoding: 1258 1258 124
Width: 730
VWidth: 999
Flags: HW
HStem: -10 41<303.11 453.742> 265 58<379.47 528.369> 311 58<169.37 336.519> 617 41<284.435 429.841> 697 107<226.676 312.685 414.676 501.03>
VStem: 37 131<190.561 438.95> 95 15<267.333 271.216> 216 107<707.609 793.324> 404 108<708.388 792.537> 562 132<199.461 449.883>
LayerCount: 2
Fore
SplineSet
334 -115 m 1
 795 -115 l 1
 786 -103 756 -77 742 -42 c 1
 776 -42 l 1
 789 -58 830 -105 880 -123 c 1
 880 -134 l 1
 842 -154 804 -186 776 -217 c 1
 741 -217 l 1
 755 -185 777 -165 795 -145 c 1
 334 -145 l 1
 334 -115 l 1
694 329 m 0
 694 230.9 663.2 148.5 608 89 c 0
 550.6 27.1 467 -10 364 -10 c 0
 194 -10 37 111 37 309 c 0
 37 401.4 66.2 484.2 118.1 546 c 0
 176.2 615.3 262.6 658 363 658 c 0
 546 658 694 528 694 329 c 0
542.1 342.9 m 1
 532.9 523 451.7 616 351 616 c 0
 265.8 616 194.5 540.1 188.4 355 c 1
 216.8 364.6 246 369 267 369 c 0
 366 369 396 323 459 323 c 0
 482.5 323 513.9 329.9 542.1 342.9 c 1
542.9 294.5 m 1
 508 272.5 470.8 265 441 265 c 0
 349 265 325 311 250 311 c 0
 234.2 311 211.5 309.7 188.5 305 c 1
 195.5 131.8 278.8 32 384 32 c 0
 482.2 32 539.8 136 542.9 294.5 c 1
EndSplineSet
LCarets2: 1 0 
EndChar

StartChar: uni04EB
Encoding: 1259 1259 125
Width: 557
VWidth: 999
Flags: HW
HStem: -10 43<223.814 325.852> 176 54<224.827 349.161> 207 45<148.343 245.732> 403 41<203.326 303.665> 518 107<124.97 211.324 305.676 392.03>
VStem: 34 122<119.406 317.729> 114 108<529.388 613.537> 295 108<529.388 613.537> 364 121<118.762 320.282>
LayerCount: 2
Fore
SplineSet
380 219 m 1
 363 205 321 176 285 176 c 0
 246 176 215 207 184 207 c 0
 181.9 207 179.2 206.6 176.1 206.1 c 1
 182.7 132.2 220 32 294 32 c 0
 330 32 382 63.9 382 184 c 0
 382 321 331 402 263 402 c 0
 199.1 402 177 328.4 175.1 241.8 c 1
 193 247.8 213.4 252 230 252 c 0
 270 252 290 230 324 230 c 0
 344 230 363 239 377 247 c 1
 380 219 l 1
35 207 m 0
 35 266.1 54.8 326.4 92.7 370 c 0
 132.2 415.4 196.1 444 279 444 c 0
 427.5 444 522 346.8 522 216 c 0
 522 160.3 501.6 92.3 451 47 c 0
 409.9 10.2 348.5 -10 278 -10 c 0
 143.6 -10 35 76.4 35 207 c 0
306 571 m 0
 306 602 330 626 361 626 c 0
 391 626 416 602 416 571 c 0
 416 541 391 517 361 517 c 0
 330 517 306 541 306 571 c 0
126 571 m 0
 126 602 151 626 181 626 c 0
 212 626 236 602 236 571 c 0
 236 541 212 517 181 517 c 0
 151 517 126 541 126 571 c 0
EndSplineSet
LCarets2: 1 0 
EndChar

StartChar: uni04EF
Encoding: 1263 1263 126
Width: 558
VWidth: 999
Flags: HW
HStem: -232.2 65.3<98.4399 174.076> 402 34<13 65.4406 195.582 240 340 384.791 462.58 516> 536 48<130.823 429.922>
VStem: 129 303<536.402 583.772>
DStem2: 199 357 92 336 0.37552 -0.926814<-34.5285 268.481> 215 -61 266 -71 0.373718 0.927542<-120.484 52.1765 182.748 398.364>
LayerCount: 2
Fore
SplineSet
242 -168 m 0
 230.8 -187.9 203 -212 182 -222 c 0
 168.2 -228.5 138.2 -232 125 -232 c 0
 111.6 -232 95.4 -225.1 86 -214 c 0
 76.5 -202.7 74 -187.1 74 -174 c 0
 74 -154 96 -128 134 -128 c 0
 148 -128 151 -132 169 -132 c 0
 197 -132 209.1 -113.7 222.3 -83 c 2
 246 -28 l 2
 254 -10 235 8 218 32 c 1
 89 328 l 2
 61.7 390.7 54 398 10 402 c 1
 4 408 4 430 10 436 c 1
 30 435 87 434 121 434 c 0
 157 434 217 435 254 436 c 1
 260 430 260 408 254 402 c 1
 193 397 202.8 379 221 338 c 2
 314 129 l 2
 314.9 127.2 315.3 125.9 315.4 125 c 1
 315.5 125.5 315.7 126.2 316 127 c 2
 419 358 l 2
 435 394 403 399 371 402 c 1
 365 408 365 430 371 436 c 1
 408 435 442 434 477 434 c 0
 505 434 523 435 548 436 c 1
 554 430 554 408 548 402 c 1
 511 399 481 368 467 339 c 0
 414 227 365 119 285 -74 c 0
 273 -104 257.8 -139.9 242 -168 c 0
412 575 m 2
 138 575 l 2
 127 575 123 584 123 593 c 0
 123 605 135 625 148 625 c 2
 424 625 l 2
 434 625 438 616 438 608 c 0
 438 595 426 575 412 575 c 2
EndSplineSet
LCarets2: 1 0 
EndChar

StartChar: uni04F1
Encoding: 1265 1265 127
Width: 558
VWidth: 999
Flags: HW
HStem: -232.2 65.3<98.4399 174.076> 402 34<13 65.4406 195.582 240 340 384.791 462.58 516> 518 107<157.97 244.324 338.676 425.03>
VStem: 147 108<529.388 613.537> 328 108<529.388 613.537>
DStem2: 199 357 92 336 0.37552 -0.926814<-34.5285 268.481> 215 -61 266 -71 0.373718 0.927542<-120.484 52.1765 182.748 398.364>
LayerCount: 2
Fore
SplineSet
242 -168 m 0
 230.8 -187.9 203 -212 182 -222 c 0
 168.2 -228.5 138.2 -232 125 -232 c 0
 111.6 -232 95.4 -225.1 86 -214 c 0
 76.5 -202.7 74 -187.1 74 -174 c 0
 74 -154 96 -128 134 -128 c 0
 148 -128 151 -132 169 -132 c 0
 197 -132 209.1 -113.7 222.3 -83 c 2
 246 -28 l 2
 254 -10 235 8 218 32 c 1
 89 328 l 2
 61.7 390.7 54 398 10 402 c 1
 4 408 4 430 10 436 c 1
 30 435 87 434 121 434 c 0
 157 434 217 435 254 436 c 1
 260 430 260 408 254 402 c 1
 193 397 202.8 379 221 338 c 2
 314 129 l 2
 314.9 127.2 315.3 125.9 315.4 125 c 1
 315.5 125.5 315.7 126.2 316 127 c 2
 419 358 l 2
 435 394 403 399 371 402 c 1
 365 408 365 430 371 436 c 1
 408 435 442 434 477 434 c 0
 505 434 523 435 548 436 c 1
 554 430 554 408 548 402 c 1
 511 399 481 368 467 339 c 0
 414 227 365 119 285 -74 c 0
 273 -104 257.8 -139.9 242 -168 c 0
339 571 m 0
 339 602 363 626 394 626 c 0
 424 626 449 602 449 571 c 0
 449 541 424 517 394 517 c 0
 363 517 339 541 339 571 c 0
159 571 m 0
 159 602 184 626 214 626 c 0
 245 626 269 602 269 571 c 0
 269 541 245 517 214 517 c 0
 184 517 159 541 159 571 c 0
EndSplineSet
LCarets2: 1 0 
EndChar

StartChar: uni04F3
Encoding: 1267 1267 128
Width: 558
VWidth: 999
Flags: HW
HStem: -232.2 65.3<98.4399 174.076> 402 34<13 65.4406 195.582 240 340 384.791 462.58 516>
DStem2: 199 357 92 336 0.37552 -0.926814<-34.5285 268.481> 215 -61 266 -71 0.373718 0.927542<-120.484 52.1765 182.748 398.364>
LayerCount: 2
Fore
SplineSet
242 -168 m 0
 230.8 -187.9 203 -212 182 -222 c 0
 168.2 -228.5 138.2 -232 125 -232 c 0
 111.6 -232 95.4 -225.1 86 -214 c 0
 76.5 -202.7 74 -187.1 74 -174 c 0
 74 -154 96 -128 134 -128 c 0
 148 -128 151 -132 169 -132 c 0
 197 -132 209.1 -113.7 222.3 -83 c 2
 246 -28 l 2
 254 -10 235 8 218 32 c 1
 89 328 l 2
 61.7 390.7 54 398 10 402 c 1
 4 408 4 430 10 436 c 1
 30 435 87 434 121 434 c 0
 157 434 217 435 254 436 c 1
 260 430 260 408 254 402 c 1
 193 397 202.8 379 221 338 c 2
 314 129 l 2
 314.9 127.2 315.3 125.9 315.4 125 c 1
 315.5 125.5 315.7 126.2 316 127 c 2
 419 358 l 2
 435 394 403 399 371 402 c 1
 365 408 365 430 371 436 c 1
 408 435 442 434 477 434 c 0
 505 434 523 435 548 436 c 1
 554 430 554 408 548 402 c 1
 511 399 481 368 467 339 c 0
 414 227 365 119 285 -74 c 0
 273 -104 257.8 -139.9 242 -168 c 0
474.8 608.7 m 0
 474.8 597 469.8 591.9 462 584.5 c 2
 364 491.6 l 2
 358.8 486.6 353.8 484.3 349.1 484.3 c 0
 341.5 484.3 333.7 490.1 333.7 499 c 0
 333.7 503 335.2 507.7 338.2 513 c 2
 406.1 634 l 2
 407.6 636.7 415 652.2 434 652.2 c 0
 458.5 652.2 474.8 632.8 474.8 608.7 c 0
346 621 m 0
 346 616 345 610 341 605 c 2
 249.1 496 l 2
 240.1 485.4 231.7 481 225.1 481 c 0
 217.3 481 212.1 487.3 212.1 496.5 c 0
 212.1 500.5 213.2 505.1 215.3 510 c 2
 274 644 l 2
 278.9 655.1 293 657 304 657 c 0
 326.3 657 346 640.2 346 621 c 0
EndSplineSet
LCarets2: 1 0 
EndChar

StartChar: uni1E00
Encoding: 7680 7680 129
Width: 740
VWidth: 999
Flags: HW
HStem: -215 32<313.025 383.277> -80 31<313.945 382.472> -1 34<10 60.0229 142.897 211 414 482.841 622.594 692> 241 47<234.168 403> 638 20<348.5 364.5>
VStem: 263 36<-170.655 -92.2363> 397 37<-171.322 -91.8533>
DStem2: 89 91 148 79 0.384126 0.923281<-23.1403 196.063 246.684 479.281> 399 627 320 514 0.352654 -0.935754<77.8806 318.631 368.607 561.264>
LayerCount: 2
Fore
SplineSet
348 -83 m 0
 320 -83 301 -104 301 -132 c 0
 301 -158 319 -181 348 -181 c 0
 377 -181 396 -158 396 -132 c 0
 396 -103 375 -83 348 -83 c 0
263 -132 m 0
 263 -86 301 -49 348 -49 c 0
 393 -49 434 -85 434 -132 c 0
 434 -177 395 -215 348 -215 c 0
 302 -215 263 -178 263 -132 c 0
273 283 m 2
 425 283 l 1
 343.1 520 l 1
 336.2 520 l 1
 247.8 296.3 l 2
 244 286 251 283 273 283 c 2
165 79 m 2
 149.3 37.9 196.4 34.6 234 32 c 1
 240 26 240 4 234 -2 c 1
 197 -1 142 0 101 0 c 0
 62 0 44 -1 7 -2 c 1
 1 4 1 26 7 32 c 1
 50.5 35 80.8 40.1 107 102 c 2
 323.8 614 l 1
 359 614 419 649 434 658 c 1
 640 86 l 2
 658.3 35.1 691.2 35.5 730 32 c 1
 736 26 736 4 730 -2 c 1
 693 -1 637 0 596 0 c 0
 557 0 462 -1 425 -2 c 1
 419 4 419 26 425 32 c 1
 472.6 35.4 513 31 499 72 c 2
 443 235 l 1
 253 235 l 2
 229 235 223 231 218 218 c 2
 165 79 l 2
EndSplineSet
LCarets2: 1 0 
EndChar

StartChar: uni1E01
Encoding: 7681 7681 130
Width: 505
VWidth: 999
Flags: HW
HStem: -216 32<201.025 271.277> -81 31<201.945 270.472> -10 55<110.871 229.853 351 447.215> 406 38<148.426 256.61>
VStem: 36 105<56.7004 159.155> 48 93<295.994 379.736> 151 36<-171.655 -93.2363> 282 108<69.6589 219 257 374.929> 285 37<-172.322 -92.8533>
DStem2: 210 236 225 202 0.96 0.28<-70.2096 64.36>
LayerCount: 2
Fore
SplineSet
236 -84 m 0
 208 -84 189 -105 189 -133 c 0
 189 -159 207 -182 236 -182 c 0
 265 -182 284 -159 284 -133 c 0
 284 -104 263 -84 236 -84 c 0
151 -133 m 0
 151 -87 189 -50 236 -50 c 0
 281 -50 322 -86 322 -133 c 0
 322 -178 283 -216 236 -216 c 0
 190 -216 151 -179 151 -133 c 0
290.2 48.5 m 1
 284 48 l 1
 251 22 193 -10 164 -10 c 0
 77 -10 39 26 39 95 c 0
 39 174 112.6 203 218 236 c 2
 285 257 l 1
 285 384 245 402 203 402 c 0
 165 402 154 385.2 154 375 c 0
 154 358 160 344 160 332 c 0
 160 310 130.1 290 98 290 c 0
 62 290 51 310 51 336 c 0
 51 396 164 444 237 444 c 0
 319 444 413 415 413 271 c 1
 411 127 l 2
 411 78 421 60 443 60 c 0
 462 60 472 64 485 74 c 1
 497 64 503 58 503 46 c 1
 466 11 423.3 -10 368 -10 c 0
 324 -10 297 8 290.2 48.5 c 1
285 218 m 1
 233 201 l 2
 162.3 177.9 159 147.1 159 110 c 0
 159 79 174 50 217 50 c 0
 235 50 260 66 285 86 c 1
 285 218 l 1
EndSplineSet
LCarets2: 1 0 
EndChar

StartChar: uni1E02
Encoding: 7682 7682 131
Width: 649
VWidth: 999
Flags: HW
HStem: 0 33<23 96.4211> 0 40<225.077 375.965> 334 42<221 356.422> 605 42<224.143 359.733> 613 34<24 96.3856> 682 120<248.745 341.255>
VStem: 99 122<45.449 334 376 599.529> 235 120<695.745 788.255> 403 120<424.816 565.405> 450 127<106.58 268.4>
LayerCount: 2
Fore
SplineSet
229 681 m 0
 229 711 252 743 299 743 c 0
 341 743 364 707 364 677 c 0
 364 667.2 360.3 656.1 353.3 645.9 c 1
 521.6 635.5 554 555.4 554 491 c 0
 554 440 512 385 458 361 c 1
 458 359 l 1
 564 331 608 274 608 186 c 0
 608 84 542 -2 337 -2 c 0
 277 -2 213 0 173 0 c 0
 133 0 19 -2 19 -2 c 1
 9 4 9 26 19 32 c 1
 74 35 102 39 102 122 c 2
 102 523 l 2
 102 606 74 610 19 613 c 1
 9 619 9 641 19 647 c 1
 19 647 133 645 173 645 c 0
 189.1 645 212.7 645.5 238.5 646 c 1
 232.3 656.5 229 668.8 229 681 c 0
242 562 m 2
 242 376 l 1
 298 376 l 2
 369 376 414 409 414 489 c 0
 414 587 358 605 312 605 c 0
 247 605 242 591 242 562 c 2
242 334 m 1
 242 84 l 2
 242 55 248 40 308 40 c 0
 440 40 461 127 461 187 c 0
 461 273 416 334 313 334 c 2
 242 334 l 1
EndSplineSet
LCarets2: 1 0 
EndChar

StartChar: uni1E03
Encoding: 7683 7683 132
Width: 535
VWidth: 999
Flags: HW
HStem: -10 41<188.988 292.544> 393 51<215.683 304.122> 512 120<230.745 323.255> 638 34<6.01603 44> 678 20<158.465 175.5>
VStem: 74 110<40.573 375.172 402 635.227> 217 120<525.745 618.255> 353 115<135.572 330.968>
LayerCount: 2
Fore
SplineSet
211 511 m 0
 211 541 234 573 281 573 c 0
 323 573 346 537 346 507 c 0
 346 481 320 445 275 445 c 0
 235 445 211 478 211 511 c 0
74 127 m 2
 74 563 l 2
 74 631.6 69 633 6 638 c 1
 1 647 0 660 3 672 c 1
 74 675 154 686 191 698 c 1
 200 698 207 694 207 685 c 2
 207 685 204 648 204 583 c 2
 204 388 l 1
 233 409 286 444 317 444 c 0
 369.7 444 418 434 454 393 c 0
 486.2 356.3 508 299.8 508 243 c 0
 508 99.9 391 -10 280 -10 c 0
 234.4 -10 183 0 144 30 c 1
 136 11 126 0 114 -13 c 1
 103 -13 82 -10 70 -6 c 1
 74 32 74 44 74 127 c 2
204 348 m 1
 204 67 l 1
 223 44 245.7 32 275 32 c 0
 354 32 368 148.4 368 230 c 0
 368 328 331 373 282 373 c 0
 258.5 373 237 369.5 204 348 c 1
EndSplineSet
LCarets2: 1 0 
EndChar

StartChar: uni1E04
Encoding: 7684 7684 133
Width: 649
VWidth: 999
Flags: HW
HStem: -174 120<235.745 328.255> 0 33<23 96.4211> 0 40<225.077 375.965> 334 42<221 356.422> 605 42<224.143 359.733> 613 34<24 96.3856>
VStem: 99 122<45.449 334 376 599.529> 222 120<-160.255 -67.745> 403 120<424.816 565.405> 450 127<106.58 268.4>
LayerCount: 2
Fore
SplineSet
216 -175 m 0
 216 -145 239 -113 286 -113 c 0
 328 -113 351 -149 351 -179 c 0
 351 -205 325 -241 280 -241 c 0
 240 -241 216 -208 216 -175 c 0
242 562 m 2
 242 376 l 1
 298 376 l 2
 369 376 414 409 414 489 c 0
 414 587 358 605 312 605 c 0
 247 605 242 591 242 562 c 2
242 334 m 1
 242 84 l 2
 242 55 248 40 308 40 c 0
 440 40 461 127 461 187 c 0
 461 273 416 334 313 334 c 2
 242 334 l 1
173 645 m 0
 204.7 645 265 647 315 647 c 0
 516.8 647 554 560 554 491 c 0
 554 440 512 385 458 361 c 1
 458 359 l 1
 564 331 608 274 608 186 c 0
 608 84 542 -2 337 -2 c 0
 277 -2 213 0 173 0 c 0
 133 0 19 -2 19 -2 c 1
 9 4 9 26 19 32 c 1
 74 35 102 39 102 122 c 2
 102 523 l 2
 102 606 74 610 19 613 c 1
 9 619 9 641 19 647 c 1
 19 647 133 645 173 645 c 0
EndSplineSet
LCarets2: 1 0 
EndChar

StartChar: uni1E05
Encoding: 7685 7685 134
Width: 535
VWidth: 999
Flags: HW
HStem: -174 120<190.745 283.255> -10 41<188.988 292.544> 393 51<215.683 304.122> 638 34<6.01603 44> 678 20<158.465 175.5>
VStem: 74 110<40.573 375.172 402 635.227> 177 120<-160.255 -67.745> 353 115<135.572 330.968>
LayerCount: 2
Fore
SplineSet
171 -175 m 0
 171 -145 194 -113 241 -113 c 0
 283 -113 306 -149 306 -179 c 0
 306 -205 280 -241 235 -241 c 0
 195 -241 171 -208 171 -175 c 0
74 127 m 2
 74 563 l 2
 74 631.6 69 633 6 638 c 1
 1 647 0 660 3 672 c 1
 74 675 154 686 191 698 c 1
 200 698 207 694 207 685 c 2
 207 685 204 648 204 583 c 2
 204 388 l 1
 233 409 286 444 317 444 c 0
 369.7 444 418 434 454 393 c 0
 486.2 356.3 508 299.8 508 243 c 0
 508 99.9 391 -10 280 -10 c 0
 234.4 -10 183 0 144 30 c 1
 136 11 126 0 114 -13 c 1
 103 -13 82 -10 70 -6 c 1
 74 32 74 44 74 127 c 2
204 348 m 1
 204 67 l 1
 223 44 245.7 32 275 32 c 0
 354 32 368 148.4 368 230 c 0
 368 328 331 373 282 373 c 0
 258.5 373 237 369.5 204 348 c 1
EndSplineSet
LCarets2: 1 0 
EndChar

StartChar: uni1E06
Encoding: 7686 7686 135
Width: 649
VWidth: 999
Flags: HW
HStem: -106 44<137.058 414.638> 0 33<23 96.4211> 0 40<225.077 375.965> 334 42<221 356.422> 605 42<224.143 359.733> 613 34<24 96.3856>
VStem: 99 122<45.449 334 376 599.529> 136 280<-105.948 -62> 403 120<424.816 565.405> 450 127<106.58 268.4>
LayerCount: 2
Fore
SplineSet
393 -106 m 2
 148 -106 l 2
 140 -106 136 -98 136 -91 c 0
 136 -79 146 -62 158 -62 c 2
 403 -62 l 2
 412 -62 416 -69 416 -76 c 0
 416 -88 406 -106 393 -106 c 2
242 562 m 2
 242 376 l 1
 298 376 l 2
 369 376 414 409 414 489 c 0
 414 587 358 605 312 605 c 0
 247 605 242 591 242 562 c 2
242 334 m 1
 242 84 l 2
 242 55 248 40 308 40 c 0
 440 40 461 127 461 187 c 0
 461 273 416 334 313 334 c 2
 242 334 l 1
173 645 m 0
 204.7 645 265 647 315 647 c 0
 516.8 647 554 560 554 491 c 0
 554 440 512 385 458 361 c 1
 458 359 l 1
 564 331 608 274 608 186 c 0
 608 84 542 -2 337 -2 c 0
 277 -2 213 0 173 0 c 0
 133 0 19 -2 19 -2 c 1
 9 4 9 26 19 32 c 1
 74 35 102 39 102 122 c 2
 102 523 l 2
 102 606 74 610 19 613 c 1
 9 619 9 641 19 647 c 1
 19 647 133 645 173 645 c 0
EndSplineSet
LCarets2: 1 0 
EndChar

StartChar: uni1E07
Encoding: 7687 7687 136
Width: 535
VWidth: 999
Flags: HW
HStem: -110 44<107.058 384.638> -10 41<188.988 292.544> 393 51<215.683 304.122> 638 34<6.01603 44> 678 20<158.465 175.5>
VStem: 74 110<40.573 375.172 402 635.227> 106 280<-109.948 -66> 353 115<135.572 330.968>
LayerCount: 2
Fore
SplineSet
363 -110 m 2
 118 -110 l 2
 110 -110 106 -102 106 -95 c 0
 106 -83 116 -66 128 -66 c 2
 373 -66 l 2
 382 -66 386 -73 386 -80 c 0
 386 -92 376 -110 363 -110 c 2
74 127 m 2
 74 563 l 2
 74 631.6 69 633 6 638 c 1
 1 647 0 660 3 672 c 1
 74 675 154 686 191 698 c 1
 200 698 207 694 207 685 c 2
 207 685 204 648 204 583 c 2
 204 388 l 1
 233 409 286 444 317 444 c 0
 369.7 444 418 434 454 393 c 0
 486.2 356.3 508 299.8 508 243 c 0
 508 99.9 391 -10 280 -10 c 0
 234.4 -10 183 0 144 30 c 1
 136 11 126 0 114 -13 c 1
 103 -13 82 -10 70 -6 c 1
 74 32 74 44 74 127 c 2
204 348 m 1
 204 67 l 1
 223 44 245.7 32 275 32 c 0
 354 32 368 148.4 368 230 c 0
 368 328 331 373 282 373 c 0
 258.5 373 237 369.5 204 348 c 1
EndSplineSet
LCarets2: 1 0 
EndChar

StartChar: uni1E08
Encoding: 7688 7688 137
Width: 706
VWidth: 999
Flags: HW
HStem: -185 25<286.659 383.933> -84 32<356.31 393.165> -10 44<290.062 474.801> 437 21<558.5 612> 617 41<295.135 462.38>
VStem: 34 130<195.747 434.804> 400 53<-150.949 -88.278> 574 38<443.526 484.717>
DStem2: 307 -84 356 -55 0.397156 0.917751<46.0754 95.3334>
LayerCount: 2
Fore
SplineSet
301 -105 m 1
 295 -99 l 1
 340.6 -7.8 l 1
 269.1 -1.9 209.1 16.3 158 53 c 0
 77.8 110.7 37 221.1 37 315 c 0
 37 535.2 202 658 398 658 c 0
 521 658 566 618 617 613 c 1
 626 558 634 510 639 458 c 1
 627.7 452 608 449 596 453 c 1
 570 539 525 616 387 616 c 0
 268 616 188 489.4 188 334 c 0
 188 178 280 42 396 42 c 0
 404.8 42 413.9 42.4 423 43.3 c 1
 419.8 50.4 417 56.8 417 63 c 0
 417 74 428 84 438 84 c 0
 448 84 460 78 460 65 c 0
 460 60.1 458.7 54.5 456.8 48.6 c 1
 510.5 60.5 566.8 89.8 618 146 c 1
 629 146 646 134 651 125 c 1
 611.5 73.3 564.9 36.1 513.8 14 c 1
 508.6 4.7 494.7 1 479 1 c 0
 478.4 1 477.8 1 477.2 1 c 0
 469.5 -1.2 461.8 -3.1 453.9 -4.6 c 1
 472.3 -19.9 495 -20.4 495 -47 c 0
 495 -57 485 -63 477 -63 c 0
 451 -63 452 -30 439 -8 c 1
 427.6 -29.1 431.6 -55.6 410.3 -61.7 c 1
 434.8 -74.7 452.9 -95.4 452.9 -129.1 c 0
 452.9 -179.3 400.8 -219 336 -219 c 0
 304 -219 297 -213 272 -202 c 1
 272 -192 272.9 -180.2 282 -176 c 1
 309 -186 320 -190 340 -190 c 0
 370 -190 390 -176 390 -149 c 0
 390 -111.4 337 -107 301 -105 c 1
384.5 -51.2 m 1
 384.2 -49.9 384 -48.4 384 -47 c 0
 384 -22.3 403 -20.7 419.7 -9.2 c 1
 412.2 -9.8 404.6 -10 397 -10 c 0
 389.5 -10 382 -9.9 374.7 -9.7 c 1
 360 -45 l 1
 368.2 -46.6 376.5 -48.7 384.5 -51.2 c 1
EndSplineSet
LCarets2: 1 0 
EndChar

StartChar: uni1E09
Encoding: 7689 7689 138
Width: 466
VWidth: 999
Flags: HW
HStem: -179 25<138.659 235.933> -78 32<208.31 245.165> -10 51<217.015 335.943> 402 42<202.671 287.291>
VStem: 37 114<121.53 309.251> 252 53<-144.949 -82.278> 304 107<294.396 387.973>
DStem2: 159 -78 208 -49 0.397156 0.917751<46.0754 95.3334>
LayerCount: 2
Fore
SplineSet
298 637 m 1
 301 638 309 639 314 639 c 0
 344 639 363 625 371 615 c 1
 381 592 l 1
 261 484 l 2
 247 472 233 468 223 468 c 0
 215 468 207 476 207 482 c 0
 207 488 209 497 215 506 c 2
 298 637 l 1
173 -101 m 1
 167 -95 l 1
 210.7 -7.7 l 1
 163.6 -2.2 129.5 13.3 99 42 c 0
 60.2 78.5 37 136.4 37 201 c 0
 37 349 151 444 269 444 c 0
 378 444 432 394 432 340 c 0
 432 309 409 284 377 284 c 0
 345 284 318 304 315 331 c 0
 312 363 297 402 260 402 c 0
 207 402 172 347 172 236 c 0
 172 128 235 61 301 61 c 0
 338 61 369 71 409 108 c 1
 419 108 430 96 432 87 c 1
 394 32 321 -10 255 -10 c 0
 251.6 -10 248.3 -10 245 -9.9 c 1
 232 -41 l 1
 277.4 -50.1 324.9 -70.5 324.9 -125.1 c 0
 324.9 -175.3 272.8 -215 208 -215 c 0
 176 -215 169 -209 144 -198 c 1
 144 -188 144.9 -176.2 154 -172 c 1
 181 -182 192 -186 212 -186 c 0
 242 -186 262 -172 262 -145 c 0
 262 -107.4 209 -103 173 -101 c 1
EndSplineSet
LCarets2: 1 0 
EndChar

StartChar: uni1E0A
Encoding: 7690 7690 139
Width: 729
VWidth: 999
Flags: HW
HStem: 0 33<24 92.1445> 0 40<222.92 424.983> 606 40<223.637 384.847> 613 33<24 92.1445> 686 120<261.745 354.255>
VStem: 99 122<44.4801 601.64> 248 120<699.745 792.255> 549 132<185.589 421.599>
LayerCount: 2
Fore
SplineSet
242 685 m 0
 242 715 265 747 312 747 c 0
 354 747 377 711 377 681 c 0
 377 669.4 371.9 655.9 362.2 644.4 c 1
 579.7 627.9 686 483.1 686 309 c 0
 686 207.4 653 124 605 82 c 0
 534.3 20.2 434.5 -2 347 -2 c 0
 307 -2 225 0 185 0 c 0
 145 0 31 -2 31 -2 c 1
 21 4 21 26 31 32 c 1
 86 35 114 39 114 122 c 2
 114 523 l 2
 114 606 86 610 31 613 c 1
 21 619 21 641 31 647 c 1
 31 647 145 645 185 645 c 0
 207 645 229.6 645.3 254.3 645.6 c 1
 246.3 657.1 242 671 242 685 c 0
254 119 m 2
 254 52 280 40 350 40 c 0
 426 40 535 102 535 284 c 0
 535 435 513 604 316 604 c 0
 280 604 254 584 254 529 c 2
 254 119 l 2
EndSplineSet
LCarets2: 1 0 
EndChar

StartChar: uni1E0B
Encoding: 7691 7691 140
Width: 563
VWidth: 999
Flags: HW
HStem: -10 50<201.993 305.84> 28 31<462.031 508> 402 42<202.292 301.893> 512 120<146.745 239.255> 638 34<266.016 304> 678 20<418.466 435.5>
VStem: 37 115<105.179 315.346> 133 120<525.745 618.255> 334 110<71.0411 371.307 419 635.227>
LayerCount: 2
Fore
SplineSet
127 511 m 0
 127 541 150 573 197 573 c 0
 239 573 262 537 262 507 c 0
 262 481 236 445 191 445 c 0
 151 445 127 478 127 511 c 0
352.2 48 m 1
 348 48 l 1
 327 34 253 -10 226 -10 c 0
 170.2 -10 145 4 109 32 c 0
 60.4 69.8 39 138.5 39 198 c 0
 39 331 152 444 281 444 c 0
 309.9 444 333.9 439.4 353 432.6 c 1
 353 563 l 2
 353 632 348 633 285 638 c 1
 280 647 279 660 282 672 c 1
 353 675 433 686 470 698 c 1
 479 698 486 694 486 685 c 2
 486 685 483 648 483 583 c 2
 483 125 l 2
 483 56 488 55 551 50 c 1
 556 41 557 28 554 16 c 1
 483 13 403 2 366 -10 c 1
 357 -10 350 -6 350 3 c 2
 350 3 351.3 18.8 352.2 48 c 1
353 96 m 1
 353 98.9 353 101.9 353 105 c 2
 353 366.2 l 1
 328.7 399.3 304.2 402 278 402 c 0
 247.7 402 220.5 386.1 204 359 c 0
 185.1 328 179 282.3 179 229 c 0
 179 112 218 56 268 56 c 0
 280 56 333 79 353 96 c 1
EndSplineSet
LCarets2: 1 0 
EndChar

StartChar: uni1E0C
Encoding: 7692 7692 141
Width: 729
VWidth: 999
Flags: HW
HStem: -174 120<255.745 348.255> 0 33<24 92.1445> 0 40<222.92 424.983> 606 40<223.637 384.847> 613 33<24 92.1445>
VStem: 99 122<44.4801 601.64> 242 120<-160.255 -67.745> 549 132<185.589 421.599>
LayerCount: 2
Fore
SplineSet
236 -175 m 0
 236 -145 259 -113 306 -113 c 0
 348 -113 371 -149 371 -179 c 0
 371 -205 345 -241 300 -241 c 0
 260 -241 236 -208 236 -175 c 0
254 119 m 2
 254 52 280 40 350 40 c 0
 426 40 535 102 535 284 c 0
 535 435 513 604 316 604 c 0
 280 604 254 584 254 529 c 2
 254 119 l 2
185 0 m 0
 145 0 31 -2 31 -2 c 1
 21 4 21 26 31 32 c 1
 86 35 114 39 114 122 c 2
 114 523 l 2
 114 606 86 610 31 613 c 1
 21 619 21 641 31 647 c 1
 31 647 145 645 185 645 c 0
 225 645 267 646 320 646 c 0
 566 646 686 494 686 309 c 0
 686 207.4 653 124 605 82 c 0
 534.3 20.2 434.5 -2 347 -2 c 0
 307 -2 225 0 185 0 c 0
EndSplineSet
LCarets2: 1 0 
EndChar

StartChar: uni1E0D
Encoding: 7693 7693 142
Width: 563
VWidth: 999
Flags: HW
HStem: -174 120<200.745 293.255> -10 50<201.993 305.84> 28 31<462.031 508> 402 42<202.292 301.893> 638 34<266.016 304> 678 20<418.466 435.5>
VStem: 37 115<105.179 315.346> 187 120<-160.255 -67.745> 334 110<71.0411 371.307 419 635.227>
LayerCount: 2
Fore
SplineSet
181 -175 m 0
 181 -145 204 -113 251 -113 c 0
 293 -113 316 -149 316 -179 c 0
 316 -205 290 -241 245 -241 c 0
 205 -241 181 -208 181 -175 c 0
352.2 48 m 1
 348 48 l 1
 327 34 253 -10 226 -10 c 0
 170.2 -10 145 4 109 32 c 0
 60.4 69.8 39 138.5 39 198 c 0
 39 331 152 444 281 444 c 0
 309.9 444 333.9 439.4 353 432.6 c 1
 353 563 l 2
 353 632 348 633 285 638 c 1
 280 647 279 660 282 672 c 1
 353 675 433 686 470 698 c 1
 479 698 486 694 486 685 c 2
 486 685 483 648 483 583 c 2
 483 125 l 2
 483 56 488 55 551 50 c 1
 556 41 557 28 554 16 c 1
 483 13 403 2 366 -10 c 1
 357 -10 350 -6 350 3 c 2
 350 3 351.3 18.8 352.2 48 c 1
353 96 m 1
 353 98.9 353 101.9 353 105 c 2
 353 366.2 l 1
 328.7 399.3 304.2 402 278 402 c 0
 247.7 402 220.5 386.1 204 359 c 0
 185.1 328 179 282.3 179 229 c 0
 179 112 218 56 268 56 c 0
 280 56 333 79 353 96 c 1
EndSplineSet
LCarets2: 1 0 
EndChar

StartChar: uni1E0E
Encoding: 7694 7694 143
Width: 729
VWidth: 999
Flags: HW
HStem: -105 44<144.058 421.638> 0 33<24 92.1445> 0 40<222.92 424.983> 606 40<223.637 384.847> 613 33<24 92.1445>
VStem: 99 122<44.4801 601.64> 143 280<-104.948 -61> 549 132<185.589 421.599>
LayerCount: 2
Fore
SplineSet
400 -105 m 2
 155 -105 l 2
 147 -105 143 -97 143 -90 c 0
 143 -78 153 -61 165 -61 c 2
 410 -61 l 2
 419 -61 423 -68 423 -75 c 0
 423 -87 413 -105 400 -105 c 2
254 119 m 2
 254 52 280 40 350 40 c 0
 426 40 535 102 535 284 c 0
 535 435 513 604 316 604 c 0
 280 604 254 584 254 529 c 2
 254 119 l 2
185 0 m 0
 145 0 31 -2 31 -2 c 1
 21 4 21 26 31 32 c 1
 86 35 114 39 114 122 c 2
 114 523 l 2
 114 606 86 610 31 613 c 1
 21 619 21 641 31 647 c 1
 31 647 145 645 185 645 c 0
 225 645 267 646 320 646 c 0
 566 646 686 494 686 309 c 0
 686 207.4 653 124 605 82 c 0
 534.3 20.2 434.5 -2 347 -2 c 0
 307 -2 225 0 185 0 c 0
EndSplineSet
LCarets2: 1 0 
EndChar

StartChar: uni1E0F
Encoding: 7695 7695 144
Width: 563
VWidth: 999
Flags: HW
HStem: -109 44<95.0576 372.638> -10 50<201.993 305.84> 28 31<462.031 508> 402 42<202.292 301.893> 638 34<266.016 304> 678 20<418.466 435.5>
VStem: 37 115<105.179 315.346> 94 280<-108.948 -65> 334 110<71.0411 371.307 419 635.227>
LayerCount: 2
Fore
SplineSet
351 -109 m 2
 106 -109 l 2
 98 -109 94 -101 94 -94 c 0
 94 -82 104 -65 116 -65 c 2
 361 -65 l 2
 370 -65 374 -72 374 -79 c 0
 374 -91 364 -109 351 -109 c 2
352.2 48 m 1
 348 48 l 1
 327 34 253 -10 226 -10 c 0
 170.2 -10 145 4 109 32 c 0
 60.4 69.8 39 138.5 39 198 c 0
 39 331 152 444 281 444 c 0
 309.9 444 333.9 439.4 353 432.6 c 1
 353 563 l 2
 353 632 348 633 285 638 c 1
 280 647 279 660 282 672 c 1
 353 675 433 686 470 698 c 1
 479 698 486 694 486 685 c 2
 486 685 483 648 483 583 c 2
 483 125 l 2
 483 56 488 55 551 50 c 1
 556 41 557 28 554 16 c 1
 483 13 403 2 366 -10 c 1
 357 -10 350 -6 350 3 c 2
 350 3 351.3 18.8 352.2 48 c 1
353 96 m 1
 353 98.9 353 101.9 353 105 c 2
 353 366.2 l 1
 328.7 399.3 304.2 402 278 402 c 0
 247.7 402 220.5 386.1 204 359 c 0
 185.1 328 179 282.3 179 229 c 0
 179 112 218 56 268 56 c 0
 280 56 333 79 353 96 c 1
EndSplineSet
LCarets2: 1 0 
EndChar

StartChar: uni1E10
Encoding: 7696 7696 145
Width: 729
VWidth: 999
Flags: HW
HStem: -181 25<103.659 200.933> -80 32<173.31 210.165> 0 33<24 92.1445> 0 40<222.92 424.983> 606 40<223.637 384.847> 613 33<24 92.1445>
VStem: 99 122<44.4801 601.64> 217 53<-146.949 -84.278> 549 132<185.589 421.599>
DStem2: 124 -80 173 -51 0.397156 0.917751<46.0754 95.3334>
LayerCount: 2
Fore
SplineSet
118 -101 m 1
 112 -95 l 1
 159.4 -0.2 l 1
 109.8 -0.7 31 -2 31 -2 c 1
 21 4 21 26 31 32 c 1
 86 35 114 39 114 122 c 2
 114 523 l 2
 114 606 86 610 31 613 c 1
 21 619 21 641 31 647 c 1
 31 647 145 645 185 645 c 0
 225 645 267 646 320 646 c 0
 566 646 686 494 686 309 c 0
 686 207.4 653 124 605 82 c 0
 534.3 20.2 434.5 -2 347 -2 c 0
 309.8 -2 236.4 -0.2 194.1 -0 c 1
 177 -41 l 1
 222.4 -50.1 269.9 -70.5 269.9 -125.1 c 0
 269.9 -175.3 217.8 -215 153 -215 c 0
 121 -215 114 -209 89 -198 c 1
 89 -188 89.9 -176.2 99 -172 c 1
 126 -182 137 -186 157 -186 c 0
 187 -186 207 -172 207 -145 c 0
 207 -107.4 154 -103 118 -101 c 1
254 119 m 2
 254 52 280 40 350 40 c 0
 426 40 535 102 535 284 c 0
 535 435 513 604 316 604 c 0
 280 604 254 584 254 529 c 2
 254 119 l 2
EndSplineSet
LCarets2: 1 0 
EndChar

StartChar: uni1E11
Encoding: 7697 7697 146
Width: 563
VWidth: 999
Flags: HW
HStem: -177 25<149.659 246.933> -76 32<219.31 256.165> -10 50<201.993 305.84> 28 31<462.031 508> 402 42<202.292 301.893> 638 34<266.016 304> 678 20<418.466 435.5>
VStem: 37 115<105.179 315.346> 263 53<-142.949 -80.278> 334 110<71.0411 371.307 419 635.227>
DStem2: 170 -76 219 -47 0.397156 0.917751<46.0754 95.3334>
LayerCount: 2
Fore
SplineSet
164 -97 m 1
 158 -91 l 1
 199.2 -8.7 l 1
 161 -4.6 138.7 8.9 109 32 c 0
 60.4 69.8 39 138.5 39 198 c 0
 39 331 152 444 281 444 c 0
 309.9 444 333.9 439.4 353 432.6 c 1
 353 563 l 2
 353 632 348 633 285 638 c 1
 280 647 279 660 282 672 c 1
 353 675 433 686 470 698 c 1
 479 698 486 694 486 685 c 2
 486 685 483 648 483 583 c 2
 483 125 l 2
 483 56 488 55 551 50 c 1
 556 41 557 28 554 16 c 1
 483 13 403 2 366 -10 c 1
 357 -10 350 -6 350 3 c 2
 350 3 351.3 18.8 352.2 48 c 1
 348 48 l 1
 329 35.3 266.3 -2 234.7 -8.9 c 1
 223 -37 l 1
 268.4 -46.1 315.9 -66.5 315.9 -121.1 c 0
 315.9 -171.3 263.8 -211 199 -211 c 0
 167 -211 160 -205 135 -194 c 1
 135 -184 135.9 -172.2 145 -168 c 1
 172 -178 183 -182 203 -182 c 0
 233 -182 253 -168 253 -141 c 0
 253 -103.4 200 -99 164 -97 c 1
353 96 m 1
 353 98.9 353 101.9 353 105 c 2
 353 366.2 l 1
 328.7 399.3 304.2 402 278 402 c 0
 247.7 402 220.5 386.1 204 359 c 0
 185.1 328 179 282.3 179 229 c 0
 179 112 218 56 268 56 c 0
 280 56 333 79 353 96 c 1
EndSplineSet
LCarets2: 1 0 
EndChar

StartChar: uni1E12
Encoding: 7698 7698 147
Width: 729
VWidth: 999
Flags: HW
HStem: 0 33<24 92.1445> 0 40<222.92 424.983> 606 40<223.637 384.847> 613 33<24 92.1445>
VStem: 99 122<44.4801 601.64> 549 132<185.589 421.599>
LayerCount: 2
Fore
SplineSet
305 -62 m 1
 335 -111 373 -155 410 -196 c 1
 385 -215 l 1
 342 -189 313 -169 278 -132 c 1
 240 -171 212 -189 172 -215 c 1
 147 -196 l 1
 183 -155 223 -110 253 -62 c 1
 305 -62 l 1
254 119 m 2
 254 52 280 40 350 40 c 0
 426 40 535 102 535 284 c 0
 535 435 513 604 316 604 c 0
 280 604 254 584 254 529 c 2
 254 119 l 2
185 0 m 0
 145 0 31 -2 31 -2 c 1
 21 4 21 26 31 32 c 1
 86 35 114 39 114 122 c 2
 114 523 l 2
 114 606 86 610 31 613 c 1
 21 619 21 641 31 647 c 1
 31 647 145 645 185 645 c 0
 225 645 267 646 320 646 c 0
 566 646 686 494 686 309 c 0
 686 207.4 653 124 605 82 c 0
 534.3 20.2 434.5 -2 347 -2 c 0
 307 -2 225 0 185 0 c 0
EndSplineSet
LCarets2: 1 0 
EndChar

StartChar: uni1E13
Encoding: 7699 7699 148
Width: 563
VWidth: 999
Flags: HW
HStem: -10 50<201.993 305.84> 28 31<462.031 508> 402 42<202.292 301.893> 638 34<266.016 304> 678 20<418.466 435.5>
VStem: 37 115<105.179 315.346> 334 110<71.0411 371.307 419 635.227>
LayerCount: 2
Fore
SplineSet
254 -62 m 1
 284 -111 322 -155 359 -196 c 1
 334 -215 l 1
 291 -189 262 -169 227 -132 c 1
 189 -171 161 -189 121 -215 c 1
 96 -196 l 1
 132 -155 172 -110 202 -62 c 1
 254 -62 l 1
352.2 48 m 1
 348 48 l 1
 327 34 253 -10 226 -10 c 0
 170.2 -10 145 4 109 32 c 0
 60.4 69.8 39 138.5 39 198 c 0
 39 331 152 444 281 444 c 0
 309.9 444 333.9 439.4 353 432.6 c 1
 353 563 l 2
 353 632 348 633 285 638 c 1
 280 647 279 660 282 672 c 1
 353 675 433 686 470 698 c 1
 479 698 486 694 486 685 c 2
 486 685 483 648 483 583 c 2
 483 125 l 2
 483 56 488 55 551 50 c 1
 556 41 557 28 554 16 c 1
 483 13 403 2 366 -10 c 1
 357 -10 350 -6 350 3 c 2
 350 3 351.3 18.8 352.2 48 c 1
353 96 m 1
 353 98.9 353 101.9 353 105 c 2
 353 366.2 l 1
 328.7 399.3 304.2 402 278 402 c 0
 247.7 402 220.5 386.1 204 359 c 0
 185.1 328 179 282.3 179 229 c 0
 179 112 218 56 268 56 c 0
 280 56 333 79 353 96 c 1
EndSplineSet
LCarets2: 1 0 
EndChar

StartChar: uni1E14
Encoding: 7700 7700 149
Width: 604
VWidth: 999
Flags: HW
HStem: 0 33<27 94.1445> 0 46<224.232 442.935> 323 42<224 361.625> 427 20<383 415> 600 46<224.232 421.482> 613 33<27 94.1445> 731 48<165.823 464.922>
VStem: 101 123<46.578 323 365 599.422> 164 303<731.402 778.772> 372 36<251.814 315.565 372.621 436.233> 474 40<482.425 531.807> 499 43<118.211 170.628>
LayerCount: 2
Fore
SplineSet
318 367 m 2
 385 367 406 374 409 429 c 1
 415 435 446 435 452 429 c 1
 451 399 450 377 450 343 c 0
 450 309 451 290 452 255 c 1
 446 249 415 249 409 255 c 1
 406 300 387 317 318 317 c 2
 237 317 l 1
 237 90 l 2
 237 63 256 42 278 42 c 2
 379 42 l 2
 455 42 500 98 520 170 c 1
 533.1 173.2 554.6 171 565 165 c 1
 557 114 552 48 538 -2 c 1
 538 -2 448 0 400 0 c 2
 165 0 l 1
 165 0 59 -1 10 -2 c 1
 4 4 4 26 10 32 c 1
 80 35 97 39 97 122 c 2
 97 522 l 2
 97 605 80 610 10 613 c 1
 4 619 4 641 10 647 c 1
 60 646 164 645 164 645 c 1
 459 645 l 2
 483 645 491 646 508 649 c 0
 511 649 512 648 512 646 c 0
 514 638 519 542 524 501 c 1
 514.2 496.3 493.4 494.2 481 496 c 1
 459 565 438 603 363 603 c 2
 278 603 l 2
 254 603 237 578 237 554 c 2
 237 367 l 1
 318 367 l 2
137.2 786.2 m 0
 137.2 810.8 155.6 832 177.2 832 c 0
 187.2 832 196.7 827.4 203.8 820 c 1
 459 820 l 2
 469 820 473 811 473 803 c 0
 473 790 461 770 447 770 c 2
 214.5 770 l 1
 208.6 753 193.8 740.4 177.2 740.4 c 0
 155.6 740.4 137.2 761.6 137.2 786.2 c 0
EndSplineSet
LCarets2: 1 0 
EndChar

StartChar: uni1E15
Encoding: 7701 7701 150
Width: 484
VWidth: 999
Flags: HW
HStem: -10 56<218.732 346.305> 245 40<154 316> 402 42<199.114 288.493> 536 48<92.8231 391.922>
VStem: 34 115<124.669 245 285 306.603> 91 303<536.402 583.772> 316 115<259 363.973>
LayerCount: 2
Fore
SplineSet
228.2 734.6 m 1
 283.4 623 l 2
 286.6 616.7 290.6 606.8 290.6 599.6 c 0
 290.6 597.2 290.1 595 289.1 593 c 1
 386 593 l 2
 396 593 400 584 400 576 c 0
 400 563 388 543 374 543 c 2
 100 543 l 2
 89 543 85 552 85 561 c 0
 85 573 97 593 110 593 c 2
 260.4 593 l 1
 257.1 595.6 253.3 599 249 603.2 c 2
 152.2 697.7 l 1
 153.8 707.6 l 1
 160.2 715.7 183.4 736.4 212.2 736.4 c 0
 216.2 736.4 225 735.5 228.2 734.6 c 1
172 275 m 1
 308 275 l 1
 310 277 310 290 310 296 c 0
 310 376 273 402 246 402 c 0
 234.7 402 207.9 391.8 192 368 c 0
 178.4 347.7 173 310 172 275 c 1
426 129 m 1
 436 129 441 111 441 98 c 1
 391 25 323 -10 254 -10 c 0
 182.9 -10 134.6 5.9 97 40 c 0
 54.2 78.8 37 139.5 37 198 c 0
 37 351 152 444 257 444 c 0
 404 444 437 351 437 266 c 0
 437 252 432 235 408 235 c 2
 168 235 l 1
 168 230 167 226 167 219 c 0
 167 121 215 76 293 76 c 0
 331 76 385 87 426 129 c 1
EndSplineSet
LCarets2: 1 0 
EndChar

StartChar: uni1E16
Encoding: 7702 7702 151
Width: 604
VWidth: 999
Flags: HW
HStem: 0 33<27 94.1445> 0 46<224.232 442.935> 323 42<224 361.625> 427 20<383 415> 600 46<224.232 421.482> 613 33<27 94.1445> 731 48<108.823 407.922>
VStem: 101 123<46.578 323 365 599.422> 107 303<731.402 778.772> 372 36<251.814 315.565 372.621 436.233> 474 40<482.425 531.807> 499 43<118.211 170.628>
LayerCount: 2
Fore
SplineSet
390 770 m 2
 116 770 l 2
 105 770 101 779 101 788 c 0
 101 800 113 820 126 820 c 2
 402 820 l 2
 412 820 416 811 416 803 c 0
 416 790 404 770 390 770 c 2
318 367 m 2
 385 367 406 374 409 429 c 1
 415 435 446 435 452 429 c 1
 451 399 450 377 450 343 c 0
 450 309 451 290 452 255 c 1
 446 249 415 249 409 255 c 1
 406 300 387 317 318 317 c 2
 237 317 l 1
 237 90 l 2
 237 63 256 42 278 42 c 2
 379 42 l 2
 437.1 42 477.2 74.8 501.7 122.4 c 1
 500.9 124.8 500.5 127.9 500.5 131.4 c 0
 500.5 138 503.9 146.1 512.6 147.1 c 1
 515.4 154.5 517.8 162.2 520 170 c 1
 526.3 171.5 534.6 171.8 542.6 171 c 1
 544.6 178.8 551.7 185 558.2 185 c 0
 565.9 185 575.2 179.7 575.2 168.3 c 0
 575.2 155.1 565.2 135.8 564.4 121.7 c 1
 582.9 131.4 588.2 148.1 602.1 148.1 c 0
 616 148.1 618.3 136.7 618.3 131.4 c 0
 618.3 117.3 605.2 112 589.8 112 c 0
 581.3 112 574.4 112.9 566.7 111.1 c 1
 581.3 93.5 602.1 95.3 602.1 69.8 c 0
 602.1 61 594.4 55.7 588.2 55.7 c 0
 568.2 55.7 569 84.7 559 104.1 c 1
 557.6 101.2 556.5 98.2 555.6 95.2 c 0
 551.2 61.5 546.1 27 538 -2 c 1
 538 -2 448 0 400 0 c 2
 165 0 l 1
 165 0 59 -1 10 -2 c 1
 4 4 4 26 10 32 c 1
 80 35 97 39 97 122 c 2
 97 522 l 2
 97 605 80 610 10 613 c 1
 4 619 4 641 10 647 c 1
 60 646 164 645 164 645 c 1
 459 645 l 2
 483 645 491 646 508 649 c 0
 511 649 512 648 512 646 c 0
 514 638 519 542 524 501 c 1
 514.2 496.3 493.4 494.2 481 496 c 1
 459 565 438 603 363 603 c 2
 278 603 l 2
 254 603 237 578 237 554 c 2
 237 367 l 1
 318 367 l 2
EndSplineSet
LCarets2: 1 0 
EndChar

StartChar: uni1E17
Encoding: 7703 7703 152
Width: 484
VWidth: 999
Flags: HW
HStem: -10 56<218.732 346.305> 245 40<154 316> 402 42<199.114 288.493> 536 48<92.8231 391.922>
VStem: 34 115<124.669 245 285 306.603> 91 303<536.402 583.772> 316 115<259 363.973>
LayerCount: 2
Fore
SplineSet
274 728.6 m 1
 276.4 729.5 282.8 730.4 286.8 730.4 c 0
 310.8 730.4 326 717.8 332.4 708.8 c 1
 340.4 688.1 l 1
 246.5 593 l 1
 386 593 l 2
 396 593 400 584 400 576 c 0
 400 563 388 543 374 543 c 2
 100 543 l 2
 89 543 85 552 85 561 c 0
 85 573 97 593 110 593 c 2
 201.4 593 l 1
 202 598 203.8 604.4 207.6 610.7 c 2
 274 728.6 l 1
172 275 m 1
 308 275 l 1
 310 277 310 290 310 296 c 0
 310 376 273 402 246 402 c 0
 234.7 402 207.9 391.8 192 368 c 0
 178.4 347.7 173 310 172 275 c 1
426 129 m 1
 436 129 441 111 441 98 c 1
 391 25 323 -10 254 -10 c 0
 182.9 -10 134.6 5.9 97 40 c 0
 54.2 78.8 37 139.5 37 198 c 0
 37 351 152 444 257 444 c 0
 404 444 437 351 437 266 c 0
 437 252 432 235 408 235 c 2
 168 235 l 1
 168 230 167 226 167 219 c 0
 167 121 215 76 293 76 c 0
 331 76 385 87 426 129 c 1
EndSplineSet
LCarets2: 1 0 
EndChar

StartChar: uni1E18
Encoding: 7704 7704 153
Width: 604
VWidth: 999
Flags: HW
HStem: 0 33<27 94.1445> 0 46<224.232 442.935> 323 42<224 361.625> 427 20<383 415> 600 46<224.232 421.482> 613 33<27 94.1445>
VStem: 101 123<46.578 323 365 599.422> 372 36<251.814 315.565 372.621 436.233> 474 40<482.425 531.807> 499 43<118.211 170.628>
LayerCount: 2
Fore
SplineSet
313 -62 m 1
 343 -111 381 -155 418 -196 c 1
 393 -215 l 1
 350 -189 321 -169 286 -132 c 1
 248 -171 220 -189 180 -215 c 1
 155 -196 l 1
 191 -155 231 -110 261 -62 c 1
 313 -62 l 1
318 367 m 2
 385 367 406 374 409 429 c 1
 415 435 446 435 452 429 c 1
 451 399 450 377 450 343 c 0
 450 309 451 290 452 255 c 1
 446 249 415 249 409 255 c 1
 406 300 387 317 318 317 c 2
 237 317 l 1
 237 90 l 2
 237 63 256 42 278 42 c 2
 379 42 l 2
 455 42 500 98 520 170 c 1
 533.1 173.2 554.6 171 565 165 c 1
 557 114 552 48 538 -2 c 1
 538 -2 448 0 400 0 c 2
 165 0 l 1
 165 0 59 -1 10 -2 c 1
 4 4 4 26 10 32 c 1
 80 35 97 39 97 122 c 2
 97 522 l 2
 97 605 80 610 10 613 c 1
 4 619 4 641 10 647 c 1
 60 646 164 645 164 645 c 1
 459 645 l 2
 483 645 491 646 508 649 c 0
 511 649 512 648 512 646 c 0
 514 638 519 542 524 501 c 1
 514.2 496.3 493.4 494.2 481 496 c 1
 459 565 438 603 363 603 c 2
 278 603 l 2
 254 603 237 578 237 554 c 2
 237 367 l 1
 318 367 l 2
EndSplineSet
LCarets2: 1 0 
EndChar

StartChar: uni1E19
Encoding: 7705 7705 154
Width: 484
VWidth: 999
Flags: HW
HStem: -10 56<218.732 346.305> 245 40<154 316> 402 42<199.114 288.493>
VStem: 34 115<124.669 245 285 306.603> 316 115<259 363.973>
LayerCount: 2
Fore
SplineSet
260 -62 m 1
 290 -111 328 -155 365 -196 c 1
 340 -215 l 1
 297 -189 268 -169 233 -132 c 1
 195 -171 167 -189 127 -215 c 1
 102 -196 l 1
 138 -155 178 -110 208 -62 c 1
 260 -62 l 1
172 275 m 1
 308 275 l 1
 310 277 310 290 310 296 c 0
 310 376 273 402 246 402 c 0
 234.7 402 207.9 391.8 192 368 c 0
 178.4 347.7 173 310 172 275 c 1
426 129 m 1
 436 129 441 111 441 98 c 1
 391 25 323 -10 254 -10 c 0
 182.9 -10 134.6 5.9 97 40 c 0
 54.2 78.8 37 139.5 37 198 c 0
 37 351 152 444 257 444 c 0
 404 444 437 351 437 266 c 0
 437 252 432 235 408 235 c 2
 168 235 l 1
 168 230 167 226 167 219 c 0
 167 121 215 76 293 76 c 0
 331 76 385 87 426 129 c 1
EndSplineSet
LCarets2: 1 0 
EndChar

StartChar: uni1E1A
Encoding: 7706 7706 155
Width: 604
VWidth: 999
Flags: HW
HStem: -174 58<299 382.543> -120 59<180.743 267.285> 0 33<27 94.1445> 0 46<224.232 442.935> 323 42<224 361.625> 427 20<383 415> 600 46<224.232 421.482> 613 33<27 94.1445>
VStem: 101 123<46.578 323 365 599.422> 145 25<-165.24 -139.955> 372 36<251.814 315.565 372.621 436.233> 396 26<-93.131 -67.308> 474 40<482.425 531.807> 499 43<118.211 170.628>
LayerCount: 2
Fore
SplineSet
351 -149 m 0
 365 -149 386 -142 400 -106 c 1
 414 -106 428 -114 428 -126 c 1
 411 -184 374 -219 337 -219 c 0
 314 -219 292 -213 272 -198 c 1
 252 -185 232 -181 214 -181 c 0
 192 -181 176 -183 165 -221 c 1
 153 -221 139 -217 139 -203 c 1
 155 -152 187 -110 222 -110 c 0
 253 -110 276 -119 296 -135 c 0
 314 -149 340 -149 351 -149 c 0
318 367 m 2
 385 367 406 374 409 429 c 1
 415 435 446 435 452 429 c 1
 451 399 450 377 450 343 c 0
 450 309 451 290 452 255 c 1
 446 249 415 249 409 255 c 1
 406 300 387 317 318 317 c 2
 237 317 l 1
 237 90 l 2
 237 63 256 42 278 42 c 2
 379 42 l 2
 455 42 500 98 520 170 c 1
 533.1 173.2 554.6 171 565 165 c 1
 557 114 552 48 538 -2 c 1
 538 -2 448 0 400 0 c 2
 165 0 l 1
 165 0 59 -1 10 -2 c 1
 4 4 4 26 10 32 c 1
 80 35 97 39 97 122 c 2
 97 522 l 2
 97 605 80 610 10 613 c 1
 4 619 4 641 10 647 c 1
 60 646 164 645 164 645 c 1
 459 645 l 2
 483 645 491 646 508 649 c 0
 511 649 512 648 512 646 c 0
 514 638 519 542 524 501 c 1
 514.2 496.3 493.4 494.2 481 496 c 1
 459 565 438 603 363 603 c 2
 278 603 l 2
 254 603 237 578 237 554 c 2
 237 367 l 1
 318 367 l 2
EndSplineSet
LCarets2: 1 0 
EndChar

StartChar: uni1E1B
Encoding: 7707 7707 156
Width: 484
VWidth: 999
Flags: HW
HStem: -172 58<251 334.543> -118 59<132.743 219.285> -10 56<218.732 346.305> 245 40<154 316> 402 42<199.114 288.493>
VStem: 34 115<124.669 245 285 306.603> 97 25<-163.24 -137.955> 316 115<259 363.973> 348 26<-91.131 -65.308>
LayerCount: 2
Fore
SplineSet
303 -147 m 0
 317 -147 338 -140 352 -104 c 1
 366 -104 380 -112 380 -124 c 1
 363 -182 326 -217 289 -217 c 0
 266 -217 244 -211 224 -196 c 1
 204 -183 184 -179 166 -179 c 0
 144 -179 128 -181 117 -219 c 1
 105 -219 91 -215 91 -201 c 1
 107 -150 139 -108 174 -108 c 0
 205 -108 228 -117 248 -133 c 0
 266 -147 292 -147 303 -147 c 0
172 275 m 1
 308 275 l 1
 310 277 310 290 310 296 c 0
 310 376 273 402 246 402 c 0
 234.7 402 207.9 391.8 192 368 c 0
 178.4 347.7 173 310 172 275 c 1
426 129 m 1
 436 129 441 111 441 98 c 1
 391 25 323 -10 254 -10 c 0
 182.9 -10 134.6 5.9 97 40 c 0
 54.2 78.8 37 139.5 37 198 c 0
 37 351 152 444 257 444 c 0
 404 444 437 351 437 266 c 0
 437 252 432 235 408 235 c 2
 168 235 l 1
 168 230 167 226 167 219 c 0
 167 121 215 76 293 76 c 0
 331 76 385 87 426 129 c 1
EndSplineSet
LCarets2: 1 0 
EndChar

StartChar: uni1E1C
Encoding: 7708 7708 157
Width: 604
VWidth: 999
Flags: HW
HStem: -181 25<194.659 291.933> -80 32<264.31 301.165> 0 33<27 94.1445> 0 46<224.232 442.935> 323 42<224 361.625> 427 20<383 415> 600 46<224.232 421.482> 613 33<27 94.1445> 692 52<220.738 378.296> 785 20<164 196 404.5 435>
VStem: 101 123<46.578 323 365 599.422> 164 28<780.047 805> 308 53<-146.949 -84.278> 372 36<251.814 315.565 372.621 436.233> 408 27<779.76 805> 474 40<482.425 531.807> 499 43<118.211 170.628>
DStem2: 215 -80 264 -51 0.397156 0.917751<46.0754 95.3334>
LayerCount: 2
Fore
SplineSet
209 -101 m 1
 203 -95 l 1
 228.4 -44.3 l 1
 202.9 -32.4 178.8 -17.7 156.3 -0.1 c 1
 130 -0.4 50.5 -1.2 10 -2 c 1
 4 4 4 26 10 32 c 1
 80 35 97 39 97 122 c 2
 97 522 l 2
 97 605 80 610 10 613 c 1
 4 619 4 641 10 647 c 1
 60 646 164 645 164 645 c 1
 459 645 l 2
 483 645 491 646 508 649 c 0
 511 649 512 648 512 646 c 0
 514 638 519 542 524 501 c 1
 514.2 496.3 493.4 494.2 481 496 c 1
 459 565 438 603 363 603 c 2
 278 603 l 2
 254 603 237 578 237 554 c 2
 237 367 l 1
 318 367 l 2
 385 367 406 374 409 429 c 1
 415 435 446 435 452 429 c 1
 451 399 450 377 450 343 c 0
 450 309 451 290 452 255 c 1
 446 249 415 249 409 255 c 1
 406 300 387 317 318 317 c 2
 237 317 l 1
 237 90 l 2
 237 63 256 42 278 42 c 2
 379 42 l 2
 455 42 500 98 520 170 c 1
 533.1 173.2 554.6 171 565 165 c 1
 557 114 552 48 538 -2 c 1
 538 -2 448 0 400 0 c 2
 285.1 0 l 1
 279.3 -13.8 l 1
 327.7 -27.6 386.7 -36 461 -36 c 0
 657 -36 735 20 812 81 c 1
 829 63 l 1
 733 -52 597 -89 461 -89 c 0
 421 -89 382.6 -86.2 346.1 -80 c 1
 355.3 -91.6 360.9 -106.4 360.9 -125.1 c 0
 360.9 -175.3 308.8 -215 244 -215 c 0
 212 -215 205 -209 180 -198 c 1
 180 -188 180.9 -176.2 190 -172 c 1
 217 -182 228 -186 248 -186 c 0
 278 -186 298 -172 298 -145 c 0
 298 -107.4 245 -103 209 -101 c 1
248.6 -3.9 m 1
 250.5 0 l 1
 238.4 -0 l 1
 248.6 -3.9 l 1
EndSplineSet
LCarets2: 1 0 
EndChar

StartChar: uni1E1D
Encoding: 7709 7709 158
Width: 484
VWidth: 999
Flags: HW
HStem: -186 25<148.659 245.933> -85 32<218.31 255.165> -10 56<218.732 346.305> 245 40<154 316> 402 42<199.114 288.493> 498 62<164.853 299.87>
VStem: 34 115<124.669 245 285 306.603> 97 32<604.278 639.062> 262 53<-151.949 -89.278> 316 115<259 363.973> 336 31<605.121 639.161>
DStem2: 169 -85 218 -56 0.397156 0.917751<46.0754 95.3334>
LayerCount: 2
Fore
SplineSet
135 639 m 1
 137 585 180 560 243 560 c 0
 290 560 347 575 350 639 c 1
 382 629 l 1
 372 524 294 486 243 486 c 0
 162 486 109 548 102 629 c 1
 135 639 l 1
163 -106 m 1
 157 -100 l 1
 203.6 -6.8 l 1
 158.8 -0.6 125 14.6 97 40 c 0
 54.2 78.8 37 139.5 37 198 c 0
 37 351 152 444 257 444 c 0
 404 444 437 351 437 266 c 0
 437 252 432 235 408 235 c 2
 168 235 l 1
 168 230 167 226 167 219 c 0
 167 121 215 76 293 76 c 0
 331 76 385 87 426 129 c 1
 436 129 441 111 441 98 c 1
 391 25 323 -10 254 -10 c 0
 248.2 -10 242.6 -9.9 237.1 -9.7 c 1
 222 -46 l 1
 267.4 -55.1 314.9 -75.5 314.9 -130.1 c 0
 314.9 -180.3 262.8 -220 198 -220 c 0
 166 -220 159 -214 134 -203 c 1
 134 -193 134.9 -181.2 144 -177 c 1
 171 -187 182 -191 202 -191 c 0
 232 -191 252 -177 252 -150 c 0
 252 -112.4 199 -108 163 -106 c 1
172 275 m 1
 308 275 l 1
 310 277 310 290 310 296 c 0
 310 376 273 402 246 402 c 0
 234.7 402 207.9 391.8 192 368 c 0
 178.4 347.7 173 310 172 275 c 1
EndSplineSet
LCarets2: 1 0 
EndChar

StartChar: uni1E1E
Encoding: 7710 7710 159
Width: 540
VWidth: 999
Flags: HW
HStem: -2 34<26 94.7241 230.184 298> 323 42<223 360.625> 427 20<382 414> 600 46<223.232 420.482> 613 33<27 94.1445> 693 120<250.745 343.255>
VStem: 101 122<37.5094 323 365 599.422> 237 120<706.745 799.255> 371 36<251.813 315.565 372.621 436.232> 473 40<482.425 531.807>
LayerCount: 2
Fore
SplineSet
231 692 m 0
 231 722 254 754 301 754 c 0
 343 754 366 718 366 688 c 0
 366 674.2 358.6 657.6 345 645 c 1
 464 645 l 2
 488 645 496 646 513 649 c 0
 516 649 517 648 517 646 c 0
 519 638 524 537 529 496 c 1
 519.2 491.3 498.4 489.2 486 491 c 1
 464 560 443 603 368 603 c 2
 278 603 l 2
 254 603 237 578 237 554 c 2
 237 347 l 1
 318 347 l 2
 385 347 406 354 409 409 c 1
 415 415 446 415 452 409 c 1
 451 379 450 357 450 323 c 0
 450 289 451 270 452 235 c 1
 446 229 415 229 409 235 c 1
 406 280 387 297 318 297 c 2
 237 297 l 1
 237 122 l 2
 237 39 275 35 330 32 c 1
 340 26 340 4 330 -2 c 1
 290 -1 208 0 168 0 c 0
 128 0 54 -1 14 -2 c 1
 4 4 4 26 14 32 c 1
 69 35 97 39 97 122 c 2
 97 522 l 2
 97 605 80 610 10 613 c 1
 4 619 4 641 10 647 c 1
 60 646 164 645 164 645 c 1
 249.5 645 l 1
 237.5 657.5 231 674.8 231 692 c 0
EndSplineSet
LCarets2: 1 0 
EndChar

StartChar: uni1E1F
Encoding: 7711 7711 160
Width: 391
VWidth: 999
Flags: HW
HStem: -2 34<31 51 263 287> 387 47<26.0674 99 209 325> 656 42<236.761 302.441> 725 120<219.745 312.255>
VStem: 99 110<43.1437 387 434 564.894> 206 120<738.745 831.255>
LayerCount: 2
Fore
SplineSet
200 724 m 0
 200 754 223 786 270 786 c 0
 312 786 335 750 335 720 c 0
 335 712.5 332.8 704.1 328.7 696.1 c 1
 409.7 686.2 436 639.2 436 624 c 0
 436 586.5 415 564 386 564 c 0
 355 564 334 587 324 614 c 0
 311.4 648 305 656 288 656 c 0
 266 656 230 634 230 485 c 2
 230 434 l 1
 326 434 l 2
 345 434 346 430 346 424 c 2
 346 404 l 2
 346 392 329 387 311 387 c 2
 230 387 l 1
 230 128 l 2
 230 44 246 35 307 32 c 1
 313 26 313 4 307 -2 c 1
 264 -1 220 0 165 0 c 0
 110 0 65 -1 23 -2 c 1
 17 4 17 26 23 32 c 1
 84 35 100 44 100 126 c 2
 100 387 l 1
 54 387 l 2
 31 387 27 390 27 397 c 2
 27 411 l 2
 27 419 64 434 98 434 c 2
 100 434 l 1
 100 454 l 2
 100 550 133.9 599.6 171 640 c 0
 185.9 656.3 201.4 668.7 217.6 677.9 c 1
 206.2 690.3 200 707.2 200 724 c 0
EndSplineSet
LCarets2: 1 0 
EndChar

StartChar: uni1E20
Encoding: 7712 7712 161
Width: 755
VWidth: 999
Flags: HW
HStem: -10 44<306.541 502.262> 272 34<440 520.715 652.798 706> 437 21<571 624> 617 41<300.747 473.546> 731 48<228.823 527.922>
VStem: 29 130<202 430.82> 227 303<731.402 778.772> 532 117<85.3282 262.125> 585 39<443.564 488.517>
LayerCount: 2
Fore
SplineSet
510 770 m 2
 236 770 l 2
 225 770 221 779 221 788 c 0
 221 800 233 820 246 820 c 2
 522 820 l 2
 532 820 536 811 536 803 c 0
 536 790 524 770 510 770 c 2
407 658 m 0
 529 658 595 623 655 623 c 1
 662 551 668 501 677 459 c 1
 633 453 l 1
 607 539 538 616 393 616 c 0
 344.5 616 282.9 595.3 242 542 c 0
 202.7 490.8 183 412.7 183 327 c 0
 183 195 247 32 425 32 c 0
 479 32 506 42 540 74 c 1
 540 223 l 2
 540 263.1 512.9 266.8 458 271 c 1
 452 277 452 302 458 308 c 1
 505 307 573 306 612 306 c 0
 652 306 701 307 731 308 c 1
 737 302 737 277 731 271 c 1
 702 268 685 258 685 223 c 2
 685 106 l 2
 685 95 690 87 701 78 c 1
 634 24 520 -10 402 -10 c 0
 305.6 -10 208.6 12.4 142 66 c 0
 69.8 124.1 32 217 32 307 c 0
 32 415.5 81.3 505.3 152 565.5 c 0
 224.6 627.4 319.8 658 407 658 c 0
EndSplineSet
LCarets2: 1 0 
EndChar

StartChar: uni1E21
Encoding: 7713 7713 162
Width: 518
VWidth: 999
Flags: HW
HStem: -238 42<178.622 331.027> -12 68<200.45 373.262> 135 37<205.129 289.171> 409 35<196.474 280.87> 424 43<370.607 460> 536 48<103.823 402.922>
VStem: 38 94<-154.282 -55.8943> 62 106<210.3 365.373> 71 84<55.4643 131.752> 102 303<536.402 583.772> 316 108<211.187 370.331> 406 91<-121.914 -39.1241>
LayerCount: 2
Fore
SplineSet
385 575 m 2
 111 575 l 2
 100 575 96 584 96 593 c 0
 96 605 108 625 121 625 c 2
 397 625 l 2
 407 625 411 616 411 608 c 0
 411 595 399 575 385 575 c 2
290 284 m 0
 290 363 270 406 223 406 c 0
 184 406 166 375 166 301 c 0
 166 250 174 173 236 173 c 0
 262 173 290 188 290 284 c 0
183 -25 m 0
 162 -25 149 -23 139 -19 c 1
 128 -39 128 -62 128 -96 c 0
 128 -147 165 -196 231 -196 c 0
 269.3 -196 312 -193.9 343 -176.4 c 0
 375.9 -157.8 392 -117.2 392 -81 c 0
 392 -27.8 259.8 -25 183 -25 c 0
467 384 m 0
 442 384 424 405 420 418 c 1
 417 424 410 430 401 430 c 0
 391 430 358 422 350 412 c 1
 384 384 412 343 412 287 c 0
 412 242.1 391.8 204.5 363 179 c 0
 328.9 148.8 282 135 231 135 c 0
 200 135 178.5 140 157.5 150 c 1
 152.5 138 151 127 151 111 c 0
 151 71 178 69 196 69 c 0
 269.5 69 404.3 62 443 36 c 0
 483.3 8.9 493 -33.6 493 -55 c 0
 493 -165 342 -238 203 -238 c 0
 155.1 -238 96.7 -232.1 58 -205 c 0
 30.5 -185.7 19 -143 19 -106 c 0
 19 -89 63 -32 106 -6 c 1
 86.4 0.4 74.2 8.2 65 22 c 0
 55 37 52 48.9 52 68 c 0
 52 88.2 92 138 123 164.5 c 1
 75 191 46 243 46 292 c 0
 46 343.3 73.4 385.6 114 412 c 0
 147.1 433.5 188.9 444 232 444 c 0
 277 444 298 442 316 432 c 1
 345 458 403 481 447 481 c 0
 485 481 511 452 511 433 c 0
 511 396 495 384 467 384 c 0
EndSplineSet
LCarets2: 1 0 
EndChar

StartChar: uni1E22
Encoding: 7714 7714 163
Width: 767
VWidth: 999
Flags: HW
HStem: -2 34<24 92.7241 229.184 297 427 495.724 632.184 700> 321 46<222 502> 613 34<24 92.7241 229.184 297 427 495.724 632.184 700> 686 120<319.745 412.255>
VStem: 99 123<37.5094 321 367 607.491> 306 120<699.745 792.255> 502 123<37.5094 321 367 607.491>
LayerCount: 2
Fore
SplineSet
514 523 m 2
 514 606 486 610 431 613 c 1
 421 619 421 641 431 647 c 1
 471 646 545 645 585 645 c 0
 625 645 697 646 737 647 c 1
 747 641 747 619 737 613 c 1
 682 610 654 606 654 523 c 2
 654 122 l 2
 654 39 682 35 737 32 c 1
 747 26 747 4 737 -2 c 1
 697 -1 625 0 585 0 c 0
 545 0 471 -1 431 -2 c 1
 421 4 421 26 431 32 c 1
 486 35 514 39 514 122 c 2
 514 319 l 1
 254 319 l 1
 254 122 l 2
 254 39 282 35 337 32 c 1
 347 26 347 4 337 -2 c 1
 297 -1 225 0 185 0 c 0
 145 0 71 -1 31 -2 c 1
 21 4 21 26 31 32 c 1
 86 35 114 39 114 122 c 2
 114 523 l 2
 114 606 86 610 31 613 c 1
 21 619 21 641 31 647 c 1
 71 646 145 645 185 645 c 0
 217.5 645 271.3 645.6 311.7 646.4 c 1
 304.1 657.7 300 671.4 300 685 c 0
 300 715 323 747 370 747 c 0
 412 747 435 711 435 681 c 0
 435 655 409 619 364 619 c 0
 356.6 619 349.7 620.1 343.4 622.2 c 1
 342.2 618.2 340.1 614.9 337 613 c 1
 282 610 254 606 254 523 c 2
 254 367 l 1
 514 367 l 1
 514 523 l 2
EndSplineSet
LCarets2: 1 0 
EndChar

StartChar: uni1E23
Encoding: 7715 7715 164
Width: 616
VWidth: 999
Flags: HW
HStem: -2 34<19 37 517 534> 390 55<268.267 393> 512 120<253.745 346.255> 638 34<17.016 55> 678 20<169.465 186.5>
VStem: 85 110<43.2797 355.227 381 635.227> 240 120<525.745 618.255> 358 110<43.1478 384.199>
LayerCount: 2
Fore
SplineSet
234 511 m 0
 234 541 257 573 304 573 c 0
 346 573 369 537 369 507 c 0
 369 481 343 445 298 445 c 0
 258 445 234 478 234 511 c 0
522 128 m 2
 522 44 538 35 599 32 c 1
 605 26 605 4 599 -2 c 1
 556 -1 512 0 457 0 c 0
 409 0 377 -1 335 -2 c 1
 329 4 329 26 335 32 c 1
 376 35 392 44 392 128 c 2
 392 295 l 2
 392 352 352 370 312 370 c 0
 294.1 370 271.4 368 230 341.6 c 1
 230 127 l 2
 230 44 245 35 287 32 c 1
 293 26 293 4 287 -2 c 1
 244 -1 213 0 165 0 c 0
 110 0 65 -1 23 -2 c 1
 17 4 17 26 23 32 c 1
 84 35 100 44 100 127 c 2
 100 563 l 2
 100 631.6 95 633 32 638 c 1
 27 647 26 660 29 672 c 1
 100 675 180 686 217 698 c 1
 226 698 233 694 233 685 c 2
 233 685 230 648 230 583 c 2
 230 381.6 l 1
 287.7 414.4 347.2 444 384 444 c 0
 470 444 522 394 522 284 c 2
 522 128 l 2
EndSplineSet
LCarets2: 1 0 
EndChar

StartChar: uni1E24
Encoding: 7716 7716 165
Width: 767
VWidth: 999
Flags: HW
HStem: -174 120<319.745 412.255> -2 34<24 92.7241 229.184 297 427 495.724 632.184 700> 321 46<222 502> 613 34<24 92.7241 229.184 297 427 495.724 632.184 700>
VStem: 99 123<37.5094 321 367 607.491> 306 120<-160.255 -67.745> 502 123<37.5094 321 367 607.491>
LayerCount: 2
Fore
SplineSet
514 523 m 2
 514 606 486 610 431 613 c 1
 421 619 421 641 431 647 c 1
 471 646 545 645 585 645 c 0
 625 645 697 646 737 647 c 1
 747 641 747 619 737 613 c 1
 682 610 654 606 654 523 c 2
 654 122 l 2
 654 39 682 35 737 32 c 1
 747 26 747 4 737 -2 c 1
 697 -1 625 0 585 0 c 0
 545 0 471 -1 431 -2 c 1
 421 4 421 26 431 32 c 1
 486 35 514 39 514 122 c 2
 514 319 l 1
 254 319 l 1
 254 122 l 2
 254 39 282 35 337 32 c 1
 347 26 347 4 337 -2 c 1
 297 -1 225 0 185 0 c 0
 145 0 71 -1 31 -2 c 1
 21 4 21 26 31 32 c 1
 86 35 114 39 114 122 c 2
 114 523 l 2
 114 606 86 610 31 613 c 1
 21 619 21 641 31 647 c 1
 71 646 145 645 185 645 c 0
 225 645 297 646 337 647 c 1
 347 641 347 619 337 613 c 1
 282 610 254 606 254 523 c 2
 254 367 l 1
 514 367 l 1
 514 523 l 2
300 -175 m 0
 300 -145 323 -113 370 -113 c 0
 412 -113 435 -149 435 -179 c 0
 435 -205 409 -241 364 -241 c 0
 324 -241 300 -208 300 -175 c 0
EndSplineSet
LCarets2: 1 0 
EndChar

StartChar: uni1E25
Encoding: 7717 7717 166
Width: 616
VWidth: 999
Flags: HW
HStem: -175 120<225.745 318.255> -2 34<19 37 517 534> 390 55<268.267 393> 638 34<17.016 55> 678 20<169.465 186.5>
VStem: 85 110<43.2797 355.227 381 635.227> 212 120<-161.255 -68.745> 358 110<43.1478 384.199>
LayerCount: 2
Fore
SplineSet
206 -176 m 0
 206 -146 229 -114 276 -114 c 0
 318 -114 341 -150 341 -180 c 0
 341 -206 315 -242 270 -242 c 0
 230 -242 206 -209 206 -176 c 0
522 128 m 2
 522 44 538 35 599 32 c 1
 605 26 605 4 599 -2 c 1
 556 -1 512 0 457 0 c 0
 409 0 377 -1 335 -2 c 1
 329 4 329 26 335 32 c 1
 376 35 392 44 392 128 c 2
 392 295 l 2
 392 352 352 370 312 370 c 0
 294.1 370 271.4 368 230 341.6 c 1
 230 127 l 2
 230 44 245 35 287 32 c 1
 293 26 293 4 287 -2 c 1
 244 -1 213 0 165 0 c 0
 110 0 65 -1 23 -2 c 1
 17 4 17 26 23 32 c 1
 84 35 100 44 100 127 c 2
 100 563 l 2
 100 631.6 95 633 32 638 c 1
 27 647 26 660 29 672 c 1
 100 675 180 686 217 698 c 1
 226 698 233 694 233 685 c 2
 233 685 230 648 230 583 c 2
 230 381.6 l 1
 287.7 414.4 347.2 444 384 444 c 0
 470 444 522 394 522 284 c 2
 522 128 l 2
EndSplineSet
LCarets2: 1 0 
EndChar

StartChar: uni1E26
Encoding: 7718 7718 167
Width: 767
VWidth: 999
Flags: HW
HStem: -2 34<24 92.7241 229.184 297 427 495.724 632.184 700> 321 46<222 502> 613 34<24 92.7241 229.184 297 427 495.724 632.184 700> 693 107<212.676 298.685 400.676 487.03>
VStem: 99 123<37.5094 321 367 607.491> 202 107<703.609 789.324> 390 108<704.388 788.537> 502 123<37.5094 321 367 607.491>
LayerCount: 2
Fore
SplineSet
514 523 m 2
 514 606 486 610 431 613 c 1
 421 619 421 641 431 647 c 1
 471 646 545 645 585 645 c 0
 625 645 697 646 737 647 c 1
 747 641 747 619 737 613 c 1
 682 610 654 606 654 523 c 2
 654 122 l 2
 654 39 682 35 737 32 c 1
 747 26 747 4 737 -2 c 1
 697 -1 625 0 585 0 c 0
 545 0 471 -1 431 -2 c 1
 421 4 421 26 431 32 c 1
 486 35 514 39 514 122 c 2
 514 319 l 1
 254 319 l 1
 254 122 l 2
 254 39 282 35 337 32 c 1
 347 26 347 4 337 -2 c 1
 297 -1 225 0 185 0 c 0
 145 0 71 -1 31 -2 c 1
 21 4 21 26 31 32 c 1
 86 35 114 39 114 122 c 2
 114 523 l 2
 114 606 86 610 31 613 c 1
 21 619 21 641 31 647 c 1
 71 646 145 645 185 645 c 0
 225 645 297 646 337 647 c 1
 347 641 347 619 337 613 c 1
 282 610 254 606 254 523 c 2
 254 367 l 1
 514 367 l 1
 514 523 l 2
320 -119 m 1
 781 -119 l 1
 772 -107 742 -81 728 -46 c 1
 762 -46 l 1
 775 -62 816 -109 866 -127 c 1
 866 -138 l 1
 828 -158 790 -190 762 -221 c 1
 727 -221 l 1
 741 -189 763 -169 781 -149 c 1
 320 -149 l 1
 320 -119 l 1
EndSplineSet
LCarets2: 1 0 
EndChar

StartChar: uni1E27
Encoding: 7719 7719 168
Width: 616
VWidth: 999
Flags: HW
HStem: -2 34<19 37 517 534> 390 55<268.267 393> 517 108<230.772 315.537 371.274 454.403> 638 34<17.016 55> 678 20<169.465 186.5>
VStem: 85 110<43.2797 355.227 381 635.227> 219 108<528.772 613.228> 358 110<43.1478 384.199> 359 108<530.463 614.612>
LayerCount: 2
Fore
SplineSet
359 573 m 0
 359 602 383 626 413 626 c 0
 442 626 467 602 467 573 c 0
 467 543 442 519 413 519 c 0
 383 519 359 543 359 573 c 0
522 128 m 2
 522 44 538 35 599 32 c 1
 605 26 605 4 599 -2 c 1
 556 -1 512 0 457 0 c 0
 409 0 377 -1 335 -2 c 1
 329 4 329 26 335 32 c 1
 376 35 392 44 392 128 c 2
 392 295 l 2
 392 352 352 370 312 370 c 0
 294.1 370 271.4 368 230 341.6 c 1
 230 127 l 2
 230 44 245 35 287 32 c 1
 293 26 293 4 287 -2 c 1
 244 -1 213 0 165 0 c 0
 110 0 65 -1 23 -2 c 1
 17 4 17 26 23 32 c 1
 84 35 100 44 100 127 c 2
 100 563 l 2
 100 631.6 95 633 32 638 c 1
 27 647 26 660 29 672 c 1
 100 675 180 686 217 698 c 1
 226 698 233 694 233 685 c 2
 233 685 230.6 655.6 230.1 603.1 c 1
 240.1 616.2 255.9 625 273 625 c 0
 303 625 327 600 327 571 c 0
 327 542 303 517 273 517 c 0
 255.8 517 240 525.8 230 539 c 1
 230 381.6 l 1
 287.7 414.4 347.2 444 384 444 c 0
 470 444 522 394 522 284 c 2
 522 128 l 2
EndSplineSet
LCarets2: 1 0 
EndChar

StartChar: uni1E28
Encoding: 7720 7720 169
Width: 767
VWidth: 999
Flags: HW
HStem: -177 25<83.659 180.933> -76 32<153.31 190.165> -2 34<24 92.7241 229.184 297 427 495.724 632.184 700> 321 46<222 502> 613 34<24 92.7241 229.184 297 427 495.724 632.184 700>
VStem: 99 123<37.5094 321 367 607.491> 197 53<-142.949 -80.278> 502 123<37.5094 321 367 607.491>
DStem2: 104 -76 153 -47 0.397156 0.917751<46.0754 95.3334>
LayerCount: 2
Fore
SplineSet
514 523 m 2
 514 606 486 610 431 613 c 1
 421 619 421 641 431 647 c 1
 471 646 545 645 585 645 c 0
 625 645 697 646 737 647 c 1
 747 641 747 619 737 613 c 1
 682 610 654 606 654 523 c 2
 654 122 l 2
 654 39 682 35 737 32 c 1
 747 26 747 4 737 -2 c 1
 697 -1 625 0 585 0 c 0
 545 0 471 -1 431 -2 c 1
 421 4 421 26 431 32 c 1
 486 35 514 39 514 122 c 2
 514 319 l 1
 254 319 l 1
 254 122 l 2
 254 39 282 35 337 32 c 1
 347 26 347 4 337 -2 c 1
 297 -1 225 0 185 0 c 0
 181.1 0 176.9 0 172.4 -0 c 1
 157 -37 l 1
 202.4 -46.1 249.9 -66.5 249.9 -121.1 c 0
 249.9 -171.3 197.8 -211 133 -211 c 0
 101 -211 94 -205 69 -194 c 1
 69 -184 69.9 -172.2 79 -168 c 1
 106 -178 117 -182 137 -182 c 0
 167 -182 187 -168 187 -141 c 0
 187 -103.4 134 -99 98 -97 c 1
 92 -91 l 1
 137.4 -0.3 l 1
 100.4 -0.7 58 -1.3 31 -2 c 1
 21 4 21 26 31 32 c 1
 86 35 114 39 114 122 c 2
 114 523 l 2
 114 606 86 610 31 613 c 1
 21 619 21 641 31 647 c 1
 71 646 145 645 185 645 c 0
 225 645 297 646 337 647 c 1
 347 641 347 619 337 613 c 1
 282 610 254 606 254 523 c 2
 254 367 l 1
 514 367 l 1
 514 523 l 2
EndSplineSet
LCarets2: 1 0 
EndChar

StartChar: uni1E29
Encoding: 7721 7721 170
Width: 616
VWidth: 999
Flags: HW
HStem: -175 25<54.659 151.933> -74 32<124.31 161.165> -2 34<19 37 517 534> 390 55<268.267 393> 638 34<17.016 55> 678 20<169.465 186.5>
VStem: 85 110<43.2797 355.227 381 635.227> 168 53<-140.949 -78.278> 358 110<43.1478 384.199>
DStem2: 75 -74 124 -45 0.397156 0.917751<46.0754 95.3334>
LayerCount: 2
Fore
SplineSet
69 -95 m 1
 63 -89 l 1
 107.3 -0.4 l 1
 76.9 -0.8 49.3 -1.4 23 -2 c 1
 17 4 17 26 23 32 c 1
 84 35 100 44 100 127 c 2
 100 563 l 2
 100 631.6 95 633 32 638 c 1
 27 647 26 660 29 672 c 1
 100 675 180 686 217 698 c 1
 226 698 233 694 233 685 c 2
 233 685 230 648 230 583 c 2
 230 381.6 l 1
 287.7 414.4 347.2 444 384 444 c 0
 470 444 522 394 522 284 c 2
 522 128 l 2
 522 44 538 35 599 32 c 1
 605 26 605 4 599 -2 c 1
 556 -1 512 0 457 0 c 0
 409 0 377 -1 335 -2 c 1
 329 4 329 26 335 32 c 1
 376 35 392 44 392 128 c 2
 392 295 l 2
 392 352 352 370 312 370 c 0
 294.1 370 271.4 368 230 341.6 c 1
 230 127 l 2
 230 44 245 35 287 32 c 1
 293 26 293 4 287 -2 c 1
 244 -1 213 0 165 0 c 0
 157.3 0 149.9 -0.1 142.6 -0.1 c 1
 128 -35 l 1
 173.4 -44.1 220.9 -64.5 220.9 -119.1 c 0
 220.9 -169.3 168.8 -209 104 -209 c 0
 72 -209 65 -203 40 -192 c 1
 40 -182 40.9 -170.2 50 -166 c 1
 77 -176 88 -180 108 -180 c 0
 138 -180 158 -166 158 -139 c 0
 158 -101.4 105 -97 69 -95 c 1
EndSplineSet
LCarets2: 1 0 
EndChar

StartChar: uni1E2A
Encoding: 7722 7722 171
Width: 767
VWidth: 999
Flags: HW
HStem: -202 62<288.853 423.87> -2 34<24 92.7241 229.184 297 427 495.724 632.184 700> 321 46<222 502> 613 34<24 92.7241 229.184 297 427 495.724 632.184 700>
VStem: 99 123<37.5094 321 367 607.491> 221 32<-95.7216 -60.9375> 460 31<-94.8791 -60.8387> 502 123<37.5094 321 367 607.491>
LayerCount: 2
Fore
SplineSet
514 523 m 2
 514 606 486 610 431 613 c 1
 421 619 421 641 431 647 c 1
 471 646 545 645 585 645 c 0
 625 645 697 646 737 647 c 1
 747 641 747 619 737 613 c 1
 682 610 654 606 654 523 c 2
 654 122 l 2
 654 39 682 35 737 32 c 1
 747 26 747 4 737 -2 c 1
 697 -1 625 0 585 0 c 0
 545 0 471 -1 431 -2 c 1
 421 4 421 26 431 32 c 1
 486 35 514 39 514 122 c 2
 514 319 l 1
 254 319 l 1
 254 122 l 2
 254 39 282 35 337 32 c 1
 347 26 347 4 337 -2 c 1
 297 -1 225 0 185 0 c 0
 145 0 71 -1 31 -2 c 1
 21 4 21 26 31 32 c 1
 86 35 114 39 114 122 c 2
 114 523 l 2
 114 606 86 610 31 613 c 1
 21 619 21 641 31 647 c 1
 71 646 145 645 185 645 c 0
 225 645 297 646 337 647 c 1
 347 641 347 619 337 613 c 1
 282 610 254 606 254 523 c 2
 254 367 l 1
 514 367 l 1
 514 523 l 2
259 -61 m 1
 261 -115 304 -140 367 -140 c 0
 414 -140 471 -125 474 -61 c 1
 506 -71 l 1
 496 -176 418 -214 367 -214 c 0
 286 -214 233 -152 226 -71 c 1
 259 -61 l 1
EndSplineSet
LCarets2: 1 0 
EndChar

StartChar: uni1E2B
Encoding: 7723 7723 172
Width: 616
VWidth: 999
Flags: HW
HStem: -212 62<223.853 358.87> -2 34<19 37 517 534> 390 55<268.267 393> 638 34<17.016 55> 678 20<169.465 186.5>
VStem: 85 110<43.2797 355.227 381 635.227> 156 32<-105.722 -70.9375> 358 110<43.1478 384.199> 395 31<-104.879 -70.8387>
LayerCount: 2
Fore
SplineSet
194 -71 m 1
 196 -125 239 -150 302 -150 c 0
 349 -150 406 -135 409 -71 c 1
 441 -81 l 1
 431 -186 353 -224 302 -224 c 0
 221 -224 168 -162 161 -81 c 1
 194 -71 l 1
522 128 m 2
 522 44 538 35 599 32 c 1
 605 26 605 4 599 -2 c 1
 556 -1 512 0 457 0 c 0
 409 0 377 -1 335 -2 c 1
 329 4 329 26 335 32 c 1
 376 35 392 44 392 128 c 2
 392 295 l 2
 392 352 352 370 312 370 c 0
 294.1 370 271.4 368 230 341.6 c 1
 230 127 l 2
 230 44 245 35 287 32 c 1
 293 26 293 4 287 -2 c 1
 244 -1 213 0 165 0 c 0
 110 0 65 -1 23 -2 c 1
 17 4 17 26 23 32 c 1
 84 35 100 44 100 127 c 2
 100 563 l 2
 100 631.6 95 633 32 638 c 1
 27 647 26 660 29 672 c 1
 100 675 180 686 217 698 c 1
 226 698 233 694 233 685 c 2
 233 685 230 648 230 583 c 2
 230 381.6 l 1
 287.7 414.4 347.2 444 384 444 c 0
 470 444 522 394 522 284 c 2
 522 128 l 2
EndSplineSet
EndChar

StartChar: uni1E2C
Encoding: 7724 7724 173
Width: 367
VWidth: 999
Flags: HW
HStem: -174 58<179 262.543> -120 59<60.7435 147.285> -2 34<24 92.7241 228.184 296> 613 34<24 92.7241 228.184 296>
VStem: 25 25<-165.24 -139.955> 99 122<37.5094 607.491> 276 26<-93.131 -67.308>
LayerCount: 2
Fore
SplineSet
231 -149 m 0
 245 -149 266 -142 280 -106 c 1
 294 -106 308 -114 308 -126 c 1
 291 -184 254 -219 217 -219 c 0
 194 -219 172 -213 152 -198 c 1
 132 -185 112 -181 94 -181 c 0
 72 -181 56 -183 45 -221 c 1
 33 -221 19 -217 19 -203 c 1
 35 -152 67 -110 102 -110 c 0
 133 -110 156 -119 176 -135 c 0
 194 -149 220 -149 231 -149 c 0
114 523 m 2
 114 606 86 610 31 613 c 1
 21 619 21 641 31 647 c 1
 71 646 145 645 185 645 c 0
 225 645 297 646 337 647 c 1
 347 641 347 619 337 613 c 1
 282 610 254 606 254 523 c 2
 254 122 l 2
 254 39 282 35 337 32 c 1
 347 26 347 4 337 -2 c 1
 297 -1 225 0 185 0 c 0
 145 0 71 -1 31 -2 c 1
 21 4 21 26 31 32 c 1
 86 35 114 39 114 122 c 2
 114 523 l 2
EndSplineSet
LCarets2: 1 0 
EndChar

StartChar: uni1E2D
Encoding: 7725 7725 174
Width: 322
VWidth: 999
Flags: HW
HStem: -174 58<165 248.543> -120 59<46.7435 133.285> -2 34<37 54 258 274> 387 30<38 79> 427 20<191.25 208.219> 511 120<108.745 201.255>
VStem: 11 25<-165.24 -139.955> 101 110<41.5278 383 522.108 619.892> 262 26<-93.131 -67.308>
LayerCount: 2
Fore
SplineSet
217 -149 m 0
 231 -149 252 -142 266 -106 c 1
 280 -106 294 -114 294 -126 c 1
 277 -184 240 -219 203 -219 c 0
 180 -219 158 -213 138 -198 c 1
 118 -185 98 -181 80 -181 c 0
 58 -181 42 -183 31 -221 c 1
 19 -221 5 -217 5 -203 c 1
 21 -152 53 -110 88 -110 c 0
 119 -110 142 -119 162 -135 c 0
 180 -149 206 -149 217 -149 c 0
232 122 m 2
 232 39 243 36 304 32 c 1
 310 26 310 4 304 -2 c 1
 261 -1 220 0 167 0 c 0
 114 0 72 -1 30 -2 c 1
 24 4 24 26 30 32 c 1
 91 37 102 39 102 122 c 2
 102 314 l 2
 102 371 91.5 376.9 37 382 c 1
 35 388 33 410 35 416 c 1
 104 425 184.5 433 213 444 c 1
 227 444 236 438 236 427 c 2
 236 427 232 371 232 321.3 c 2
 232 122 l 2
97 580 m 0
 97 610 120 642 167 642 c 0
 209 642 232 606 232 576 c 0
 232 550 206 514 161 514 c 0
 121 514 97 547 97 580 c 0
EndSplineSet
LCarets2: 1 0 
EndChar

